<svg width="20" height="20" viewBox="0 0 20 20" fill="none" xmlns="http://www.w3.org/2000/svg">
<path d="M19.7955 3.06803L16.932 0.204541C16.801 0.0735493 16.6234 0 16.4382 0C16.2529 0 16.0754 0.0735493 15.9444 0.204541C14.9914 1.1577 14.6122 2.42917 14.8685 3.46324L6.89538 11.4364L5.4486 9.98957C5.3177 9.85867 5.14007 9.78512 4.95489 9.78512C4.76972 9.78512 4.59208 9.85867 4.46118 9.98957L1.14923 13.3015C0.408152 14.0427 0 15.0281 0 16.0761C0 17.1242 0.408152 18.1096 1.14932 18.8508C1.8904 19.5918 2.87578 20 3.9239 20C4.97193 20 5.9573 19.5918 6.69848 18.8508L10.0104 15.5389C10.1414 15.4079 10.215 15.2304 10.215 15.0451C10.215 14.8598 10.1414 14.6824 10.0104 14.5513L8.56374 13.1046L16.5342 5.13411C16.7452 5.18802 16.9674 5.2165 17.1971 5.2165C18.1106 5.2165 19.0577 4.79327 19.7955 4.05564C19.9265 3.92464 20 3.7471 20 3.56183C20 3.37656 19.9265 3.19911 19.7955 3.06803ZM17.1971 3.82C16.9818 3.82 16.6778 3.7727 16.4526 3.5474C16.0584 3.15331 16.1018 2.41623 16.4993 1.74684L18.2534 3.50104C17.909 3.70577 17.54 3.82 17.1971 3.82Z" fill="#344059"/>
</svg>
