<svg width="76" height="18" viewBox="0 0 76 18" fill="none" xmlns="http://www.w3.org/2000/svg">
<path d="M25.336 12.68V9.992H30.664V12.68H25.336ZM30.664 5.996V8.576H25.336V5.996H30.664ZM23.86 4.556V14.9H25.336V14.12H30.664V14.876H32.2V4.556H23.86ZM37.468 5.54V7.1H36.304V5.54H37.468ZM36.304 10.088V8.348H37.468V10.088H36.304ZM40.828 9.344H43.516V10.628H40.828V9.344ZM36.304 11.36H38.776V7.316C39.052 7.58 39.34 8.012 39.46 8.312L39.484 8.3V11.78H44.932V8.204H39.796C41.404 7.64 41.98 6.752 42.232 5.504H43.888C43.828 6.188 43.756 6.512 43.648 6.62C43.552 6.716 43.456 6.74 43.288 6.74C43.096 6.74 42.7 6.728 42.244 6.692C42.436 7.004 42.568 7.472 42.592 7.832C43.132 7.856 43.672 7.844 43.972 7.808C44.296 7.772 44.572 7.676 44.8 7.424C45.076 7.124 45.184 6.368 45.28 4.736C45.292 4.568 45.304 4.256 45.304 4.256H39.124V5.504H40.828C40.612 6.308 40.132 6.884 38.776 7.256V4.292H34.96V11.924H36.304V11.36ZM35.8 15.104C36.304 14.396 36.88 13.328 37.276 12.416L35.896 12.032C35.524 12.92 34.912 13.916 34.42 14.504L35.8 15.104ZM37.888 12.488C38.02 13.304 38.116 14.372 38.116 14.996L39.52 14.78C39.508 14.144 39.364 13.124 39.208 12.332L37.888 12.488ZM40.42 12.464C40.696 13.268 40.972 14.324 41.044 14.948L42.472 14.66C42.364 14 42.064 12.992 41.764 12.224L40.42 12.464ZM42.892 12.452C43.384 13.268 43.96 14.372 44.2 15.044L45.58 14.456C45.304 13.772 44.68 12.716 44.188 11.948L42.892 12.452ZM52.78 12.776V6.572H56.812V5.084H47.224V6.572H51.148V12.776H46.576V14.216H57.484V12.776H52.78ZM61.828 10.496H66.208V11.192H61.828V10.496ZM66.208 5.516V6.176H61.828V5.516H66.208ZM66.208 8.828V9.488H61.828V8.828H66.208ZM66.208 7.82H61.828V7.184H66.208V7.82ZM69.472 12.476V11.192H67.66V4.388H60.448V11.192H58.576V12.476H61.528C60.736 13.04 59.464 13.664 58.384 14.024C58.708 14.3 59.176 14.756 59.428 15.056C60.628 14.624 62.116 13.88 63.052 13.196L62.044 12.476H65.632L64.972 13.22C66.268 13.772 67.672 14.54 68.464 15.056L69.64 14.012C68.884 13.568 67.66 12.992 66.484 12.476H69.472Z" fill="#595959"/>
<path d="M8.06874 2.76171C8.06874 2.60931 7.94537 2.48594 7.79296 2.48594C7.64054 2.48594 7.51719 2.60938 7.51719 2.76171V4.79294C7.51719 4.94535 7.64056 5.06872 7.79296 5.06872C7.94537 5.06872 8.06874 4.94535 8.06874 4.79294V2.76171Z" fill="#595959" stroke="#595959" stroke-width="0.2"/>
<path d="M8.06874 16.8242V14.793C8.06874 14.6406 7.94537 14.5172 7.79296 14.5172C7.64056 14.5172 7.51719 14.6406 7.51719 14.793V16.8242C7.51719 16.9767 7.64056 17.1 7.79296 17.1C7.94537 17.1 8.06874 16.9767 8.06874 16.8242Z" fill="#595959" stroke="#595959" stroke-width="0.2"/>
<path d="M4.06238 6.45215L4.06244 6.45221C4.1162 6.50588 4.18689 6.53296 4.25741 6.53296C4.32792 6.53296 4.39864 6.50589 4.45238 6.45215C4.56012 6.34441 4.56012 6.16989 4.45238 6.06215L3.34755 4.95733C3.23987 4.84964 3.0653 4.84964 2.95761 4.95733C2.84987 5.06507 2.84987 5.23958 2.95761 5.34732C2.95761 5.34732 2.95761 5.34732 2.95761 5.34732L4.06238 6.45215Z" fill="#595959" stroke="#595959" stroke-width="0.2"/>
<path d="M12.6284 14.6284C12.7361 14.5207 12.7361 14.3462 12.6284 14.2384L11.5236 13.1336L11.4566 13.2005L11.5236 13.1336C11.4159 13.0259 11.2414 13.0259 11.1337 13.1336L11.1336 13.1336C11.0259 13.2413 11.0259 13.4159 11.1336 13.5236L12.2385 14.6284C12.2922 14.6822 12.3629 14.7092 12.4334 14.7092C12.5038 14.7092 12.5746 14.6823 12.6284 14.6284ZM12.6284 14.6284L12.5577 14.5577M12.6284 14.6284C12.6284 14.6284 12.6284 14.6284 12.6285 14.6284L12.5577 14.5577M12.5577 14.5577C12.6264 14.489 12.6264 14.3778 12.5577 14.3091L11.4529 13.2043C11.3842 13.1357 11.273 13.1357 11.2043 13.2043C11.1357 13.273 11.1357 13.3842 11.2043 13.4529L12.3092 14.5577C12.3435 14.592 12.3884 14.6092 12.4334 14.6092C12.4784 14.6092 12.5234 14.5921 12.5577 14.5577Z" fill="#595959" stroke="#595959" stroke-width="0.2"/>
<path d="M4.06238 13.1336L4.06241 13.1336C4.17015 13.0259 4.34462 13.0259 4.45235 13.1336L4.45238 13.1336C4.56012 13.2413 4.56012 13.4159 4.45238 13.5236L3.34755 14.6284C3.29382 14.6822 3.22309 14.7092 3.15258 14.7092C3.08218 14.7092 3.01142 14.6823 2.95761 14.6284L4.06238 13.1336ZM4.06238 13.1336L2.95761 14.2384C2.95761 14.2384 2.95761 14.2384 2.95761 14.2384C2.84988 14.3462 2.84987 14.5206 2.95758 14.6284L4.06238 13.1336Z" fill="#595959" stroke="#595959" stroke-width="0.2"/>
<path d="M12.6284 5.34732C12.7361 5.23958 12.7361 5.06507 12.6284 4.95733C12.5207 4.84964 12.3461 4.84964 12.2385 4.95733L11.1336 6.06215C11.0259 6.16989 11.0259 6.34441 11.1336 6.45215C11.1874 6.50589 11.2581 6.53296 11.3286 6.53296C11.3991 6.53296 11.4698 6.50589 11.5236 6.45215L12.6284 5.34732Z" fill="#595959" stroke="#595959" stroke-width="0.2"/>
<path d="M0.761715 9.51719C0.609308 9.51719 0.485937 9.64056 0.485937 9.79296C0.485937 9.94539 0.609386 10.0687 0.761715 10.0687H2.79294C2.94535 10.0687 3.06872 9.94537 3.06872 9.79296C3.06872 9.64056 2.94535 9.51719 2.79294 9.51719H0.761715Z" fill="#595959" stroke="#595959" stroke-width="0.2"/>
<path d="M14.8242 10.0687C14.9766 10.0687 15.1 9.94537 15.1 9.79296C15.1 9.64061 14.9765 9.51719 14.8242 9.51719H12.793C12.6406 9.51719 12.5172 9.64056 12.5172 9.79296C12.5172 9.94537 12.6406 10.0687 12.793 10.0687H14.8242Z" fill="#595959" stroke="#595959" stroke-width="0.2"/>
<circle cx="7.9452" cy="9.9452" r="2.94373" fill="#595959"/>
</svg>
