<svg width="235" height="24" viewBox="0 0 235 24" fill="none" xmlns="http://www.w3.org/2000/svg">
<line x1="70" y1="0.5" x2="70" y2="7.5" stroke="#595959" stroke-width="2"/>
<line x1="120.5" y1="0.5" x2="120.5" y2="7.5" stroke="#595959"/>
<line x1="19" y1="0.5" x2="19" y2="7.5" stroke="#595959" stroke-width="2"/>
<line x1="35.5" y1="0.5" x2="35.5" y2="4.5" stroke="#595959"/>
<line x1="52.5" y1="0.5" x2="52.5" y2="4.5" stroke="#595959"/>
<line x1="86.5" y1="0.5" x2="86.5" y2="4.5" stroke="#595959"/>
<line x1="103.5" y1="0.5" x2="103.5" y2="4.5" stroke="#595959"/>
<line x1="120.5" y1="0.5" x2="120.5" y2="4.5" stroke="#595959"/>
<line x1="172" y1="0.5" x2="172" y2="7.5" stroke="#595959" stroke-width="2"/>
<path d="M222 0L222 7.5" stroke="#595959" stroke-width="2"/>
<line x1="121" y1="0.5" x2="121" y2="7.5" stroke="#595959" stroke-width="2"/>
<line x1="137.5" y1="0.5" x2="137.5" y2="4.5" stroke="#595959"/>
<line x1="154.5" y1="0.5" x2="154.5" y2="4.5" stroke="#595959"/>
<line x1="188.5" y1="0.5" x2="188.5" y2="4.5" stroke="#595959"/>
<line x1="205.5" y1="0.5" x2="205.5" y2="4.5" stroke="#595959"/>
<path d="M1.816 17.22C2.024 16.556 2.216 15.924 2.4 15.236H2.432C2.624 15.916 2.808 16.556 3.024 17.22L3.304 18.116H1.528L1.816 17.22ZM0.024 20.5H0.776L1.344 18.708H3.488L4.048 20.5H4.832L2.84 14.628H2.016L0.024 20.5ZM5.65938 20.5H6.33138V17.252C6.33138 16.748 6.27538 16.036 6.24338 15.524H6.27538L6.73938 16.86L7.85138 19.908H8.34738L9.45938 16.86L9.92338 15.524H9.95538C9.91538 16.036 9.85938 16.748 9.85938 17.252V20.5H10.5554V14.628H9.65938L8.53938 17.772C8.40338 18.18 8.27538 18.588 8.13938 18.996H8.09938C7.95538 18.588 7.81938 18.18 7.68338 17.772L6.55538 14.628H5.65938V20.5ZM15.3646 20.604C16.5006 20.604 17.1886 19.54 17.1886 17.628C17.1886 15.724 16.5006 14.692 15.3646 14.692C14.2286 14.692 13.5326 15.716 13.5326 17.628C13.5326 19.54 14.2286 20.604 15.3646 20.604ZM15.3646 20.02C14.6926 20.02 14.2446 19.3 14.2446 17.628C14.2446 15.956 14.6926 15.276 15.3646 15.276C16.0286 15.276 16.4766 15.956 16.4766 17.628C16.4766 19.3 16.0286 20.02 15.3646 20.02ZM19.8021 20.604C20.9381 20.604 21.6261 19.54 21.6261 17.628C21.6261 15.724 20.9381 14.692 19.8021 14.692C18.6661 14.692 17.9701 15.716 17.9701 17.628C17.9701 19.54 18.6661 20.604 19.8021 20.604ZM19.8021 20.02C19.1301 20.02 18.6821 19.3 18.6821 17.628C18.6821 15.956 19.1301 15.276 19.8021 15.276C20.4661 15.276 20.9141 15.956 20.9141 17.628C20.9141 19.3 20.4661 20.02 19.8021 20.02ZM23.1276 17.38C23.4156 17.38 23.6556 17.148 23.6556 16.828C23.6556 16.492 23.4156 16.26 23.1276 16.26C22.8396 16.26 22.5996 16.492 22.5996 16.828C22.5996 17.148 22.8396 17.38 23.1276 17.38ZM23.1276 20.604C23.4156 20.604 23.6556 20.38 23.6556 20.052C23.6556 19.716 23.4156 19.484 23.1276 19.484C22.8396 19.484 22.5996 19.716 22.5996 20.052C22.5996 20.38 22.8396 20.604 23.1276 20.604ZM26.4662 20.604C27.6022 20.604 28.2902 19.54 28.2902 17.628C28.2902 15.724 27.6022 14.692 26.4662 14.692C25.3302 14.692 24.6342 15.716 24.6342 17.628C24.6342 19.54 25.3302 20.604 26.4662 20.604ZM26.4662 20.02C25.7942 20.02 25.3462 19.3 25.3462 17.628C25.3462 15.956 25.7942 15.276 26.4662 15.276C27.1302 15.276 27.5782 15.956 27.5782 17.628C27.5782 19.3 27.1302 20.02 26.4662 20.02ZM30.9037 20.604C32.0397 20.604 32.7277 19.54 32.7277 17.628C32.7277 15.724 32.0397 14.692 30.9037 14.692C29.7677 14.692 29.0717 15.716 29.0717 17.628C29.0717 19.54 29.7677 20.604 30.9037 20.604ZM30.9037 20.02C30.2317 20.02 29.7837 19.3 29.7837 17.628C29.7837 15.956 30.2317 15.276 30.9037 15.276C31.5677 15.276 32.0157 15.956 32.0157 17.628C32.0157 19.3 31.5677 20.02 30.9037 20.02Z" fill="#595959"/>
<path d="M56.816 17.22C57.024 16.556 57.216 15.924 57.4 15.236H57.432C57.624 15.916 57.808 16.556 58.024 17.22L58.304 18.116H56.528L56.816 17.22ZM55.024 20.5H55.776L56.344 18.708H58.488L59.048 20.5H59.832L57.84 14.628H57.016L55.024 20.5ZM60.6594 20.5H61.3314V17.252C61.3314 16.748 61.2754 16.036 61.2434 15.524H61.2754L61.7394 16.86L62.8514 19.908H63.3474L64.4594 16.86L64.9234 15.524H64.9554C64.9154 16.036 64.8594 16.748 64.8594 17.252V20.5H65.5554V14.628H64.6594L63.5394 17.772C63.4034 18.18 63.2754 18.588 63.1394 18.996H63.0994C62.9554 18.588 62.8194 18.18 62.6834 17.772L61.5554 14.628H60.6594V20.5ZM70.3646 20.604C71.5006 20.604 72.1886 19.54 72.1886 17.628C72.1886 15.724 71.5006 14.692 70.3646 14.692C69.2286 14.692 68.5326 15.716 68.5326 17.628C68.5326 19.54 69.2286 20.604 70.3646 20.604ZM70.3646 20.02C69.6926 20.02 69.2446 19.3 69.2446 17.628C69.2446 15.956 69.6926 15.276 70.3646 15.276C71.0286 15.276 71.4766 15.956 71.4766 17.628C71.4766 19.3 71.0286 20.02 70.3646 20.02ZM74.9141 17.564C75.6181 17.564 75.9701 18.036 75.9701 18.772C75.9701 19.532 75.5381 20.036 74.9701 20.036C74.2501 20.036 73.8101 19.436 73.7141 18.324C74.0981 17.764 74.5461 17.564 74.9141 17.564ZM74.9781 20.604C75.8901 20.604 76.6581 19.868 76.6581 18.772C76.6581 17.612 76.0181 17.02 75.0341 17.02C74.5701 17.02 74.0661 17.292 73.6981 17.732C73.7301 15.916 74.4021 15.3 75.2101 15.3C75.5621 15.3 75.9141 15.468 76.1461 15.748L76.5541 15.292C76.2341 14.948 75.7941 14.692 75.1861 14.692C74.0421 14.692 73.0101 15.572 73.0101 17.868C73.0101 19.692 73.8501 20.604 74.9781 20.604ZM78.1276 17.38C78.4156 17.38 78.6556 17.148 78.6556 16.828C78.6556 16.492 78.4156 16.26 78.1276 16.26C77.8396 16.26 77.5996 16.492 77.5996 16.828C77.5996 17.148 77.8396 17.38 78.1276 17.38ZM78.1276 20.604C78.4156 20.604 78.6556 20.38 78.6556 20.052C78.6556 19.716 78.4156 19.484 78.1276 19.484C77.8396 19.484 77.5996 19.716 77.5996 20.052C77.5996 20.38 77.8396 20.604 78.1276 20.604ZM81.4662 20.604C82.6022 20.604 83.2902 19.54 83.2902 17.628C83.2902 15.724 82.6022 14.692 81.4662 14.692C80.3302 14.692 79.6342 15.716 79.6342 17.628C79.6342 19.54 80.3302 20.604 81.4662 20.604ZM81.4662 20.02C80.7942 20.02 80.3462 19.3 80.3462 17.628C80.3462 15.956 80.7942 15.276 81.4662 15.276C82.1302 15.276 82.5782 15.956 82.5782 17.628C82.5782 19.3 82.1302 20.02 81.4662 20.02ZM85.9037 20.604C87.0397 20.604 87.7277 19.54 87.7277 17.628C87.7277 15.724 87.0397 14.692 85.9037 14.692C84.7677 14.692 84.0717 15.716 84.0717 17.628C84.0717 19.54 84.7677 20.604 85.9037 20.604ZM85.9037 20.02C85.2317 20.02 84.7837 19.3 84.7837 17.628C84.7837 15.956 85.2317 15.276 85.9037 15.276C86.5677 15.276 87.0157 15.956 87.0157 17.628C87.0157 19.3 86.5677 20.02 85.9037 20.02Z" fill="#595959"/>
<path d="M105.8 20.5H106.544V18.172H107.512C108.8 18.172 109.672 17.596 109.672 16.356C109.672 15.076 108.792 14.628 107.48 14.628H105.8V20.5ZM106.544 17.572V15.236H107.384C108.416 15.236 108.936 15.508 108.936 16.356C108.936 17.196 108.448 17.572 107.416 17.572H106.544ZM110.855 20.5H111.527V17.252C111.527 16.748 111.471 16.036 111.439 15.524H111.471L111.935 16.86L113.047 19.908H113.543L114.655 16.86L115.119 15.524H115.151C115.111 16.036 115.055 16.748 115.055 17.252V20.5H115.751V14.628H114.855L113.735 17.772C113.599 18.18 113.471 18.588 113.335 18.996H113.295C113.151 18.588 113.015 18.18 112.879 17.772L111.751 14.628H110.855V20.5ZM119.04 20.5H122.256V19.892H121.08V14.796H120.52C120.2 14.988 119.824 15.124 119.304 15.212V15.684H120.344V19.892H119.04V20.5ZM123.125 20.5H126.813V19.868H125.157C124.853 19.868 124.501 19.9 124.197 19.924C125.549 18.5 126.525 17.436 126.525 16.364C126.525 15.356 125.869 14.692 124.821 14.692C124.077 14.692 123.573 15.036 123.093 15.556L123.517 15.964C123.837 15.588 124.253 15.284 124.733 15.284C125.461 15.284 125.813 15.748 125.813 16.396C125.813 17.332 124.845 18.356 123.125 20.068V20.5ZM128.323 17.38C128.611 17.38 128.851 17.148 128.851 16.828C128.851 16.492 128.611 16.26 128.323 16.26C128.035 16.26 127.795 16.492 127.795 16.828C127.795 17.148 128.035 17.38 128.323 17.38ZM128.323 20.604C128.611 20.604 128.851 20.38 128.851 20.052C128.851 19.716 128.611 19.484 128.323 19.484C128.035 19.484 127.795 19.716 127.795 20.052C127.795 20.38 128.035 20.604 128.323 20.604ZM131.662 20.604C132.798 20.604 133.486 19.54 133.486 17.628C133.486 15.724 132.798 14.692 131.662 14.692C130.526 14.692 129.83 15.716 129.83 17.628C129.83 19.54 130.526 20.604 131.662 20.604ZM131.662 20.02C130.99 20.02 130.542 19.3 130.542 17.628C130.542 15.956 130.99 15.276 131.662 15.276C132.326 15.276 132.774 15.956 132.774 17.628C132.774 19.3 132.326 20.02 131.662 20.02ZM136.099 20.604C137.235 20.604 137.923 19.54 137.923 17.628C137.923 15.724 137.235 14.692 136.099 14.692C134.963 14.692 134.267 15.716 134.267 17.628C134.267 19.54 134.963 20.604 136.099 20.604ZM136.099 20.02C135.427 20.02 134.979 19.3 134.979 17.628C134.979 15.956 135.427 15.276 136.099 15.276C136.763 15.276 137.211 15.956 137.211 17.628C137.211 19.3 136.763 20.02 136.099 20.02Z" fill="#595959"/>
<path d="M155.8 20.5H156.544V18.172H157.512C158.8 18.172 159.672 17.596 159.672 16.356C159.672 15.076 158.792 14.628 157.48 14.628H155.8V20.5ZM156.544 17.572V15.236H157.384C158.416 15.236 158.936 15.508 158.936 16.356C158.936 17.196 158.448 17.572 157.416 17.572H156.544ZM160.855 20.5H161.527V17.252C161.527 16.748 161.471 16.036 161.439 15.524H161.471L161.935 16.86L163.047 19.908H163.543L164.655 16.86L165.119 15.524H165.151C165.111 16.036 165.055 16.748 165.055 17.252V20.5H165.751V14.628H164.855L163.735 17.772C163.599 18.18 163.471 18.588 163.335 18.996H163.295C163.151 18.588 163.015 18.18 162.879 17.772L161.751 14.628H160.855V20.5ZM169.04 20.5H172.256V19.892H171.08V14.796H170.52C170.2 14.988 169.824 15.124 169.304 15.212V15.684H170.344V19.892H169.04V20.5ZM175.005 20.604C176.109 20.604 176.845 19.94 176.845 19.084C176.845 18.324 176.357 17.924 175.853 17.62V17.58C176.197 17.316 176.637 16.804 176.637 16.204C176.637 15.316 176.029 14.692 175.029 14.692C174.117 14.692 173.421 15.276 173.421 16.148C173.421 16.756 173.789 17.18 174.213 17.468V17.5C173.677 17.788 173.133 18.3 173.133 19.044C173.133 19.948 173.925 20.604 175.005 20.604ZM175.405 17.396C174.717 17.124 174.085 16.836 174.085 16.148C174.085 15.596 174.477 15.236 175.021 15.236C175.653 15.236 176.013 15.684 176.013 16.244C176.013 16.668 175.797 17.044 175.405 17.396ZM175.021 20.06C174.317 20.06 173.797 19.604 173.797 18.98C173.797 18.452 174.133 18.028 174.597 17.732C175.429 18.06 176.149 18.324 176.149 19.068C176.149 19.652 175.693 20.06 175.021 20.06ZM178.323 17.38C178.611 17.38 178.851 17.148 178.851 16.828C178.851 16.492 178.611 16.26 178.323 16.26C178.035 16.26 177.795 16.492 177.795 16.828C177.795 17.148 178.035 17.38 178.323 17.38ZM178.323 20.604C178.611 20.604 178.851 20.38 178.851 20.052C178.851 19.716 178.611 19.484 178.323 19.484C178.035 19.484 177.795 19.716 177.795 20.052C177.795 20.38 178.035 20.604 178.323 20.604ZM181.662 20.604C182.798 20.604 183.486 19.54 183.486 17.628C183.486 15.724 182.798 14.692 181.662 14.692C180.526 14.692 179.83 15.716 179.83 17.628C179.83 19.54 180.526 20.604 181.662 20.604ZM181.662 20.02C180.99 20.02 180.542 19.3 180.542 17.628C180.542 15.956 180.99 15.276 181.662 15.276C182.326 15.276 182.774 15.956 182.774 17.628C182.774 19.3 182.326 20.02 181.662 20.02ZM186.099 20.604C187.235 20.604 187.923 19.54 187.923 17.628C187.923 15.724 187.235 14.692 186.099 14.692C184.963 14.692 184.267 15.716 184.267 17.628C184.267 19.54 184.963 20.604 186.099 20.604ZM186.099 20.02C185.427 20.02 184.979 19.3 184.979 17.628C184.979 15.956 185.427 15.276 186.099 15.276C186.763 15.276 187.211 15.956 187.211 17.628C187.211 19.3 186.763 20.02 186.099 20.02Z" fill="#595959"/>
<path d="M201.8 20.5H202.544V18.172H203.512C204.8 18.172 205.672 17.596 205.672 16.356C205.672 15.076 204.792 14.628 203.48 14.628H201.8V20.5ZM202.544 17.572V15.236H203.384C204.416 15.236 204.936 15.508 204.936 16.356C204.936 17.196 204.448 17.572 203.416 17.572H202.544ZM206.855 20.5H207.527V17.252C207.527 16.748 207.471 16.036 207.439 15.524H207.471L207.935 16.86L209.047 19.908H209.543L210.655 16.86L211.119 15.524H211.151C211.111 16.036 211.055 16.748 211.055 17.252V20.5H211.751V14.628H210.855L209.735 17.772C209.599 18.18 209.471 18.588 209.335 18.996H209.295C209.151 18.588 209.015 18.18 208.879 17.772L207.751 14.628H206.855V20.5ZM214.688 20.5H218.376V19.868H216.72C216.416 19.868 216.064 19.9 215.76 19.924C217.112 18.5 218.088 17.436 218.088 16.364C218.088 15.356 217.432 14.692 216.384 14.692C215.64 14.692 215.136 15.036 214.656 15.556L215.08 15.964C215.4 15.588 215.816 15.284 216.296 15.284C217.024 15.284 217.376 15.748 217.376 16.396C217.376 17.332 216.408 18.356 214.688 20.068V20.5ZM219.693 18.34L221.029 16.38C221.197 16.1 221.357 15.852 221.501 15.58H221.533C221.517 15.884 221.493 16.372 221.493 16.668V18.34H219.693ZM221.493 20.5H222.181V18.924H222.957V18.34H222.181V14.796H221.373L218.933 18.444V18.924H221.493V20.5ZM224.323 17.38C224.611 17.38 224.851 17.148 224.851 16.828C224.851 16.492 224.611 16.26 224.323 16.26C224.035 16.26 223.795 16.492 223.795 16.828C223.795 17.148 224.035 17.38 224.323 17.38ZM224.323 20.604C224.611 20.604 224.851 20.38 224.851 20.052C224.851 19.716 224.611 19.484 224.323 19.484C224.035 19.484 223.795 19.716 223.795 20.052C223.795 20.38 224.035 20.604 224.323 20.604ZM227.662 20.604C228.798 20.604 229.486 19.54 229.486 17.628C229.486 15.724 228.798 14.692 227.662 14.692C226.526 14.692 225.83 15.716 225.83 17.628C225.83 19.54 226.526 20.604 227.662 20.604ZM227.662 20.02C226.99 20.02 226.542 19.3 226.542 17.628C226.542 15.956 226.99 15.276 227.662 15.276C228.326 15.276 228.774 15.956 228.774 17.628C228.774 19.3 228.326 20.02 227.662 20.02ZM232.099 20.604C233.235 20.604 233.923 19.54 233.923 17.628C233.923 15.724 233.235 14.692 232.099 14.692C230.963 14.692 230.267 15.716 230.267 17.628C230.267 19.54 230.963 20.604 232.099 20.604ZM232.099 20.02C231.427 20.02 230.979 19.3 230.979 17.628C230.979 15.956 231.427 15.276 232.099 15.276C232.763 15.276 233.211 15.956 233.211 17.628C233.211 19.3 232.763 20.02 232.099 20.02Z" fill="#595959"/>
</svg>
