<svg width="67" height="20" viewBox="0 0 67 20" fill="none" xmlns="http://www.w3.org/2000/svg">
<rect width="67" height="20" rx="3" fill="#ACACAC"/>
<path d="M13.552 6.36C13.132 5.988 12.292 5.424 11.716 5.028L10.9 6.012C11.464 6.456 12.292 7.092 12.676 7.476L13.552 6.36ZM13 9.408C12.532 9.072 11.572 8.568 10.972 8.232L10.252 9.324C10.9 9.708 11.836 10.272 12.28 10.608L13 9.408ZM11.692 15.84C12.304 14.688 12.976 13.296 13.516 12.024L12.496 11.232C11.896 12.612 11.104 14.136 10.552 15.06L11.692 15.84ZM15.64 13.188C15.664 12.972 15.676 12.768 15.688 12.564H19.228V13.188H15.64ZM19.228 11.028V11.652H15.688V11.028H19.228ZM20.704 10.032H14.272V12.168C14.272 13.092 14.212 14.232 13.528 15.048C13.816 15.228 14.404 15.78 14.62 16.068C15.076 15.54 15.352 14.844 15.508 14.136H19.228V14.628C19.228 14.772 19.168 14.808 19 14.82C18.832 14.832 18.244 14.832 17.764 14.808C17.932 15.144 18.124 15.648 18.184 16.02C19.024 16.02 19.66 16.008 20.104 15.816C20.548 15.612 20.704 15.3 20.704 14.64V10.032ZM18.148 8.52V7.956H21.052V7.008H18.148V6.48H21.352V5.46H18.148V4.836H16.72V5.46H13.588V6.48H16.72V7.008H13.924V7.956H16.72V8.52H13.24V9.54H21.616V8.52H18.148ZM25.624 5.256L25.42 5.304H22.804V16.008H24.052V6.576H25C24.82 7.368 24.592 8.352 24.376 9.084C25 9.912 25.12 10.68 25.132 11.256C25.132 11.604 25.072 11.868 24.928 11.976C24.856 12.048 24.736 12.072 24.628 12.072C24.496 12.084 24.328 12.084 24.124 12.06C24.328 12.42 24.424 12.936 24.424 13.296C24.688 13.296 24.976 13.296 25.192 13.26C25.444 13.224 25.672 13.14 25.852 12.996C26.224 12.708 26.38 12.204 26.38 11.412C26.368 10.716 26.224 9.876 25.552 8.94C25.876 8.004 26.248 6.792 26.548 5.772L25.624 5.256ZM27.436 12.36C27.088 13.164 26.5 14.016 25.888 14.58C26.188 14.76 26.704 15.144 26.944 15.36C27.544 14.7 28.252 13.668 28.684 12.708L27.436 12.36ZM28.024 8.472C28.708 7.944 29.38 7.32 29.944 6.624C30.652 7.428 31.312 8.004 31.912 8.472H28.024ZM33.472 11.976V10.68H30.772V9.696H32.308V8.76C32.5 8.892 32.692 9.012 32.872 9.132C33.052 8.736 33.472 8.256 33.808 7.968C32.884 7.524 31.792 6.852 30.652 5.628C30.76 5.472 30.856 5.316 30.94 5.148L29.752 4.692C28.96 6.12 27.496 7.404 26.044 8.124C26.38 8.4 26.764 8.844 26.968 9.18C27.136 9.084 27.292 8.976 27.46 8.868V9.696H29.392V10.68H26.536V11.976H29.392V14.532C29.392 14.688 29.344 14.736 29.176 14.736C29.008 14.748 28.48 14.748 27.952 14.724C28.156 15.084 28.36 15.636 28.42 16.02C29.224 16.02 29.8 15.984 30.22 15.78C30.652 15.552 30.772 15.204 30.772 14.556V11.976H33.472ZM31.108 12.816C31.684 13.548 32.356 14.58 32.644 15.252L33.76 14.616C33.46 13.98 32.788 13.008 32.164 12.288L31.108 12.816ZM37.084 12.24V9.288L39.28 8.856L39.04 7.572L37.084 7.944V5.316H35.704V8.208L34.276 8.484L34.504 9.792L35.704 9.564V12.216C35.704 12.744 35.344 13.08 35.08 13.236C35.296 13.536 35.608 14.148 35.704 14.496C36.004 14.232 36.472 13.956 39.28 12.672C39.196 12.372 39.088 11.808 39.064 11.412L37.084 12.24ZM38.944 5.724V7.092H40.612C40.564 10.476 40.396 13.332 37.708 14.94C38.08 15.204 38.5 15.708 38.716 16.092C41.668 14.184 41.968 10.884 42.052 7.092H43.888C43.78 11.928 43.636 13.86 43.288 14.256C43.156 14.448 43.036 14.496 42.832 14.496C42.544 14.496 41.98 14.496 41.344 14.448C41.608 14.856 41.788 15.492 41.812 15.9C42.46 15.924 43.096 15.936 43.54 15.864C43.996 15.768 44.296 15.624 44.632 15.144C45.088 14.484 45.22 12.408 45.352 6.444C45.364 6.264 45.376 5.724 45.376 5.724H38.944ZM55.42 14.124H54.124V9.264H55.42V14.124ZM48.496 9.264H49.732V14.124H48.496V9.264ZM52.84 10.092H51.004V9.264H52.84V10.092ZM51.004 13.236H52.84V14.124H51.004V13.236ZM52.84 12.12H51.004V11.208H52.84V12.12ZM57.424 6.864V5.52H46.624V6.864H51.004C50.956 7.224 50.884 7.596 50.812 7.944H47.116V16.044H48.496V15.432H55.42V16.044H56.872V7.944H52.312C52.408 7.596 52.528 7.236 52.636 6.864H57.424Z" fill="white"/>
</svg>
