<svg width="77" height="17" viewBox="0 0 77 17" fill="none" xmlns="http://www.w3.org/2000/svg">
<path d="M24.616 11.936V7.892L27.172 7.316L27.064 6.8L24.616 7.352V4.472H24.052V7.484L22.408 7.844L22.516 8.372L24.052 8.024V11.672C24.052 12.14 23.776 12.356 23.596 12.452C23.704 12.584 23.848 12.836 23.896 12.98C24.112 12.788 24.436 12.632 27.304 11.336C27.268 11.216 27.208 10.988 27.184 10.844L24.616 11.936ZM33.184 5.156H27.112V5.708H29.188C29.116 9.188 28.9 12.728 25.756 14.396C25.912 14.48 26.104 14.684 26.212 14.828C29.416 13.028 29.668 9.392 29.752 5.708H32.596C32.428 11.456 32.224 13.52 31.828 13.976C31.708 14.144 31.576 14.168 31.348 14.168C31.096 14.168 30.412 14.168 29.668 14.108C29.776 14.264 29.836 14.516 29.848 14.696C30.484 14.732 31.144 14.744 31.528 14.732C31.888 14.696 32.14 14.6 32.356 14.312C32.836 13.724 32.992 11.72 33.184 5.516V5.156ZM44.068 13.688H41.968V7.736H44.068V13.688ZM35.92 7.736H37.936V13.688H35.92V7.736ZM41.428 9.356H38.476V7.736H41.428V9.356ZM38.476 11.996H41.428V13.688H38.476V11.996ZM41.428 11.492H38.476V9.86H41.428V11.492ZM45.256 5.432V4.868H34.78V5.432H39.556C39.436 5.996 39.268 6.668 39.1 7.184H35.344V14.888H35.92V14.228H44.068V14.888H44.656V7.184H39.688C39.868 6.668 40.048 6.008 40.228 5.432H45.256ZM53.884 11.6V12.98H49.984V11.6H53.884ZM54.412 11.132H49.432V14.12H49.984V13.46H54.412V11.132ZM56.74 9.752H47.26V14.876H47.824V10.268H56.176V14.156C56.176 14.276 56.116 14.324 55.984 14.324C55.84 14.336 55.336 14.336 54.796 14.324C54.88 14.456 54.964 14.636 55 14.78C55.732 14.78 56.164 14.78 56.428 14.696C56.668 14.6 56.74 14.468 56.74 14.144V9.752ZM54.772 8.492H49.288V7.148H54.772V8.492ZM48.712 6.668V8.972H55.36V6.668H48.712ZM52.42 5.336C52.3 4.952 52.132 4.424 51.964 3.992L51.46 4.1C51.604 4.472 51.748 4.952 51.856 5.336H46.768V5.864H57.196V5.336H52.42ZM60.196 5.84H69.304V5.3H65.02C64.864 4.916 64.576 4.376 64.312 3.956L63.76 4.112C63.976 4.46 64.204 4.928 64.36 5.3H59.632V8.588C59.632 10.352 59.536 12.824 58.54 14.6C58.684 14.66 58.936 14.792 59.044 14.9C60.052 13.052 60.196 10.412 60.196 8.588V5.84ZM66.544 7.88V9.428H63.184V7.88H66.544ZM67.108 9.92V7.88H69.172V7.376H67.108V6.188H66.544V7.376H63.184V6.188H62.632V7.376H60.52V7.88H62.632V9.92H67.108ZM67.348 11.372C66.784 12.152 65.92 12.74 64.888 13.196C63.928 12.728 63.136 12.116 62.608 11.372H67.348ZM67.84 10.832L67.72 10.868H60.736V11.372H62.5L62.092 11.54C62.62 12.296 63.376 12.932 64.276 13.436C63.016 13.904 61.588 14.168 60.172 14.312C60.268 14.456 60.388 14.672 60.436 14.816C61.984 14.624 63.532 14.312 64.876 13.748C66.124 14.312 67.576 14.684 69.124 14.888C69.184 14.732 69.328 14.516 69.46 14.384C68.008 14.228 66.664 13.928 65.512 13.46C66.664 12.896 67.612 12.104 68.2 11.06L67.84 10.832Z" fill="black"/>
<rect x="3.39062" y="4.45215" width="9.25049" height="1.35631" transform="rotate(90 3.39062 4.45215)" fill="#535353"/>
<path d="M2.71261 3.43701L5.06181 6.03871L0.363421 6.03871L2.71261 3.43701Z" fill="#535353"/>
<path d="M2.71268 15.0002L0.363486 12.3985L5.06187 12.3985L2.71268 15.0002Z" fill="#535353"/>
<path d="M6.81939 12.5L9.9051 6.5H17.1806L14.0949 12.5H6.81939Z" fill="#DFE8EC" stroke="#474747"/>
</svg>
