<svg width="79" height="18" viewBox="0 0 79 18" fill="none" xmlns="http://www.w3.org/2000/svg">
<path d="M28.084 11.24V8.288L30.28 7.856L30.04 6.572L28.084 6.944V4.316H26.704V7.208L25.276 7.484L25.504 8.792L26.704 8.564V11.216C26.704 11.744 26.344 12.08 26.08 12.236C26.296 12.536 26.608 13.148 26.704 13.496C27.004 13.232 27.472 12.956 30.28 11.672C30.196 11.372 30.088 10.808 30.064 10.412L28.084 11.24ZM29.944 4.724V6.092H31.612C31.564 9.476 31.396 12.332 28.708 13.94C29.08 14.204 29.5 14.708 29.716 15.092C32.668 13.184 32.968 9.884 33.052 6.092H34.888C34.78 10.928 34.636 12.86 34.288 13.256C34.156 13.448 34.036 13.496 33.832 13.496C33.544 13.496 32.98 13.496 32.344 13.448C32.608 13.856 32.788 14.492 32.812 14.9C33.46 14.924 34.096 14.936 34.54 14.864C34.996 14.768 35.296 14.624 35.632 14.144C36.088 13.484 36.22 11.408 36.352 5.444C36.364 5.264 36.376 4.724 36.376 4.724H29.944ZM46.42 13.124H45.124V8.264H46.42V13.124ZM39.496 8.264H40.732V13.124H39.496V8.264ZM43.84 9.092H42.004V8.264H43.84V9.092ZM42.004 12.236H43.84V13.124H42.004V12.236ZM43.84 11.12H42.004V10.208H43.84V11.12ZM48.424 5.864V4.52H37.624V5.864H42.004C41.956 6.224 41.884 6.596 41.812 6.944H38.116V15.044H39.496V14.432H46.42V15.044H47.872V6.944H43.312C43.408 6.596 43.528 6.236 43.636 5.864H48.424ZM55.78 12.776V6.572H59.812V5.084H50.224V6.572H54.148V12.776H49.576V14.216H60.484V12.776H55.78ZM64.828 10.496H69.208V11.192H64.828V10.496ZM69.208 5.516V6.176H64.828V5.516H69.208ZM69.208 8.828V9.488H64.828V8.828H69.208ZM69.208 7.82H64.828V7.184H69.208V7.82ZM72.472 12.476V11.192H70.66V4.388H63.448V11.192H61.576V12.476H64.528C63.736 13.04 62.464 13.664 61.384 14.024C61.708 14.3 62.176 14.756 62.428 15.056C63.628 14.624 65.116 13.88 66.052 13.196L65.044 12.476H68.632L67.972 13.22C69.268 13.772 70.672 14.54 71.464 15.056L72.64 14.012C71.884 13.568 70.66 12.992 69.484 12.476H72.472Z" fill="#595959"/>
<path d="M11.4033 7.22363H2.64307V11.9555H11.4033V7.22363Z" fill="#898989"/>
<path d="M8.76021 14.0901H0L2.64301 11.9556H11.4002L8.76021 14.0901Z" fill="#C7C7C7"/>
<path d="M11.4392 7.22368H2.64307L6.63151 4H15.0001L11.4392 7.22368Z" fill="#D9D9D9"/>
<path d="M8.67052 14.0903H0V18.0002H8.67052V14.0903Z" fill="#898989"/>
<path d="M11.4001 15.3404L8.67041 18V14.0901L11.4001 11.9556V15.3404Z" fill="#353535"/>
<path d="M15 12.1237L11.3853 15.4049V7.28355L15 4V12.1237Z" fill="#353535"/>
</svg>
