<svg width="76" height="17" viewBox="0 0 76 17" fill="none" xmlns="http://www.w3.org/2000/svg">
<path d="M23.616 11.936V7.892L26.172 7.316L26.064 6.8L23.616 7.352V4.472H23.052V7.484L21.408 7.844L21.516 8.372L23.052 8.024V11.672C23.052 12.14 22.776 12.356 22.596 12.452C22.704 12.584 22.848 12.836 22.896 12.98C23.112 12.788 23.436 12.632 26.304 11.336C26.268 11.216 26.208 10.988 26.184 10.844L23.616 11.936ZM32.184 5.156H26.112V5.708H28.188C28.116 9.188 27.9 12.728 24.756 14.396C24.912 14.48 25.104 14.684 25.212 14.828C28.416 13.028 28.668 9.392 28.752 5.708H31.596C31.428 11.456 31.224 13.52 30.828 13.976C30.708 14.144 30.576 14.168 30.348 14.168C30.096 14.168 29.412 14.168 28.668 14.108C28.776 14.264 28.836 14.516 28.848 14.696C29.484 14.732 30.144 14.744 30.528 14.732C30.888 14.696 31.14 14.6 31.356 14.312C31.836 13.724 31.992 11.72 32.184 5.516V5.156ZM43.068 13.688H40.968V7.736H43.068V13.688ZM34.92 7.736H36.936V13.688H34.92V7.736ZM40.428 9.356H37.476V7.736H40.428V9.356ZM37.476 11.996H40.428V13.688H37.476V11.996ZM40.428 11.492H37.476V9.86H40.428V11.492ZM44.256 5.432V4.868H33.78V5.432H38.556C38.436 5.996 38.268 6.668 38.1 7.184H34.344V14.888H34.92V14.228H43.068V14.888H43.656V7.184H38.688C38.868 6.668 39.048 6.008 39.228 5.432H44.256ZM56.4 5.432V4.94H52.572C52.716 4.652 52.836 4.364 52.932 4.052L52.392 3.944C52.056 4.952 51.444 5.876 50.712 6.512C50.856 6.608 51.096 6.776 51.18 6.86C51.588 6.476 51.972 5.984 52.296 5.432H56.4ZM53.28 5.852C53.688 6.2 54.192 6.692 54.456 7.004L54.84 6.656C54.6 6.344 54.072 5.876 53.664 5.552L53.28 5.852ZM50.964 5.432V4.928H47.604C47.76 4.64 47.892 4.364 48.012 4.064L47.484 3.932C47.076 4.964 46.404 5.96 45.636 6.632C45.78 6.728 45.996 6.908 46.08 7.004C46.512 6.572 46.932 6.032 47.304 5.432H50.964ZM48.06 5.756C48.492 6.128 49.02 6.644 49.296 6.98L49.692 6.632C49.416 6.332 48.864 5.828 48.444 5.48L48.06 5.756ZM46.92 11.468V10.544H48.432V11.468H46.92ZM46.92 9.188H48.432V10.1H46.92V9.188ZM50.424 9.188V10.1H48.948V9.188H50.424ZM50.424 11.468H48.948V10.544H50.424V11.468ZM48.948 11.924H50.94V8.744H48.948V8.048H51.36V7.556H48.948V6.8H48.432V7.556H45.936V8.048H48.432V8.744H46.404V11.924H48.432V12.68H45.624V13.172H48.432V14.864H48.948V13.172H51.444V12.68H48.948V11.924ZM53.136 14.024C52.56 14.024 52.452 13.928 52.452 13.508V7.904H54.924V11.024C54.924 11.168 54.888 11.216 54.696 11.228C54.516 11.24 53.952 11.24 53.196 11.228C53.28 11.396 53.376 11.6 53.4 11.768C54.264 11.768 54.804 11.768 55.116 11.66C55.392 11.564 55.476 11.384 55.476 11.024V7.376H51.9V13.496C51.9 14.36 52.176 14.564 53.112 14.564H55.26C56.16 14.564 56.34 14.12 56.412 12.584C56.256 12.548 56.04 12.452 55.884 12.344C55.836 13.748 55.752 14.024 55.236 14.024H53.136ZM63.336 12.164H60.624C60.708 11.852 60.828 11.492 60.924 11.156H63.336V12.164ZM60.9 8.756H65.088V9.716H60.9V8.756ZM63.888 10.124H65.616V8.348H60.384V10.124H63.336V10.736H59.7V11.156H60.444C60.3 11.648 60.132 12.2 59.976 12.596H63.336V13.604H63.888V12.596H66.348V12.164H63.888V11.156H66.504V10.736H63.888V10.124ZM64.812 6.476V7.388H62.148C62.232 7.112 62.34 6.812 62.436 6.476H64.812ZM65.34 7.388V6.068H62.556C62.628 5.84 62.676 5.624 62.736 5.408L62.208 5.336C62.148 5.564 62.088 5.816 62.016 6.068H60.228V6.476H61.896C61.8 6.8 61.692 7.112 61.596 7.388H59.448V7.808H66.624V7.388H65.34ZM58.632 13.796V5.108H67.368V13.796H58.632ZM58.08 4.568V14.888H58.632V14.336H67.368V14.888H67.932V4.568H58.08Z" fill="black"/>
<rect x="0.5" y="4.5" width="12" height="12" fill="#DFE8EC" stroke="#474747"/>
<path d="M2.68448 6.68442L6.0534 6.68448L2.68449 10.0534L2.68448 6.68442Z" fill="#535353"/>
<path d="M10.2445 14.2445L6.73349 14.2445L10.2445 10.7335L10.2445 14.2445Z" fill="#535353"/>
<path d="M2.94189 7.75244L3.75273 6.9416L9.44442 12.6333L8.63359 13.4441L2.94189 7.75244Z" fill="#535353"/>
</svg>
