<svg width="81" height="58" viewBox="0 0 81 58" fill="none" xmlns="http://www.w3.org/2000/svg">
<rect x="0.5" y="0.5" width="80" height="57" rx="2.5" fill="#F6F8F9" stroke="#1F85E3"/>
<path d="M29.8 44.044V46.852H26.2V44.044H29.8ZM30.34 47.392V43.516H25.66V48.256H26.2V47.392H30.34ZM32.788 41.104H27.196C27.496 40.504 27.82 39.748 28.108 39.1L27.424 38.956C27.232 39.58 26.884 40.468 26.572 41.104H23.284V49.876H23.86V41.668H32.212V48.964C32.212 49.192 32.152 49.252 31.912 49.264C31.66 49.276 30.82 49.288 29.86 49.252C29.956 49.432 30.052 49.708 30.076 49.876C31.18 49.876 31.912 49.864 32.296 49.768C32.668 49.672 32.788 49.444 32.788 48.964V41.104ZM43.72 45.04V48.64H37.888V45.04H43.72ZM45.208 41.908V41.344H39.1C39.352 40.612 39.568 39.868 39.748 39.124L39.148 39.004C38.968 39.796 38.764 40.576 38.488 41.344H34.852V41.908H38.284C37.492 43.936 36.292 45.784 34.468 47.032C34.6 47.14 34.768 47.332 34.852 47.476C35.836 46.78 36.64 45.928 37.312 44.968V49.9H37.888V49.204H43.72V49.84H44.308V44.476H37.636C38.14 43.672 38.548 42.808 38.896 41.908H45.208ZM57.448 41.188V40.636H52.744C52.936 40.156 53.104 39.64 53.248 39.124L52.684 39.004C52.336 40.372 51.736 41.692 50.944 42.556C51.076 42.64 51.316 42.832 51.412 42.928C51.808 42.448 52.18 41.86 52.492 41.188H57.448ZM49.6 40.756C49.408 40.324 49 39.64 48.628 39.112L48.124 39.304C48.472 39.82 48.868 40.54 49.072 40.984L49.6 40.756ZM48.472 43.36C48.496 42.796 48.496 42.208 48.508 41.584H51.292V41.044H46.588V41.584H47.956C47.932 45.304 47.824 47.992 46.384 49.504C46.528 49.6 46.732 49.756 46.828 49.888C48.028 48.58 48.352 46.576 48.46 43.9H50.14C50.044 47.524 49.936 48.796 49.72 49.084C49.636 49.204 49.54 49.228 49.36 49.216C49.18 49.216 48.7 49.216 48.196 49.18C48.268 49.336 48.328 49.552 48.34 49.72C48.808 49.756 49.288 49.756 49.564 49.744C49.852 49.72 50.032 49.648 50.2 49.432C50.5 49.024 50.596 47.74 50.692 43.672C50.704 43.576 50.704 43.36 50.704 43.36H48.472ZM54.532 46.108H56.98V45.58H54.532V43.216H56.548C56.32 43.72 56.056 44.236 55.852 44.608L56.308 44.788C56.632 44.296 56.98 43.504 57.304 42.796L56.932 42.652L56.824 42.688H51.82V43.216H53.992V48.724C53.344 48.352 52.852 47.644 52.54 46.36C52.612 45.76 52.66 45.124 52.696 44.488H52.156C52.084 46.456 51.832 48.436 50.752 49.468C50.896 49.54 51.076 49.72 51.16 49.84C51.784 49.228 52.144 48.364 52.372 47.356C53.032 49.216 54.148 49.624 55.696 49.624H57.328C57.352 49.468 57.436 49.216 57.532 49.072C57.22 49.084 55.924 49.084 55.72 49.084C55.3 49.084 54.892 49.048 54.532 48.94V46.108ZM64.372 43.864V42.952H66.112V43.864H64.372ZM64.372 41.644H66.112V42.532H64.372V41.644ZM68.488 41.644V42.532H66.64V41.644H68.488ZM68.488 43.864H66.64V42.952H68.488V43.864ZM63.46 45.748C64.804 45.724 66.772 45.676 68.704 45.64C68.86 45.832 69.004 46 69.1 46.156L69.532 45.856C69.208 45.424 68.56 44.776 67.96 44.32L67.576 44.56C67.804 44.74 68.032 44.956 68.26 45.172L66.64 45.208V44.296H69.004V41.212H66.64V40.42H69.328V39.928H66.64V39.016H66.112V39.928H63.544V40.42H66.112V41.212H63.868V44.296H66.112V45.22C65.08 45.232 64.144 45.244 63.424 45.256L63.46 45.748ZM59.488 44.212H60.82V45.532H59.488V44.212ZM59.488 42.436H60.82V43.744H59.488V42.436ZM62.656 43.744H61.3V42.436H62.656V43.744ZM62.656 45.532H61.3V44.212H62.656V45.532ZM61.336 46.012H63.136V41.956H61.336V40.936H63.292V40.396H61.336V39.004H60.784V40.396H58.708V40.936H60.784V41.956H58.996V46.012H60.784V47.14H58.552V47.668H60.784V49.9H61.336V47.668H63.46V47.14H61.336V46.012ZM64.192 47.632C64.672 48.04 65.164 48.652 65.392 49.084L65.836 48.784C65.596 48.376 65.092 47.788 64.6 47.38L64.192 47.632ZM67.936 45.844H67.384V46.588H63.388V47.08H67.384V49.204C67.384 49.336 67.348 49.384 67.192 49.396C67.024 49.408 66.508 49.408 65.848 49.384C65.92 49.54 66.016 49.744 66.052 49.888C66.832 49.888 67.312 49.888 67.588 49.792C67.864 49.72 67.936 49.564 67.936 49.216V47.08H69.46V46.588H67.936V45.844Z" fill="black"/>
<path fill-rule="evenodd" clip-rule="evenodd" d="M14.6586 50C17.218 50 19.3174 47.9098 19.3174 45.3615H17.4193C17.4193 46.879 16.1828 48.1675 14.6586 48.1675C13.1344 48.1675 11.8978 46.879 11.8978 45.3615C11.8978 43.8439 13.1344 42.6127 14.6586 42.6127H16.0965V44.376L19.3174 41.6965L16.0965 39.0169V40.7516H14.6586C12.0991 40.7516 9.99976 42.8418 9.99976 45.3901C9.99976 47.9098 12.0991 50 14.6586 50Z" fill="#333333"/>
<path d="M17.3721 26.3827L27.6289 4.2146L20.6807 15.7949L17.3721 26.3827Z" fill="#E3E3E3"/>
<path d="M27.49 3.88379L55.7612 25.9455L38.8752 33.0001L17.0002 25.9455L20.71 15.6842L27.49 3.88379Z" fill="#C4C4C4" fill-opacity="0.25"/>
<path d="M38.8784 33.0001L27.6289 3.88379L56.0835 26.0519L38.8784 33.0001Z" fill="#C4C4C4"/>
<path d="M20.714 15.9854L56.125 26.0379L38.8372 33.0002L17 26.0379L20.714 15.9854Z" fill="#8CDA71" fill-opacity="0.5"/>
<path d="M27.6289 4.54565V30.3533" stroke="#FF9924" stroke-width="0.5"/>
</svg>
