<svg width="67" height="20" viewBox="0 0 67 20" fill="none" xmlns="http://www.w3.org/2000/svg">
<rect width="67" height="20" rx="3" fill="#ACACAC"/>
<path d="M13.552 6.36C13.132 5.988 12.292 5.424 11.716 5.028L10.9 6.012C11.464 6.456 12.292 7.092 12.676 7.476L13.552 6.36ZM13 9.408C12.532 9.072 11.572 8.568 10.972 8.232L10.252 9.324C10.9 9.708 11.836 10.272 12.28 10.608L13 9.408ZM11.692 15.84C12.304 14.688 12.976 13.296 13.516 12.024L12.496 11.232C11.896 12.612 11.104 14.136 10.552 15.06L11.692 15.84ZM15.64 13.188C15.664 12.972 15.676 12.768 15.688 12.564H19.228V13.188H15.64ZM19.228 11.028V11.652H15.688V11.028H19.228ZM20.704 10.032H14.272V12.168C14.272 13.092 14.212 14.232 13.528 15.048C13.816 15.228 14.404 15.78 14.62 16.068C15.076 15.54 15.352 14.844 15.508 14.136H19.228V14.628C19.228 14.772 19.168 14.808 19 14.82C18.832 14.832 18.244 14.832 17.764 14.808C17.932 15.144 18.124 15.648 18.184 16.02C19.024 16.02 19.66 16.008 20.104 15.816C20.548 15.612 20.704 15.3 20.704 14.64V10.032ZM18.148 8.52V7.956H21.052V7.008H18.148V6.48H21.352V5.46H18.148V4.836H16.72V5.46H13.588V6.48H16.72V7.008H13.924V7.956H16.72V8.52H13.24V9.54H21.616V8.52H18.148ZM25.624 5.256L25.42 5.304H22.804V16.008H24.052V6.576H25C24.82 7.368 24.592 8.352 24.376 9.084C25 9.912 25.12 10.68 25.132 11.256C25.132 11.604 25.072 11.868 24.928 11.976C24.856 12.048 24.736 12.072 24.628 12.072C24.496 12.084 24.328 12.084 24.124 12.06C24.328 12.42 24.424 12.936 24.424 13.296C24.688 13.296 24.976 13.296 25.192 13.26C25.444 13.224 25.672 13.14 25.852 12.996C26.224 12.708 26.38 12.204 26.38 11.412C26.368 10.716 26.224 9.876 25.552 8.94C25.876 8.004 26.248 6.792 26.548 5.772L25.624 5.256ZM27.436 12.36C27.088 13.164 26.5 14.016 25.888 14.58C26.188 14.76 26.704 15.144 26.944 15.36C27.544 14.7 28.252 13.668 28.684 12.708L27.436 12.36ZM28.024 8.472C28.708 7.944 29.38 7.32 29.944 6.624C30.652 7.428 31.312 8.004 31.912 8.472H28.024ZM33.472 11.976V10.68H30.772V9.696H32.308V8.76C32.5 8.892 32.692 9.012 32.872 9.132C33.052 8.736 33.472 8.256 33.808 7.968C32.884 7.524 31.792 6.852 30.652 5.628C30.76 5.472 30.856 5.316 30.94 5.148L29.752 4.692C28.96 6.12 27.496 7.404 26.044 8.124C26.38 8.4 26.764 8.844 26.968 9.18C27.136 9.084 27.292 8.976 27.46 8.868V9.696H29.392V10.68H26.536V11.976H29.392V14.532C29.392 14.688 29.344 14.736 29.176 14.736C29.008 14.748 28.48 14.748 27.952 14.724C28.156 15.084 28.36 15.636 28.42 16.02C29.224 16.02 29.8 15.984 30.22 15.78C30.652 15.552 30.772 15.204 30.772 14.556V11.976H33.472ZM31.108 12.816C31.684 13.548 32.356 14.58 32.644 15.252L33.76 14.616C33.46 13.98 32.788 13.008 32.164 12.288L31.108 12.816ZM39.28 11.352C39.052 11.112 38.176 10.26 37.696 9.84C38.248 9.06 38.728 8.208 39.076 7.332L38.32 6.78L38.068 6.84H37.216L37.888 6.384C37.684 5.94 37.228 5.328 36.82 4.872L35.728 5.544C36.04 5.916 36.376 6.42 36.604 6.84H34.564V8.124H37.3C36.58 9.396 35.416 10.572 34.216 11.232C34.384 11.496 34.66 12.288 34.756 12.684C35.224 12.408 35.668 12.036 36.124 11.628V16.032H37.528V11.376C37.864 11.784 38.2 12.228 38.404 12.528L39.28 11.352ZM40.936 10.116H43.588V10.896H40.936V10.116ZM40.936 8.28H43.588V9.048H40.936V8.28ZM40.936 6.444H43.588V7.224H40.936V6.444ZM43.888 14.748C43.72 14.748 43.696 14.712 43.696 14.388V12.036H44.956V5.316H39.64V12.036H40.432C40.3 13.512 39.976 14.46 38.056 15.012C38.296 15.252 38.644 15.732 38.764 16.056C41.068 15.312 41.536 13.992 41.704 12.036H42.376V14.388C42.376 15.576 42.604 15.984 43.66 15.984H44.452C45.268 15.984 45.604 15.552 45.724 13.92C45.364 13.824 44.8 13.608 44.56 13.392C44.524 14.592 44.488 14.748 44.284 14.748H43.888ZM49.684 11.532L48.868 11.94V9.048H49.768V7.68H48.868V4.992H47.536V7.68H46.456V9.048H47.536V12.624C47.092 12.828 46.684 13.02 46.348 13.164L46.888 14.604C47.872 14.076 49.036 13.416 50.092 12.792L49.684 11.532ZM56.032 8.568C55.852 9.372 55.648 10.104 55.372 10.8C55.264 9.888 55.192 8.868 55.144 7.776H57.472V6.48H56.944L57.46 6C57.184 5.652 56.608 5.172 56.14 4.836L55.336 5.532C55.684 5.808 56.08 6.168 56.38 6.48H55.108C55.096 5.928 55.096 5.388 55.108 4.836H53.752C53.752 5.388 53.764 5.928 53.776 6.48H49.948V7.776H53.824C53.896 9.636 54.052 11.388 54.328 12.816C54.172 13.044 54.004 13.26 53.824 13.476L53.716 12.528C52.204 12.864 50.632 13.224 49.588 13.416L49.924 14.748C50.956 14.484 52.3 14.124 53.572 13.788C53.116 14.268 52.612 14.7 52.036 15.06C52.336 15.264 52.864 15.72 53.056 15.96C53.68 15.516 54.244 14.988 54.736 14.376C55.108 15.396 55.612 16.032 56.284 16.032C57.184 16.032 57.532 15.576 57.736 13.98C57.436 13.824 57.04 13.524 56.776 13.188C56.74 14.256 56.644 14.7 56.476 14.7C56.188 14.7 55.912 14.052 55.708 12.984C56.404 11.784 56.932 10.38 57.304 8.808L56.032 8.568ZM52.264 11.136H51.34V9.672H52.264V11.136ZM50.296 8.58V12.228H53.38V8.58H50.296Z" fill="white"/>
</svg>
