<svg width="65" height="17" viewBox="0 0 65 17" fill="none" xmlns="http://www.w3.org/2000/svg">
<path d="M26.548 8.372H23.44V6.98H26.548V8.372ZM26.548 10.268H23.44V8.852H26.548V10.268ZM26.548 12.164H23.44V10.748H26.548V12.164ZM22.936 6.476V12.668H27.064V6.476H24.916C24.988 6.08 25.072 5.6 25.168 5.156H27.28V4.628H22.564V5.156H24.58C24.532 5.564 24.46 6.08 24.388 6.476H22.936ZM16.972 14.876C17.38 14.324 17.716 13.436 17.908 12.776L17.464 12.584C17.284 13.22 16.936 14.108 16.528 14.612L16.972 14.876ZM18.52 12.764C18.652 13.376 18.76 14.156 18.784 14.696L19.276 14.6C19.252 14.084 19.132 13.304 19 12.692L18.52 12.764ZM21.532 6.128H17.68V5.084H21.532V6.128ZM21.532 7.616H17.68V6.572H21.532V7.616ZM22.06 4.628H17.152V8.072H17.848C17.632 8.72 17.188 9.368 17.056 9.536C16.924 9.704 16.84 9.812 16.696 9.824C16.756 9.956 16.84 10.22 16.864 10.34C16.984 10.292 17.2 10.244 18.148 10.148C17.776 10.664 17.416 11.084 17.272 11.24C17.032 11.492 16.852 11.66 16.66 11.684C16.72 11.816 16.804 12.092 16.84 12.2C16.984 12.14 17.272 12.08 19.012 11.876C19.06 12.044 19.108 12.2 19.132 12.32L19.54 12.176C19.444 11.744 19.204 11.096 18.916 10.616L18.544 10.772C18.64 10.988 18.748 11.216 18.856 11.456L17.536 11.6C18.16 10.964 18.796 10.124 19.372 9.236L18.88 9.02C18.76 9.248 18.628 9.464 18.472 9.692L17.452 9.764C17.776 9.344 18.1 8.792 18.364 8.216L17.968 8.072H22.06V4.628ZM22.852 12.164C22.708 11.708 22.36 11.036 22.024 10.544L21.64 10.724C21.76 10.916 21.88 11.12 21.988 11.336L20.488 11.504C21.1 10.868 21.736 10.028 22.324 9.164L21.832 8.936C21.7 9.176 21.556 9.404 21.4 9.644L20.38 9.716C20.704 9.332 21.016 8.804 21.292 8.264L20.788 8.084C20.548 8.72 20.104 9.368 19.96 9.512C19.84 9.668 19.756 9.764 19.612 9.776C19.672 9.908 19.756 10.184 19.792 10.304C19.9 10.244 20.104 10.196 21.064 10.1C20.692 10.604 20.344 11.012 20.2 11.156C19.96 11.408 19.768 11.576 19.6 11.6C19.648 11.732 19.732 12.008 19.756 12.128C19.924 12.056 20.224 11.996 22.192 11.768C22.288 11.984 22.36 12.176 22.42 12.356L22.852 12.164ZM19.756 12.68C19.984 13.22 20.236 13.94 20.332 14.408L20.788 14.264C20.704 13.82 20.44 13.1 20.2 12.56L19.756 12.68ZM22.456 13.82C22.288 13.388 21.916 12.74 21.556 12.248L21.148 12.416C21.472 12.908 21.844 13.58 22.012 14.012L22.456 13.82ZM24.016 13.088C23.608 13.58 22.756 14.168 22.012 14.516C22.144 14.612 22.324 14.804 22.408 14.912C23.14 14.54 23.992 13.928 24.544 13.352L24.016 13.088ZM25.516 13.364C26.092 13.832 26.788 14.48 27.124 14.912L27.556 14.588C27.22 14.168 26.524 13.532 25.948 13.1L25.516 13.364ZM38.212 4.928H29.848V5.492H38.212V4.928ZM30.964 9.836C30.436 11.252 29.548 12.608 28.564 13.484C28.708 13.568 28.972 13.76 29.092 13.856C30.04 12.908 30.976 11.504 31.552 9.992L30.964 9.836ZM39.244 8.3V7.736H28.78V8.3H33.664V14.804H34.252V8.3H39.244ZM36.544 10.064C37.48 11.204 38.44 12.764 38.788 13.784L39.34 13.52C38.968 12.512 37.996 10.964 37.048 9.836L36.544 10.064ZM43.9 4.496L43.804 4.52H41.044V14.888H41.584V5.06H43.552C43.264 5.9 42.844 6.968 42.424 7.928C43.384 8.936 43.648 9.776 43.648 10.484C43.648 10.868 43.576 11.24 43.372 11.384C43.264 11.456 43.132 11.492 42.964 11.504C42.748 11.516 42.484 11.504 42.16 11.492C42.268 11.648 42.328 11.864 42.34 12.008C42.604 12.032 42.904 12.032 43.168 12.008C43.384 11.984 43.6 11.912 43.744 11.804C44.056 11.6 44.188 11.084 44.188 10.52C44.188 9.74 43.936 8.876 42.988 7.856C43.42 6.884 43.912 5.696 44.272 4.736L43.9 4.496ZM47.464 3.932C46.78 5.156 45.376 6.356 43.768 7.16C43.9 7.268 44.092 7.46 44.188 7.556C45.496 6.872 46.636 5.936 47.452 4.88C48.22 5.768 49.684 6.944 51.148 7.556C51.256 7.424 51.424 7.208 51.532 7.088C49.996 6.524 48.484 5.384 47.752 4.496C47.848 4.352 47.932 4.22 48.004 4.088L47.464 3.932ZM44.896 10.28H50.56V9.8H49.012C49.324 9.272 49.672 8.66 49.936 8.084L49.552 7.94L49.456 7.976H44.824V8.468H49.168C48.964 8.864 48.688 9.344 48.436 9.74L48.628 9.8H44.896V10.28ZM45.844 6.644V7.1H49.18V6.644H45.844ZM44.308 11.96H46.552C45.952 12.74 45.22 13.436 44.992 13.64C44.728 13.868 44.5 14.024 44.32 14.036C44.392 14.192 44.476 14.492 44.5 14.612C44.776 14.504 45.232 14.468 50.104 14.096C50.32 14.396 50.488 14.672 50.608 14.912L51.088 14.612C50.728 13.928 49.888 12.908 49.12 12.188L48.664 12.428C49.036 12.788 49.408 13.208 49.756 13.628L45.376 13.928C46.012 13.4 46.66 12.704 47.26 11.96H51.304V11.468H44.308V11.96ZM62.248 4.268C61.54 5.228 60.268 6.272 59.188 6.872C59.356 6.98 59.512 7.148 59.632 7.28C60.712 6.62 61.984 5.54 62.788 4.496L62.248 4.268ZM62.704 7.484C61.9 8.54 60.448 9.62 59.188 10.244C59.344 10.364 59.5 10.52 59.596 10.652C60.892 9.98 62.356 8.84 63.232 7.712L62.704 7.484ZM58.036 5.768H53.992V4.892H58.036V5.768ZM58.036 7.124H53.992V6.212H58.036V7.124ZM58.6 4.436H53.44V7.58H58.6V4.436ZM59.008 8.48H56.308C56.176 8.216 56.008 7.892 55.864 7.664L55.348 7.82C55.456 8.012 55.588 8.252 55.696 8.48H52.816V8.984H59.008V8.48ZM53.992 12.296C53.716 12.932 53.272 13.556 52.768 14.012C52.9 14.096 53.116 14.276 53.2 14.348C53.704 13.88 54.208 13.136 54.52 12.428L53.992 12.296ZM54.04 10.184H57.928V11.42H54.04V10.184ZM58.48 11.888V9.716H53.488V11.888H55.696V14.132C55.696 14.24 55.66 14.288 55.516 14.288C55.384 14.288 54.952 14.288 54.376 14.276C54.472 14.432 54.556 14.624 54.58 14.78C55.264 14.78 55.696 14.78 55.948 14.684C56.188 14.588 56.248 14.456 56.248 14.132V11.888H58.48ZM57.112 12.488C57.556 13.004 58.048 13.736 58.264 14.18L58.72 13.928C58.492 13.472 57.988 12.776 57.544 12.26L57.112 12.488ZM62.968 11.024C62.092 12.38 60.448 13.676 58.78 14.396C58.9 14.504 59.068 14.684 59.176 14.828C60.892 14.048 62.548 12.692 63.484 11.216L62.968 11.024Z" fill="black"/>
<rect y="4" width="11.7333" height="11" rx="2" fill="#ACACAC"/>
</svg>
