<svg width="81" height="17" viewBox="0 0 81 17" fill="none" xmlns="http://www.w3.org/2000/svg">
<path d="M32.28 10.352C32.052 10.112 31.176 9.26 30.696 8.84C31.248 8.06 31.728 7.208 32.076 6.332L31.32 5.78L31.068 5.84H30.216L30.888 5.384C30.684 4.94 30.228 4.328 29.82 3.872L28.728 4.544C29.04 4.916 29.376 5.42 29.604 5.84H27.564V7.124H30.3C29.58 8.396 28.416 9.572 27.216 10.232C27.384 10.496 27.66 11.288 27.756 11.684C28.224 11.408 28.668 11.036 29.124 10.628V15.032H30.528V10.376C30.864 10.784 31.2 11.228 31.404 11.528L32.28 10.352ZM33.936 9.116H36.588V9.896H33.936V9.116ZM33.936 7.28H36.588V8.048H33.936V7.28ZM33.936 5.444H36.588V6.224H33.936V5.444ZM36.888 13.748C36.72 13.748 36.696 13.712 36.696 13.388V11.036H37.956V4.316H32.64V11.036H33.432C33.3 12.512 32.976 13.46 31.056 14.012C31.296 14.252 31.644 14.732 31.764 15.056C34.068 14.312 34.536 12.992 34.704 11.036H35.376V13.388C35.376 14.576 35.604 14.984 36.66 14.984H37.452C38.268 14.984 38.604 14.552 38.724 12.92C38.364 12.824 37.8 12.608 37.56 12.392C37.524 13.592 37.488 13.748 37.284 13.748H36.888ZM42.684 10.532L41.868 10.94V8.048H42.768V6.68H41.868V3.992H40.536V6.68H39.456V8.048H40.536V11.624C40.092 11.828 39.684 12.02 39.348 12.164L39.888 13.604C40.872 13.076 42.036 12.416 43.092 11.792L42.684 10.532ZM49.032 7.568C48.852 8.372 48.648 9.104 48.372 9.8C48.264 8.888 48.192 7.868 48.144 6.776H50.472V5.48H49.944L50.46 5C50.184 4.652 49.608 4.172 49.14 3.836L48.336 4.532C48.684 4.808 49.08 5.168 49.38 5.48H48.108C48.096 4.928 48.096 4.388 48.108 3.836H46.752C46.752 4.388 46.764 4.928 46.776 5.48H42.948V6.776H46.824C46.896 8.636 47.052 10.388 47.328 11.816C47.172 12.044 47.004 12.26 46.824 12.476L46.716 11.528C45.204 11.864 43.632 12.224 42.588 12.416L42.924 13.748C43.956 13.484 45.3 13.124 46.572 12.788C46.116 13.268 45.612 13.7 45.036 14.06C45.336 14.264 45.864 14.72 46.056 14.96C46.68 14.516 47.244 13.988 47.736 13.376C48.108 14.396 48.612 15.032 49.284 15.032C50.184 15.032 50.532 14.576 50.736 12.98C50.436 12.824 50.04 12.524 49.776 12.188C49.74 13.256 49.644 13.7 49.476 13.7C49.188 13.7 48.912 13.052 48.708 11.984C49.404 10.784 49.932 9.38 50.304 7.808L49.032 7.568ZM45.264 10.136H44.34V8.672H45.264V10.136ZM43.296 7.58V11.228H46.38V7.58H43.296ZM56.34 4.016V5.348H58.248C58.668 6.356 59.28 7.364 60.06 8.216H53.844C54.624 7.196 55.284 5.948 55.728 4.604L54.228 4.244C53.676 6.044 52.608 7.652 51.252 8.624C51.588 8.864 52.2 9.392 52.452 9.68C52.764 9.416 53.064 9.14 53.352 8.816V9.608H55.38C55.14 11.348 54.516 12.932 51.804 13.808C52.152 14.132 52.572 14.72 52.752 15.128C55.86 13.964 56.64 11.912 56.94 9.608H59.304C59.196 12.104 59.064 13.172 58.824 13.436C58.704 13.58 58.56 13.604 58.344 13.604C58.044 13.604 57.42 13.592 56.76 13.544C57.012 13.952 57.204 14.552 57.228 14.984C57.936 15.008 58.632 15.008 59.04 14.948C59.508 14.888 59.832 14.768 60.132 14.372C60.552 13.88 60.696 12.5 60.828 8.96C61.116 9.212 61.428 9.452 61.74 9.656C61.968 9.248 62.46 8.636 62.748 8.336C61.08 7.472 59.856 5.768 59.304 4.016H56.34ZM68.172 10.22C67.956 9.908 67.032 8.648 66.588 8.108V7.652H68.22V6.308H66.588V3.836H65.22V6.308H63.6V7.652H65.064C64.704 9.068 64.032 10.7 63.276 11.648C63.492 12.008 63.816 12.572 63.948 12.98C64.428 12.332 64.86 11.396 65.22 10.376V15.032H66.588V9.896C66.888 10.424 67.176 10.976 67.344 11.348L68.172 10.22ZM74.604 7.868H70.068V6.176C71.412 5.924 72.828 5.552 73.956 5.084L72.756 3.956C71.784 4.436 70.188 4.88 68.712 5.156V8.696C68.712 10.388 68.616 12.704 67.524 14.3C67.86 14.432 68.448 14.792 68.712 15.008C69.768 13.448 70.02 11.036 70.068 9.212H71.64V15.032H73.056V9.212H74.604V7.868Z" fill="#595959"/>
<path d="M20.3538 9.49994C13.856 15.9947 7.3585 15.9947 0.86084 9.49994C7.3585 3.00523 13.856 3.00523 20.3538 9.49994Z" fill="#F9F8F7"/>
<path d="M10.607 15C7.21177 15 3.81666 13.3149 0.445211 9.94515L0 9.50004L0.445211 9.05493C7.18823 2.31496 14.026 2.31509 20.7689 9.05493L21.2141 9.50004L20.7689 9.94515C17.3973 13.3149 14.0022 15 10.607 15ZM1.73184 9.50004C7.69866 15.1826 13.5155 15.1826 19.4823 9.50004C13.5155 3.81748 7.69866 3.81761 1.73184 9.50004Z" fill="#595959"/>
<path d="M10.6069 13.0278C12.4895 13.0278 14.0156 11.4484 14.0156 9.50001C14.0156 7.55164 12.4895 5.97217 10.6069 5.97217C8.72436 5.97217 7.19824 7.55164 7.19824 9.50001C7.19824 11.4484 8.72436 13.0278 10.6069 13.0278Z" fill="#595959"/>
<path d="M10.6073 10.9041C11.3566 10.9041 11.964 10.2754 11.964 9.4999C11.964 8.72439 11.3566 8.0957 10.6073 8.0957C9.85793 8.0957 9.25049 8.72439 9.25049 9.4999C9.25049 10.2754 9.85793 10.9041 10.6073 10.9041Z" fill="#F9F8F7"/>
</svg>
