<svg width="20" height="20" viewBox="0 0 20 20" fill="none" xmlns="http://www.w3.org/2000/svg">
<rect width="20" height="20" rx="2" fill="#DDECF5"/>
<path d="M5.78277 7.05237C6.05087 7.00606 6.23059 6.7513 6.18441 6.4832C5.92208 4.96309 7.09468 3.57845 8.62748 3.57845C10.1557 3.57845 11.3303 4.95655 11.0716 6.47717C11.026 6.7454 11.2064 6.99978 11.4746 7.04545C11.7429 7.09124 11.9972 6.91062 12.0429 6.64239C12.4029 4.52592 10.7694 2.59326 8.62748 2.59326C6.48805 2.59326 4.84671 4.52566 5.21359 6.65073C5.2599 6.9196 5.51569 7.09855 5.78277 7.05237Z" fill="#344059"/>
<path d="M13.8697 10.496C13.5005 9.77131 12.6212 9.48204 11.8994 9.83917C11.5638 9.18046 10.7963 8.86925 10.0987 9.11144V6.0947C10.0987 5.29065 9.45257 4.61885 8.65813 4.59704C7.82573 4.57344 7.13597 5.24011 7.13597 6.07431V13.6629L6.55731 13.0569C6.00186 12.4754 5.07183 12.4345 4.48393 12.966C3.86357 13.5267 3.83266 14.4815 4.40388 15.0816L7.72965 18.6289C8.19338 19.1234 8.84837 19.4071 9.52645 19.4071H13.5376C14.8957 19.4071 16.0006 18.3023 16.0006 16.9442V11.8212C16.0006 10.7299 14.8495 10.0112 13.8697 10.496ZM15.0154 16.9442C15.0154 17.759 14.3524 18.4219 13.5376 18.4219H9.52645C9.11955 18.4219 8.72663 18.2517 8.4484 17.9549C8.43647 17.9423 5.12994 14.4155 5.11801 14.403C4.92752 14.2034 4.93663 13.8848 5.14444 13.6968C5.34032 13.5199 5.65448 13.5381 5.84471 13.7373L7.27221 15.2322C7.57828 15.5529 8.12103 15.3353 8.12103 14.8921V6.07431C8.12103 5.79748 8.35065 5.57402 8.63132 5.58184C8.89724 5.58915 9.11352 5.81916 9.11352 6.0947C9.11352 11.515 9.10429 9.05808 9.10429 11.9854C9.10429 12.2583 9.32647 12.4806 9.6015 12.4777C9.87614 12.4806 10.0987 12.2584 10.0987 11.9854V10.414C10.1426 10.1869 10.3424 10.015 10.5821 10.015C10.8536 10.015 11.0747 10.2361 11.0747 10.5076V11.9854C11.0747 12.2575 11.2952 12.478 11.5672 12.478C11.8393 12.478 12.0598 12.2575 12.0598 11.9854V11.1644C12.0598 10.8929 12.2809 10.6718 12.5524 10.6718C12.824 10.6718 13.045 10.8929 13.045 11.1644V11.9854C13.045 12.2575 13.2655 12.478 13.5376 12.478C13.8097 12.478 14.0302 12.2575 14.0302 11.9854V11.8212C14.0302 11.5496 14.2512 11.3286 14.5228 11.3286C14.7944 11.3286 15.0154 11.5496 15.0154 11.8212V16.9442Z" fill="#344059"/>
</svg>
