<svg width="20" height="20" viewBox="0 0 20 20" fill="none" xmlns="http://www.w3.org/2000/svg">
<path d="M6.6543 15.2557C6.6543 15.3906 6.76367 15.5 6.8986 15.5H13.0999C13.2349 15.5 13.3442 15.3906 13.3442 15.2557V7.34009H6.6543V15.2557ZM11.3735 8.68717H12.2896V14.0134H11.3735V8.68717ZM9.54119 8.68717H10.4573V14.0134H9.54119V8.68717ZM7.7089 8.68717H8.62505V14.0134H7.7089V8.68717Z" fill="#344059"/>
<path d="M12.0587 5.62272V4.74431C12.0587 4.60938 11.9493 4.5 11.8144 4.5H8.1846C8.04967 4.5 7.94029 4.60938 7.94029 4.74431V5.62272V5.77541V5.9281H6.23259C6.09766 5.9281 5.98828 6.03747 5.98828 6.1724V6.7902C5.98828 6.92512 6.09766 7.03451 6.23259 7.03451H6.65451H13.3444H13.7664C13.9013 7.03451 14.0107 6.92512 14.0107 6.7902V6.1724C14.0107 6.03747 13.9013 5.9281 13.7664 5.9281H12.0587V5.77541V5.62272ZM11.1425 5.87787H8.85644V5.7754V5.6227V5.41614H11.1425V5.62272V5.77541V5.87787Z" fill="#344059"/>
</svg>
