<svg width="42" height="23" viewBox="0 0 42 23" fill="none" xmlns="http://www.w3.org/2000/svg">
<rect x="0.4" y="0.4" width="41.2" height="22.2" rx="2.6" fill="#EAF3FF" stroke="#1F85E3" stroke-width="0.8"/>
<path d="M24.2887 16.1404H22.6623C22.363 16.1404 22.1201 15.8975 22.1201 15.5983C22.1201 15.299 22.363 15.0561 22.6623 15.0561H24.2887C26.4811 15.0561 28.2644 13.2677 28.2644 11.0702C28.2644 8.87263 26.4811 7.0843 24.2887 7.0843H22.6623C22.363 7.0843 22.1201 6.84142 22.1201 6.54215C22.1201 6.24288 22.363 6 22.6623 6H24.2887C27.0789 6 29.3487 8.27409 29.3487 11.0702C29.3487 13.8662 27.0789 16.1404 24.2887 16.1404Z" fill="#1F85E3"/>
<path d="M18.6865 16.1404H17.06C14.2699 16.1404 12 13.8662 12 11.0702C12 8.27409 14.2699 6 17.06 6H18.6865C18.9857 6 19.2286 6.24288 19.2286 6.54215C19.2286 6.84142 18.9857 7.0843 18.6865 7.0843H17.06C14.8676 7.0843 13.0843 8.87263 13.0843 11.0702C13.0843 13.2677 14.8676 15.0561 17.06 15.0561H18.6865C18.9857 15.0561 19.2286 15.299 19.2286 15.5983C19.2286 15.8975 18.9857 16.1404 18.6865 16.1404Z" fill="#1F85E3"/>
<path d="M23.0239 11.6121H18.3254C18.0261 11.6121 17.7832 11.3692 17.7832 11.07C17.7832 10.7707 18.0261 10.5278 18.3254 10.5278H23.0239C23.3232 10.5278 23.566 10.7707 23.566 11.07C23.566 11.3692 23.3232 11.6121 23.0239 11.6121Z" fill="#1F85E3"/>
</svg>
