<svg width="78" height="20" viewBox="0 0 78 20" fill="none" xmlns="http://www.w3.org/2000/svg">
<rect width="78" height="20" rx="3" fill="#1F85E3"/>
<path d="M26.444 6.984C26.456 6.336 26.456 5.676 26.456 5.004H25.052C25.052 5.688 25.052 6.348 25.04 6.984H23.636V8.376H25.028C24.944 11.184 24.62 13.476 23.276 15C23.636 15.216 24.104 15.696 24.32 16.044C25.868 14.268 26.288 11.58 26.408 8.376H27.62C27.548 12.384 27.452 13.872 27.224 14.196C27.104 14.364 26.996 14.412 26.816 14.412C26.588 14.412 26.156 14.4 25.676 14.364C25.928 14.772 26.06 15.396 26.084 15.792C26.648 15.816 27.188 15.816 27.536 15.744C27.932 15.66 28.184 15.54 28.46 15.132C28.832 14.58 28.916 12.744 29.024 7.632C29.036 7.452 29.036 6.984 29.036 6.984H26.444ZM31.076 13.584V7.572H32.624V13.584H31.076ZM29.696 6.204V15.792H31.076V14.964H32.624V15.708H34.052V6.204H29.696ZM37.772 5.508V6.96H40.508C40.544 7.368 40.592 7.8 40.676 8.256L39.944 8.124C39.284 11.28 37.856 13.596 35.36 14.856C35.732 15.132 36.404 15.72 36.668 16.02C38.756 14.772 40.196 12.78 41.096 10.092C41.756 12.24 43.028 14.508 45.512 16.008C45.764 15.636 46.352 15.012 46.664 14.76C42.248 12.156 41.924 7.776 41.924 5.508H37.772ZM55.82 7.488H57.092V6.828H58.496V5.676H57.092V4.848H55.82V5.676H54.98V6.828H55.82V7.488ZM52.592 7.488H53.852V6.84H54.704V5.688H53.852V4.848H52.592V5.688H51.392V6.84H52.592V7.488ZM51.704 10.968C51.5 10.596 50.588 9.096 50.252 8.604V8.388H51.476V7.056H50.252V4.824H48.956V7.056H47.588V8.388H48.896C48.572 9.732 47.96 11.412 47.3 12.324C47.516 12.708 47.828 13.368 47.972 13.788C48.332 13.2 48.668 12.36 48.956 11.46V16.032H50.252V10.476C50.492 11.016 50.72 11.556 50.84 11.94L51.704 10.968ZM53.204 10.152H56.492V10.68H53.204V10.152ZM53.204 8.712H56.492V9.228H53.204V8.712ZM58.412 13.536V12.36H55.496C55.532 12.132 55.556 11.916 55.58 11.676H57.872V7.728H51.884V11.676H54.176C54.152 11.916 54.116 12.144 54.08 12.36H51.272V13.536H53.624C53.18 14.16 52.388 14.604 50.888 14.904C51.152 15.18 51.488 15.708 51.608 16.056C53.744 15.54 54.728 14.712 55.184 13.536H55.568L54.824 14.304C55.796 14.808 57.164 15.552 57.824 15.996L58.724 15C58.076 14.592 56.828 13.98 55.904 13.536H58.412ZM69.872 4.968H68.516V10.068C68.516 10.224 68.456 10.26 68.288 10.272C68.108 10.284 67.532 10.284 66.992 10.26C67.16 10.608 67.352 11.148 67.412 11.52C68.252 11.52 68.864 11.484 69.296 11.292C69.752 11.088 69.872 10.752 69.872 10.092V4.968ZM67.64 5.52H66.332V9.576H67.64V5.52ZM62.36 7.764V6.504H63.368V7.764H62.36ZM65.732 14.34V13.38H69.2V12.084H65.732V11.124H64.7V9.024H65.828V7.764H64.7V6.504H65.552V5.256H60.104V6.504H61.052V7.764H59.696V9.024H60.908C60.728 9.624 60.332 10.2 59.444 10.656C59.696 10.848 60.2 11.388 60.38 11.652C61.568 10.992 62.072 10.008 62.264 9.024H63.368V11.328H64.268V12.084H60.788V13.38H64.268V14.34H59.576V15.66H70.388V14.34H65.732Z" fill="white"/>
<rect x="7" y="9.44458" width="10" height="1.11111" fill="white"/>
<rect x="12.5552" y="5" width="10" height="1.11111" transform="rotate(90 12.5552 5)" fill="white"/>
</svg>
