<svg width="173" height="25" viewBox="0 0 173 25" fill="none" xmlns="http://www.w3.org/2000/svg">
<rect width="173" height="25" rx="3" fill="#1F85E3"/>
<path d="M19.022 13.156H20.548V14.024H19.022V13.156ZM24.314 14.024H22.088V13.156H23.81V11.952H22.088V11.21H20.548V11.952H19.022V11.21H17.496V11.952H15.788V13.156H17.496V14.024H15.284V15.228H17.846C17.258 15.648 16.334 16.04 15.452 16.32C15.816 16.544 16.404 17.034 16.698 17.314C17.622 16.936 18.742 16.278 19.442 15.634L18.252 15.228H21.192L20.324 15.802C21.164 16.222 22.06 16.824 22.564 17.258L24.048 16.572C23.488 16.18 22.578 15.662 21.724 15.228H24.314V14.024ZM22.62 7.64V8.27H21.374V7.64H22.62ZM23.208 11.014C23.586 11.014 24.006 10.986 24.244 10.916C24.202 10.608 24.16 10.146 24.132 9.796C23.894 9.866 23.446 9.88 23.166 9.88H21.724C21.43 9.88 21.374 9.74 21.374 9.348V9.278H24.034V6.618H20.058V9.334C20.058 10.538 20.366 11.014 21.626 11.014H23.208ZM18.14 7.626V8.256H16.936V7.626H18.14ZM16.936 9.95V9.264H19.526V6.604H15.648V9.278C15.648 9.838 15.41 10.076 15.186 10.188C15.396 10.482 15.662 11.084 15.732 11.42C16.012 11.28 16.46 11.196 19.316 10.72C19.344 10.44 19.442 9.922 19.554 9.586L16.936 9.95ZM14.878 8.256C14.458 7.696 13.66 6.828 13.002 6.156L11.77 6.926C12.414 7.612 13.226 8.592 13.59 9.18L14.878 8.256ZM14.514 12.736L14.248 12.778H13.478C14.108 11.812 14.878 10.496 15.312 9.726L14.304 9.334L14.08 9.418H11.644V10.734H13.226C12.792 11.476 12.302 12.26 12.092 12.498C11.868 12.778 11.644 12.89 11.42 12.946C11.574 13.24 11.868 13.94 11.952 14.276C12.078 14.164 12.47 14.066 12.764 14.066H13.674C13.282 15.928 12.47 17.314 11.322 18.112C11.63 18.322 12.176 18.896 12.386 19.232C13.03 18.742 13.576 18.098 14.038 17.244C15.102 18.714 16.726 18.98 19.316 18.98C20.954 18.98 22.746 18.952 24.202 18.854C24.286 18.406 24.496 17.65 24.72 17.314C23.152 17.468 20.842 17.552 19.358 17.552C17.034 17.538 15.452 17.356 14.64 15.886C14.934 15.06 15.144 14.108 15.298 13.03L14.514 12.736ZM29.634 12.008C29.27 12.106 28.92 12.218 28.556 12.316V10.328H29.774V8.788H28.556V6.156H27.03V8.788H25.574V10.328H27.03V12.722C26.4 12.876 25.854 13.016 25.378 13.128L25.742 14.738L27.03 14.36V17.426C27.03 17.608 26.96 17.664 26.792 17.664C26.624 17.678 26.148 17.678 25.644 17.65C25.84 18.098 26.022 18.784 26.064 19.204C26.974 19.204 27.576 19.148 27.996 18.882C28.416 18.616 28.556 18.196 28.556 17.426V13.912C28.99 13.772 29.41 13.646 29.844 13.506L29.634 12.008ZM35.542 13.338C35.43 13.66 35.29 14.038 35.136 14.388H33.288C33.218 14.094 33.05 13.674 32.896 13.338H35.542ZM32.49 8.634H31.65V7.71H32.49V8.634ZM33.736 7.71H34.59V8.634H33.736V7.71ZM35.85 7.71H36.732V8.634H35.85V7.71ZM38.468 16.264H34.884V15.634H37.936V14.388H36.62L37.096 13.576L36.046 13.338H38.258V12.092H34.884V11.462H37.88V10.272H34.884V9.726H38.09V6.604H30.362V9.726H33.316V10.272H30.53V11.462H33.316V12.092H29.97V13.338H32.532L31.496 13.562C31.594 13.814 31.692 14.108 31.776 14.388H30.264V15.634H33.316V16.264H29.732V17.482H33.316V19.218H34.884V17.482H38.454L38.468 16.264ZM40.274 18H42.346V15.088L43.704 13.338L46.392 18H48.66L44.936 11.714L48.1 7.626H45.818L42.388 12.134H42.346V7.626H40.274V18ZM49.8717 18H51.7337V13.674C51.7337 12.694 51.5657 11.252 51.4677 10.272H51.5237L52.3497 12.708L53.9597 17.062H55.1497L56.7457 12.708L57.5857 10.272H57.6557C57.5437 11.252 57.3897 12.694 57.3897 13.674V18H59.2797V7.626H56.9837L55.2617 12.484C55.0377 13.128 54.8557 13.814 54.6317 14.472H54.5617C54.3517 13.814 54.1557 13.128 53.9317 12.484L52.1677 7.626H49.8717V18ZM61.8209 18H68.1069V16.264H63.8929V7.626H61.8209V18ZM68.8366 20.548H70.2086L73.6806 6.716H72.3226L68.8366 20.548ZM75.3424 18H77.4144V15.088L78.7724 13.338L81.4604 18H83.7284L80.0044 11.714L83.1684 7.626H80.8864L77.4564 12.134H77.4144V7.626H75.3424V18ZM84.94 18H86.802V13.674C86.802 12.694 86.634 11.252 86.536 10.272H86.592L87.418 12.708L89.028 17.062H90.218L91.814 12.708L92.654 10.272H92.724C92.612 11.252 92.458 12.694 92.458 13.674V18H94.348V7.626H92.052L90.33 12.484C90.106 13.128 89.924 13.814 89.7 14.472H89.63C89.42 13.814 89.224 13.128 89 12.484L87.236 7.626H84.94V18ZM96.2172 18H103.637V16.264H98.7652L103.595 8.872V7.626H96.6792V9.362H101.047L96.2172 16.754V18ZM114.491 9.236H115.975V8.466H117.613V7.122H115.975V6.156H114.491V7.122H113.511V8.466H114.491V9.236ZM110.725 9.236H112.195V8.48H113.189V7.136H112.195V6.156H110.725V7.136H109.325V8.48H110.725V9.236ZM109.689 13.296C109.451 12.862 108.387 11.112 107.995 10.538V10.286H109.423V8.732H107.995V6.128H106.483V8.732H104.887V10.286H106.413C106.035 11.854 105.321 13.814 104.551 14.878C104.803 15.326 105.167 16.096 105.335 16.586C105.755 15.9 106.147 14.92 106.483 13.87V19.204H107.995V12.722C108.275 13.352 108.541 13.982 108.681 14.43L109.689 13.296ZM111.439 12.344H115.275V12.96H111.439V12.344ZM111.439 10.664H115.275V11.266H111.439V10.664ZM117.515 16.292V14.92H114.113C114.155 14.654 114.183 14.402 114.211 14.122H116.885V9.516H109.899V14.122H112.573C112.545 14.402 112.503 14.668 112.461 14.92H109.185V16.292H111.929C111.411 17.02 110.487 17.538 108.737 17.888C109.045 18.21 109.437 18.826 109.577 19.232C112.069 18.63 113.217 17.664 113.749 16.292H114.197L113.329 17.188C114.463 17.776 116.059 18.644 116.829 19.162L117.879 18C117.123 17.524 115.667 16.81 114.589 16.292H117.515ZM130.885 6.296H129.303V12.246C129.303 12.428 129.233 12.47 129.037 12.484C128.827 12.498 128.155 12.498 127.525 12.47C127.721 12.876 127.945 13.506 128.015 13.94C128.995 13.94 129.709 13.898 130.213 13.674C130.745 13.436 130.885 13.044 130.885 12.274V6.296ZM128.281 6.94H126.755V11.672H128.281V6.94ZM122.121 9.558V8.088H123.297V9.558H122.121ZM126.055 17.23V16.11H130.101V14.598H126.055V13.478H124.851V11.028H126.167V9.558H124.851V8.088H125.845V6.632H119.489V8.088H120.595V9.558H119.013V11.028H120.427C120.217 11.728 119.755 12.4 118.719 12.932C119.013 13.156 119.601 13.786 119.811 14.094C121.197 13.324 121.785 12.176 122.009 11.028H123.297V13.716H124.347V14.598H120.287V16.11H124.347V17.23H118.873V18.77H131.487V17.23H126.055ZM135.981 10.566H137.199V9.026H135.981V6.142H134.469V9.026H132.873V10.566H134.371C134.021 12.218 133.307 14.15 132.537 15.256C132.775 15.648 133.111 16.292 133.265 16.74C133.713 16.068 134.119 15.13 134.469 14.094V19.204H135.981V13.24C136.275 13.842 136.569 14.486 136.723 14.892L137.535 13.73C137.311 13.366 136.373 11.854 135.981 11.294V10.566ZM140.713 14.976V15.704H139.215V14.976H140.713ZM143.681 15.704H142.141V14.976H143.681V15.704ZM142.141 17.566V16.838H143.681V17.566H142.141ZM139.215 17.566V16.838H140.713V17.566H139.215ZM137.703 19.218H139.215V18.77H143.681V19.204H145.263V13.772H137.703V19.218ZM142.869 12.148H140.111V11.35H142.869V12.148ZM144.045 10.244H138.865V9.586H144.045V10.244ZM144.199 8.298C144.479 7.864 144.815 7.276 145.165 6.688L143.625 6.226C143.443 6.772 143.107 7.542 142.827 8.032L143.597 8.298H142.225V6.156H140.643V8.298H139.159L140.041 7.976C139.915 7.5 139.551 6.786 139.201 6.254L137.857 6.73C138.151 7.206 138.431 7.836 138.571 8.298H137.395V10.762H138.669V13.254H144.395V10.762H145.585V8.298H144.199ZM154.559 10.972C154.251 11.28 153.887 11.532 153.481 11.756C152.739 11.602 151.955 11.448 151.185 11.322C151.311 11.21 151.423 11.098 151.535 10.972H154.559ZM159.431 13.296C158.381 12.932 157.009 12.54 155.497 12.176C155.889 11.854 156.253 11.448 156.561 10.972H159.417V9.67H157.219C157.289 9.502 157.359 9.32 157.415 9.138L155.791 8.816C155.693 9.11 155.581 9.404 155.455 9.67H152.753C153.019 9.362 153.243 9.054 153.467 8.76L152.459 8.452H157.597V9.222H159.207V7.08H154.209C154.041 6.758 153.845 6.408 153.663 6.142L151.899 6.492C151.997 6.674 152.095 6.87 152.193 7.08H147.223V9.222H148.763V8.452H151.801C151.549 8.844 151.255 9.25 150.919 9.67H146.985V10.972H149.771C149.379 11.406 148.973 11.798 148.609 12.12C149.435 12.246 150.219 12.386 151.003 12.54C149.855 12.736 148.497 12.848 146.887 12.89C147.125 13.24 147.335 13.758 147.461 14.262C150.219 14.108 152.305 13.814 153.873 13.17C155.469 13.562 156.855 13.968 157.849 14.374L159.431 13.296ZM159.571 14.71H153.999V13.744H152.333V14.71H146.873V16.082H149.925C149.281 16.81 148.035 17.482 146.845 17.874C147.237 18.14 147.909 18.658 148.245 18.98C149.435 18.448 150.807 17.58 151.619 16.628L149.981 16.082H152.333V19.218H153.999V16.082H155.609L154.657 16.88C155.875 17.51 157.443 18.476 158.185 19.148L159.487 17.986C158.759 17.398 157.429 16.628 156.337 16.082H159.571V14.71Z" fill="white"/>
</svg>
