<svg width="42" height="23" viewBox="0 0 42 23" fill="none" xmlns="http://www.w3.org/2000/svg">
<path d="M24.2887 17.1404H22.6623C22.363 17.1404 22.1201 16.8975 22.1201 16.5983C22.1201 16.299 22.363 16.0561 22.6623 16.0561H24.2887C26.4811 16.0561 28.2644 14.2677 28.2644 12.0702C28.2644 9.87263 26.4811 8.0843 24.2887 8.0843H22.6623C22.363 8.0843 22.1201 7.84142 22.1201 7.54215C22.1201 7.24288 22.363 7 22.6623 7H24.2887C27.0789 7 29.3487 9.27409 29.3487 12.0702C29.3487 14.8662 27.0789 17.1404 24.2887 17.1404Z" fill="#595959"/>
<path d="M18.6865 17.1404H17.06C14.2699 17.1404 12 14.8662 12 12.0702C12 9.27409 14.2699 7 17.06 7H18.6865C18.9857 7 19.2286 7.24288 19.2286 7.54215C19.2286 7.84142 18.9857 8.0843 18.6865 8.0843H17.06C14.8676 8.0843 13.0843 9.87263 13.0843 12.0702C13.0843 14.2677 14.8676 16.0561 17.06 16.0561H18.6865C18.9857 16.0561 19.2286 16.299 19.2286 16.5983C19.2286 16.8975 18.9857 17.1404 18.6865 17.1404Z" fill="#595959"/>
<path d="M23.0239 12.6121H18.3254C18.0261 12.6121 17.7832 12.3692 17.7832 12.07C17.7832 11.7707 18.0261 11.5278 18.3254 11.5278H23.0239C23.3232 11.5278 23.566 11.7707 23.566 12.07C23.566 12.3692 23.3232 12.6121 23.0239 12.6121Z" fill="#595959"/>
</svg>
