<svg width="14" height="16" viewBox="0 0 14 16" fill="none" xmlns="http://www.w3.org/2000/svg">
<path d="M9.90425 5.11L8.88925 4.096L3.81425 9.17C3.61438 9.36994 3.45584 9.60729 3.3477 9.86849C3.23955 10.1297 3.18392 10.4096 3.18396 10.6924C3.18401 10.9751 3.23974 11.255 3.34797 11.5162C3.4562 11.7773 3.61481 12.0146 3.81475 12.2145C4.01469 12.4144 4.25204 12.5729 4.51324 12.6811C4.77445 12.7892 5.0544 12.8448 5.3371 12.8448C5.61981 12.8447 5.89974 12.789 6.16091 12.6808C6.42208 12.5725 6.65938 12.4139 6.85925 12.214L12.9493 6.125C13.6221 5.45201 14.0001 4.5393 14 3.58765C13.9999 2.63599 13.6217 1.72335 12.9487 1.0505C12.2758 0.377646 11.363 -0.000307374 10.4114 -0.000213606C9.45974 -0.000119837 8.5471 0.378013 7.87425 1.051L1.48025 7.444L1.46625 7.457C-0.48875 9.412 -0.48875 12.58 1.46625 14.534C3.42125 16.488 6.58925 16.488 8.54425 14.534L8.55725 14.52L8.55825 14.521L12.9233 10.157L11.9082 9.143L7.54325 13.506L7.53025 13.519C6.13825 14.911 3.87425 14.911 2.48225 13.519C2.15021 13.1862 1.88712 12.7912 1.70807 12.3566C1.52901 11.9219 1.43751 11.4562 1.43881 10.9861C1.44011 10.516 1.53419 10.0508 1.71564 9.61715C1.8971 9.18349 2.16237 8.78992 2.49625 8.459L2.49525 8.458L8.89025 2.065C9.72925 1.225 11.0953 1.225 11.9353 2.065C12.7753 2.905 12.7743 4.27 11.9353 5.109L5.84525 11.198C5.70896 11.3234 5.52951 11.3912 5.34437 11.3874C5.15923 11.3836 4.98272 11.3084 4.85172 11.1775C4.72072 11.0466 4.64534 10.8702 4.64134 10.6851C4.63734 10.4999 4.70502 10.3204 4.83025 10.184L9.90525 5.109L9.90425 5.11Z" fill="#4C7DA2"/>
</svg>
