<svg width="20" height="21" viewBox="0 0 20 21" fill="none" xmlns="http://www.w3.org/2000/svg">
<g clip-path="url(#clip0_4646:23276)">
<path d="M15.3309 8.43961C14.5914 5.51 11.6039 3.73125 8.65803 4.46665C6.35591 5.04137 4.68431 7.02008 4.51207 9.37429C2.87747 9.64237 1.77087 11.1775 2.04044 12.803C2.28007 14.2482 3.53924 15.3066 5.01202 15.3008H7.51175V14.3064H5.01202C3.90758 14.3064 3.01224 13.416 3.01224 12.3176C3.01224 11.2193 3.90758 10.3289 5.01202 10.3289C5.28815 10.3289 5.51197 10.1063 5.51197 9.8317C5.50947 7.3604 7.52197 5.355 10.007 5.35255C12.1581 5.3504 14.0099 6.86278 14.426 8.96163C14.4671 9.17119 14.6381 9.33128 14.851 9.35938C16.2177 9.55294 17.1679 10.8117 16.9733 12.1709C16.7986 13.3915 15.7507 14.3002 14.511 14.3064H12.5112V15.3008H14.511C16.4438 15.2949 18.0059 13.732 18 11.8099C17.9951 10.2099 16.8939 8.81931 15.3309 8.43961Z" fill="#344059" stroke="#344059" stroke-width="0.5"/>
<path d="M9.70032 10.435L8 12.281L8.59936 12.9318L9.57705 11.8749V16.3008H10.4272V11.8749L11.4006 12.9318L12 12.281L10.2997 10.435C10.1339 10.256 9.86613 10.256 9.70032 10.435Z" fill="#344059" stroke="#344059" stroke-width="0.5"/>
</g>
<defs>
<clipPath id="clip0_4646:23276">
<rect width="16.7578" height="16.7578" fill="white" transform="translate(1.62109 1.98633)"/>
</clipPath>
</defs>
</svg>
