<svg width="20" height="21" viewBox="0 0 20 21" fill="none" xmlns="http://www.w3.org/2000/svg">
<g clip-path="url(#clip0)">
<path d="M3.91895 20.5531C3.91895 20.7985 4.11781 20.9973 4.36314 20.9973H15.6384C15.8838 20.9973 16.0826 20.7985 16.0826 20.5531V6.16089H3.91895V20.5531ZM12.4994 8.61017H14.1651V18.2943H12.4994V8.61017ZM9.16792 8.61017H10.8337V18.2943H9.16792V8.61017ZM5.83644 8.61017H7.50218V18.2943H5.83644V8.61017Z" fill="#344059"/>
<path d="M13.7443 2.54133V0.944198C13.7443 0.698867 13.5454 0.5 13.3001 0.5H6.70039C6.45506 0.5 6.25619 0.698867 6.25619 0.944198V2.54133V2.81896V3.09658H3.15123C2.9059 3.09658 2.70703 3.29545 2.70703 3.54078V4.66407C2.70703 4.90937 2.9059 5.10826 3.15123 5.10826H3.91838H16.0821H16.8492C17.0946 5.10826 17.2934 4.90937 17.2934 4.66407V3.54078C17.2934 3.29545 17.0946 3.09658 16.8492 3.09658H13.7443V2.81896V2.54133ZM12.0785 3.00525H7.92194V2.81893V2.54131V2.16574H12.0785V2.54133V2.81896V3.00525Z" fill="#344059"/>
</g>
<defs>
<clipPath id="clip0">
<rect width="20" height="20" fill="white" transform="translate(0 0.5)"/>
</clipPath>
</defs>
</svg>
