<svg width="20" height="21" viewBox="0 0 20 21" fill="none" xmlns="http://www.w3.org/2000/svg">
<path d="M15.97 7.91319V16.3352C15.97 17.4342 15.079 18.3252 13.98 18.3252H4.03003C2.93106 18.3252 2.04004 17.4342 2.04004 16.3352V6.38525C2.04004 5.28628 2.93106 4.39526 4.03003 4.39526H12.4515L10.4625 6.38525H4.03003V16.3352H13.98V9.90368L15.97 7.91319ZM14.4425 3.81226L13.739 4.51575L15.8495 6.62673L16.553 5.92323L14.4425 3.81226ZM15.8495 2.40527L15.146 3.10877L17.2565 5.21974L17.96 4.51575L15.8495 2.40527ZM6.70408 11.5526L8.81456 13.6631L15.146 7.33069L13.0355 5.21971L6.70408 11.5526ZM6.02002 14.3452H8.01001L6.02002 12.3552V14.3452Z" fill="#344059"/>
</svg>
