<svg width="20" height="21" viewBox="0 0 20 21" fill="none" xmlns="http://www.w3.org/2000/svg">
<path d="M13.3154 7.98544C13.5442 8.21432 13.5442 8.58533 13.3154 8.8141L9.38454 12.745C9.15565 12.9738 8.78475 12.9738 8.55587 12.745L6.68465 10.8737C6.45576 10.6449 6.45576 10.2739 6.68465 10.0451C6.91341 9.81626 7.28443 9.81626 7.5132 10.0451L8.97015 11.5021L12.4867 7.98544C12.7156 7.75667 13.0866 7.75667 13.3154 7.98544ZM17.5 10.3652C17.5 14.5109 14.1451 17.8652 10 17.8652C5.85438 17.8652 2.5 14.5103 2.5 10.3652C2.5 6.21961 5.85495 2.86523 10 2.86523C14.1456 2.86523 17.5 6.22018 17.5 10.3652ZM16.3281 10.3652C16.3281 6.86735 13.4974 4.03711 10 4.03711C6.50211 4.03711 3.67188 6.86781 3.67188 10.3652C3.67188 13.8631 6.50257 16.6934 10 16.6934C13.4979 16.6934 16.3281 13.8627 16.3281 10.3652Z" fill="#344059" stroke="#344059" stroke-width="0.5" stroke-linejoin="round"/>
</svg>
