<svg width="20" height="21" viewBox="0 0 20 21" fill="none" xmlns="http://www.w3.org/2000/svg">
<path d="M10.0542 2.43335C9.47855 2.43335 8.90857 2.54673 8.37677 2.76701C7.84496 2.98729 7.36175 3.31016 6.95473 3.71718C6.5477 4.12421 6.22483 4.60741 6.00455 5.13922C5.78427 5.67102 5.6709 6.241 5.6709 6.81662C5.6709 9.40491 10.0542 14.4038 10.0542 14.4038C10.0542 14.4038 14.4374 9.59719 14.4374 6.81662C14.4374 6.241 14.3241 5.67102 14.1038 5.13922C13.8835 4.60741 13.5606 4.12421 13.1536 3.71718C12.7466 3.31016 12.2634 2.98729 11.7316 2.76701C11.1998 2.54673 10.6298 2.43335 10.0542 2.43335ZM10.0542 8.53409C9.67899 8.53413 9.31222 8.42291 9.00025 8.21451C8.68828 8.0061 8.44511 7.70986 8.30151 7.36325C8.1579 7.01664 8.12031 6.63523 8.19348 6.26725C8.26664 5.89928 8.44728 5.56127 8.71256 5.29596C8.97784 5.03065 9.31584 4.84996 9.68381 4.77675C10.0518 4.70354 10.4332 4.7411 10.7798 4.88466C11.1264 5.02823 11.4227 5.27136 11.6312 5.58331C11.8396 5.89526 11.9509 6.26201 11.9509 6.63719C11.9509 7.14022 11.751 7.62265 11.3953 7.97835C11.0396 8.33404 10.5572 8.53409 10.0542 8.53409Z" fill="#3C5165"/>
<mask id="mask0" mask-type="alpha" maskUnits="userSpaceOnUse" x="1" y="11" width="19" height="8">
<rect x="1" y="11.5" width="19" height="7" fill="#C4C4C4"/>
</mask>
<g mask="url(#mask0)">
<rect x="2.22168" y="1.23364" width="16.3333" height="16.3333" rx="4" stroke="#3C5165" stroke-width="2"/>
</g>
</svg>
