<svg width="20" height="21" viewBox="0 0 20 21" fill="none" xmlns="http://www.w3.org/2000/svg">
<path fill-rule="evenodd" clip-rule="evenodd" d="M10 20.5C15.5228 20.5 20 16.0228 20 10.5C20 4.97715 15.5228 0.5 10 0.5C4.47715 0.5 0 4.97715 0 10.5C0 16.0228 4.47715 20.5 10 20.5ZM9.99986 19.1667C14.7863 19.1667 18.6665 15.2865 18.6665 10.5C18.6665 5.71357 14.7863 1.83337 9.99986 1.83337C5.21339 1.83337 1.33319 5.71357 1.33319 10.5C1.33319 15.2865 5.21339 19.1667 9.99986 19.1667Z" fill="#3C5165"/>
<path d="M9.57144 12.3894H11.1961L11.5514 6.14479L11.6361 3.79248H9.13144L9.21606 6.14479L9.57144 12.3894ZM10.3838 16.8909C11.2638 16.8909 11.9407 16.1802 11.9407 15.2663C11.9407 14.3356 11.2638 13.6417 10.3838 13.6417C9.50375 13.6417 8.84375 14.3356 8.84375 15.2663C8.84375 16.1802 9.50375 16.8909 10.3838 16.8909Z" fill="#3C5165"/>
<path fill-rule="evenodd" clip-rule="evenodd" d="M3.73084 16.8914L17.3468 4.9241L16.3312 3.76853L2.71519 15.7358L3.73084 16.8914Z" fill="#3C5165"/>
</svg>
