<svg width="14" height="16" viewBox="0 0 14 16" fill="none" xmlns="http://www.w3.org/2000/svg">
<path d="M4.3581 3.73233H5.58297V9.13077H4.3581V3.73233ZM8.29208 3.692C7.54719 3.692 7.01897 3.74024 6.64178 3.80508V9.13077H7.85163V7.20055C7.96471 7.21637 8.10783 7.22507 8.26835 7.22507C8.98872 7.22507 9.60551 7.04794 10.0222 6.65494C10.3425 6.34971 10.5188 5.90215 10.5188 5.37313C10.5188 4.84491 10.2856 4.39735 9.94237 4.12454C9.58179 3.83592 9.04408 3.692 8.29208 3.692ZM8.25886 6.28645C8.08332 6.28645 7.95443 6.27854 7.85084 6.25403V4.66146C7.93861 4.63774 8.10704 4.61323 8.35613 4.61323C8.96421 4.61323 9.30898 4.90976 9.30898 5.40556C9.30898 5.95829 8.90807 6.28645 8.25886 6.28645ZM6.99999 0C3.3673 0 0.42334 2.94396 0.42334 6.57586C0.42334 10.2078 6.99999 16 6.99999 16C6.99999 16 13.5766 10.2086 13.5766 6.57665C13.5766 2.94475 10.6327 0 6.99999 0ZM7.0166 10.5747C4.60482 10.5747 2.65009 8.61916 2.65009 6.20658C2.65009 3.7948 4.60561 1.84007 7.0166 1.84007C9.42917 1.84007 11.3831 3.79559 11.3831 6.20658C11.3831 8.61837 9.42838 10.5747 7.0166 10.5747Z" fill="#7E909D"/>
</svg>
