<svg width="19" height="17" viewBox="0 0 19 17" fill="none" xmlns="http://www.w3.org/2000/svg">
<path d="M9.05371 0C8.47809 0 7.90811 0.113376 7.37631 0.333656C6.8445 0.553937 6.36129 0.876809 5.95427 1.28383C5.54724 1.69086 5.22438 2.17406 5.0041 2.70587C4.78382 3.23767 4.67044 3.80765 4.67044 4.38327C4.67044 6.97156 9.05371 11.9704 9.05371 11.9704C9.05371 11.9704 13.437 7.16384 13.437 4.38327C13.437 3.80765 13.3236 3.23767 13.1033 2.70587C12.8831 2.17406 12.5602 1.69086 12.1532 1.28383C11.7461 0.876809 11.2629 0.553937 10.7311 0.333656C10.1993 0.113376 9.62933 0 9.05371 0ZM9.05371 6.10074C8.67853 6.10078 8.31177 5.98957 7.99979 5.78116C7.68782 5.57275 7.44465 5.27651 7.30105 4.9299C7.15744 4.58329 7.11985 4.20188 7.19302 3.8339C7.26619 3.46593 7.44683 3.12792 7.7121 2.86261C7.97738 2.5973 8.31538 2.41661 8.68335 2.3434C9.05132 2.27019 9.43273 2.30775 9.77935 2.45131C10.126 2.59488 10.4222 2.83801 10.6307 3.14996C10.8391 3.46191 10.9504 3.82866 10.9504 4.20384C10.9504 4.70687 10.7506 5.1893 10.3949 5.545C10.0392 5.90069 9.55675 6.10074 9.05371 6.10074Z" fill="#344059"/>
<mask id="mask0" mask-type="alpha" maskUnits="userSpaceOnUse" x="0" y="9" width="19" height="8">
<rect y="9.06653" width="19" height="7" fill="#C4C4C4"/>
</mask>
<g mask="url(#mask0)">
<rect x="1.22174" y="-1.19989" width="16.3333" height="16.3333" rx="4" stroke="#344059" stroke-width="2"/>
</g>
</svg>
