<svg width="16" height="17" viewBox="0 0 16 17" fill="none" xmlns="http://www.w3.org/2000/svg">
<g clip-path="url(#clip0)">
<path d="M13.6667 6.5H12.6667V5.16666C12.6667 2.59344 10.5732 0.5 8 0.5C5.42675 0.5 3.33334 2.59344 3.33334 5.16666V6.5H2.33334C2.14909 6.5 2 6.64909 2 6.83334V15.1667C2 15.902 2.59797 16.5 3.33334 16.5H12.6667C13.402 16.5 14 15.902 14 15.1667V6.83334C14 6.64909 13.8509 6.5 13.6667 6.5ZM8.99806 13.4632C9.00847 13.5573 8.97822 13.6517 8.91506 13.7223C8.85191 13.793 8.76141 13.8333 8.66669 13.8333H7.33334C7.23863 13.8333 7.14812 13.793 7.08497 13.7223C7.02181 13.6517 6.99153 13.5573 7.00197 13.4632L7.21225 11.5723C6.87078 11.3239 6.66669 10.931 6.66669 10.5C6.66669 9.76466 7.26466 9.16666 8.00003 9.16666C8.73541 9.16666 9.33337 9.76462 9.33337 10.5C9.33337 10.931 9.12928 11.3239 8.78781 11.5723L8.99806 13.4632ZM10.6667 6.5H5.33334V5.16666C5.33334 3.69628 6.52962 2.5 8 2.5C9.47038 2.5 10.6667 3.69628 10.6667 5.16666V6.5Z" fill="#7E909D"/>
</g>
<defs>
<clipPath id="clip0">
<rect width="16" height="16" fill="white" transform="translate(0 0.5)"/>
</clipPath>
</defs>
</svg>
