<svg width="20" height="21" viewBox="0 0 20 21" fill="none" xmlns="http://www.w3.org/2000/svg">
<path d="M17.5 7.41953V18C17.5 19.3806 16.3806 20.5 15 20.5H2.5C1.11937 20.5 0 19.3806 0 18V5.5C0 4.11937 1.11937 3 2.5 3H13.0798L10.5811 5.5H2.5V18H15V9.92016L17.5 7.41953ZM15.5811 2.26758L14.6973 3.15137L17.3486 5.80336L18.2324 4.91957L15.5811 2.26758ZM17.3486 0.5L16.4648 1.38379L19.1162 4.03578L20 3.15137L17.3486 0.5ZM5.85938 11.9917L8.51074 14.6431L16.4648 6.68773L13.8135 4.03574L5.85938 11.9917ZM5 15.5H7.5L5 13V15.5Z" fill="#344059"/>
</svg>
