<svg width="31" height="30" viewBox="0 0 31 30" fill="none" xmlns="http://www.w3.org/2000/svg">
<path d="M16.5095 5.7832H10.0968C9.56527 5.7832 9.05555 6.0039 8.67973 6.39673C8.30391 6.78957 8.09277 7.32237 8.09277 7.87793V22.1221C8.09277 22.6776 8.30391 23.2104 8.67973 23.6033C9.05555 23.9961 9.56527 24.2168 10.0968 24.2168H16.5095C17.041 24.2168 17.5507 23.9961 17.9265 23.6033C18.3024 23.2104 18.5135 22.6776 18.5135 22.1221V7.87793C18.5135 7.32237 18.3024 6.78957 17.9265 6.39673C17.5507 6.0039 17.041 5.7832 16.5095 5.7832ZM13.3031 23.3789C12.6378 23.3789 12.1007 22.8175 12.1007 22.1221C12.1007 21.4266 12.6378 20.8652 13.3031 20.8652C13.9685 20.8652 14.5055 21.4266 14.5055 22.1221C14.5055 22.8175 13.9685 23.3789 13.3031 23.3789ZM16.9103 20.0273H9.69596V8.29688H16.9103V20.0273Z" fill="#344059"/>
<path d="M16.393 10.8703C16.9636 9.83732 18.4484 9.83732 19.019 10.8703L22.5715 17.3021C23.1237 18.3018 22.4006 19.5273 21.2585 19.5273H14.1535C13.0114 19.5273 12.2883 18.3018 12.8405 17.3021L16.393 10.8703Z" fill="#344059" stroke="#DDECF6"/>
<path d="M17.0677 16.7178H17.9454L18.0836 13.3242H16.9295L17.0677 16.7178ZM18.1158 17.7752C18.1158 17.6069 18.059 17.4693 17.9454 17.3625C17.8297 17.2533 17.6861 17.1988 17.5146 17.1988C17.3431 17.1988 17.2006 17.2533 17.087 17.3625C16.9713 17.4693 16.9134 17.6069 16.9134 17.7752C16.9134 17.9434 16.9713 18.0821 17.087 18.1913C17.2006 18.2981 17.3431 18.3516 17.5146 18.3516C17.6861 18.3516 17.8297 18.2981 17.9454 18.1913C18.059 18.0821 18.1158 17.9434 18.1158 17.7752Z" fill="#DDECF6"/>
</svg>
