<svg width="16" height="14" viewBox="0 0 16 14" fill="none" xmlns="http://www.w3.org/2000/svg">
<path d="M12.7848 0.53125H3.21521C1.44226 0.53125 0 1.97363 0 3.74646V10.2952C0 12.068 1.44226 13.5103 3.21521 13.5103H12.7848C14.5577 13.5103 16 12.068 16 10.2952V3.74646C16 1.97363 14.5577 0.53125 12.7848 0.53125V0.53125ZM15.0625 10.2952C15.0625 11.551 14.0408 12.5728 12.7848 12.5728H3.21521C1.95923 12.5728 0.9375 11.551 0.9375 10.2952V3.74646C0.9375 2.49048 1.95923 1.46875 3.21521 1.46875H12.7848C14.0408 1.46875 15.0625 2.49048 15.0625 3.74646V10.2952Z" fill="#7E909D"/>
<path d="M9.5 7.08325C9.75891 7.08325 9.96875 6.87341 9.96875 6.6145V5.77075C9.96875 5.51196 9.75891 5.302 9.5 5.302C9.24109 5.302 9.03125 5.51196 9.03125 5.77075V6.6145C9.03125 6.87341 9.24109 7.08325 9.5 7.08325Z" fill="#7E909D"/>
<path d="M8 7.1145C8.25891 7.1145 8.46875 6.90466 8.46875 6.64575V5.802C8.46875 5.54321 8.25891 5.33325 8 5.33325C7.74109 5.33325 7.53125 5.54321 7.53125 5.802V6.64575C7.53125 6.90466 7.74109 7.1145 8 7.1145Z" fill="#7E909D"/>
<path d="M6.5 7.1145C6.75891 7.1145 6.96875 6.90466 6.96875 6.64575V5.802C6.96875 5.54321 6.75891 5.33325 6.5 5.33325C6.24109 5.33325 6.03125 5.54321 6.03125 5.802V6.64575C6.03125 6.90466 6.24109 7.1145 6.5 7.1145Z" fill="#7E909D"/>
<path d="M12.1562 3.58325H3.84375C3.58484 3.58325 3.375 3.79321 3.375 4.052V8.39575C3.375 8.65466 3.58484 8.8645 3.84375 8.8645H5.0625V9.9895C5.0625 10.2484 5.27234 10.4583 5.53125 10.4583H10.4688C10.7277 10.4583 10.9375 10.2484 10.9375 9.9895V8.8645H12.1562C12.4152 8.8645 12.625 8.65466 12.625 8.39575V4.052C12.625 3.79321 12.4152 3.58325 12.1562 3.58325ZM11.6875 7.927H10.4688C10.2098 7.927 10 8.13696 10 8.39575V9.52075H6V8.39575C6 8.13696 5.79016 7.927 5.53125 7.927H4.3125V4.52075H11.6875V7.927Z" fill="#7E909D"/>
</svg>
