<svg width="20" height="21" viewBox="0 0 20 21" fill="none" xmlns="http://www.w3.org/2000/svg">
<path d="M9.62729 3.6344C9.14499 3.6344 8.6674 3.7294 8.22181 3.91397C7.77622 4.09854 7.37134 4.36907 7.0303 4.71011C6.68925 5.05115 6.41873 5.45603 6.23416 5.90162C6.04959 6.34721 5.95459 6.8248 5.95459 7.3071C5.95459 9.4758 9.62729 13.6643 9.62729 13.6643C9.62729 13.6643 13.3 9.63691 13.3 7.3071C13.3 6.8248 13.205 6.34721 13.0204 5.90162C12.8359 5.45603 12.5653 5.05115 12.2243 4.71011C11.8832 4.36907 11.4784 4.09854 11.0328 3.91397C10.5872 3.7294 10.1096 3.6344 9.62729 3.6344ZM9.62729 8.74615C9.31293 8.74619 9.00562 8.653 8.74422 8.47838C8.48283 8.30375 8.27908 8.05554 8.15875 7.76512C8.03843 7.4747 8.00693 7.15512 8.06823 6.84679C8.12954 6.53847 8.2809 6.25525 8.50317 6.03295C8.72544 5.81065 9.00865 5.65926 9.31697 5.59792C9.62528 5.53657 9.94487 5.56804 10.2353 5.68833C10.5257 5.80862 10.774 6.01234 10.9486 6.27372C11.1233 6.5351 11.2165 6.8424 11.2165 7.15676C11.2165 7.57824 11.0491 7.98247 10.751 8.2805C10.453 8.57854 10.0488 8.74615 9.62729 8.74615Z" fill="#344059"/>
<mask id="mask0_4646:23159" style="mask-type:alpha" maskUnits="userSpaceOnUse" x="2" y="11" width="16" height="7">
<rect x="2.04004" y="11.2312" width="15.9199" height="5.86523" fill="#C4C4C4"/>
</mask>
<g mask="url(#mask0_4646:23159)">
<rect x="3.22656" y="2.79126" width="13.3613" height="13.3613" rx="4" stroke="#344059" stroke-width="2"/>
</g>
</svg>
