<svg width="21" height="21" viewBox="0 0 21 21" fill="none" xmlns="http://www.w3.org/2000/svg">
<g clip-path="url(#clip0)">
<path d="M17.9833 3.02294C17.9833 1.62385 16.8374 0.5 15.4109 0.5H2.57238C1.14588 0.5 0 1.62385 0 3.02294V15.6376C0 17.0367 1.14588 18.1605 2.57238 18.1605H7.1559C7.10913 17.4037 7.08575 16.555 7.08575 15.6147H2.57238V3.02294H15.4343V7.65596C16.206 7.65596 17.0947 7.65596 18.0067 7.65596V3.02294H17.9833Z" fill="#323F57"/>
<path d="M12.8157 18.8256C9.75223 18.8256 7.25 16.3715 7.25 13.3669C7.25 10.3623 9.75223 7.9082 12.8157 7.9082C15.8792 7.9082 18.358 10.3623 18.358 13.3669C18.358 16.3715 15.8792 18.8256 12.8157 18.8256ZM12.8157 10.2018C11.0384 10.2018 9.58853 11.6238 9.58853 13.3669C9.58853 15.11 11.0384 16.5321 12.8157 16.5321C14.593 16.5321 16.0429 15.11 16.0429 13.3669C16.0195 11.6238 14.593 10.2018 12.8157 10.2018Z" fill="#323F57"/>
<path d="M17.2091 15.5549L15.6748 17.2859L19.4517 20.5062L20.986 18.7752L17.2091 15.5549Z" fill="#323F57"/>
</g>
<defs>
<clipPath id="clip0">
<rect width="21" height="20" fill="white" transform="translate(0 0.5)"/>
</clipPath>
</defs>
</svg>
