<svg width="20" height="21" viewBox="0 0 20 21" fill="none" xmlns="http://www.w3.org/2000/svg">
<path fill-rule="evenodd" clip-rule="evenodd" d="M10 17.8652C14.1421 17.8652 17.5 14.5074 17.5 10.3652C17.5 6.2231 14.1421 2.86523 10 2.86523C5.85786 2.86523 2.5 6.2231 2.5 10.3652C2.5 14.5074 5.85786 17.8652 10 17.8652ZM9.99989 16.8653C13.5897 16.8653 16.4999 13.9551 16.4999 10.3653C16.4999 6.77541 13.5897 3.86526 9.99989 3.86526C6.41004 3.86526 3.49989 6.77541 3.49989 10.3653C3.49989 13.9551 6.41004 16.8653 9.99989 16.8653Z" fill="#344059" stroke="#344059" stroke-width="0.8"/>
<path d="M9.20492 12.0849H10.7787L11.123 6.84069L11.2049 4.86523H8.77869L8.86066 6.84069L9.20492 12.0849ZM9.9918 15.8652C10.8443 15.8652 11.5 15.2683 11.5 14.5009C11.5 13.7192 10.8443 13.1366 9.9918 13.1366C9.13934 13.1366 8.5 13.7192 8.5 14.5009C8.5 15.2683 9.13934 15.8652 9.9918 15.8652Z" fill="#344059"/>
<path fill-rule="evenodd" clip-rule="evenodd" d="M5.09971 15.1152L15.4766 5.99476L14.7026 5.11409L4.32568 14.2345L5.09971 15.1152Z" fill="#344059" stroke="#344059" stroke-width="0.5"/>
</svg>
