<?xml version="1.0" encoding="UTF-8" standalone="no"?>
<svg
   width="14"
   height="14"
   viewBox="0 0 14 14"
   fill="none"
   version="1.1"
   id="svg27"
   sodipodi:docname="update_now_hover.svg"
   inkscape:version="1.1 (c68e22c387, 2021-05-23)"
   xmlns:inkscape="http://www.inkscape.org/namespaces/inkscape"
   xmlns:sodipodi="http://sodipodi.sourceforge.net/DTD/sodipodi-0.dtd"
   xmlns="http://www.w3.org/2000/svg"
   xmlns:svg="http://www.w3.org/2000/svg">
  <defs
     id="defs31" />
  <sodipodi:namedview
     id="namedview29"
     pagecolor="#ffffff"
     bordercolor="#666666"
     borderopacity="1.0"
     inkscape:pageshadow="2"
     inkscape:pageopacity="0.0"
     inkscape:pagecheckerboard="0"
     showgrid="false"
     inkscape:zoom="41.928571"
     inkscape:cx="7"
     inkscape:cy="7"
     inkscape:window-width="1440"
     inkscape:window-height="837"
     inkscape:window-x="1592"
     inkscape:window-y="-8"
     inkscape:window-maximized="1"
     inkscape:current-layer="svg27" />
  <path
     d="M13.6445 0.629565C13.3954 0.526451 13.1828 0.568846 13.0065 0.757229L11.8216 1.93312C11.1715 1.31938 10.4286 0.843935 9.59314 0.50669C8.75762 0.169477 7.89322 0.000854492 6.99999 0.000854492C6.0521 0.000854492 5.14674 0.186269 4.2839 0.556874C3.421 0.927511 2.67663 1.42569 2.05079 2.05155C1.42492 2.67749 0.926624 3.42176 0.555987 4.2846C0.185382 5.14751 0 6.05274 0 7.00076C0 7.94849 0.185382 8.85395 0.556019 9.71682C0.926751 10.5798 1.42492 11.3241 2.05082 11.95C2.67666 12.5756 3.42103 13.0739 4.28393 13.4446C5.14677 13.8152 6.05214 14.0007 7.00002 14.0007C8.04508 14.0007 9.03884 13.7804 9.98053 13.3398C10.9223 12.8994 11.7244 12.278 12.3869 11.4759C12.4354 11.4152 12.4582 11.3468 12.4551 11.2708C12.4522 11.1949 12.4232 11.1326 12.3685 11.084L11.12 9.82625C11.053 9.77163 10.9772 9.74434 10.8921 9.74434C10.7949 9.75647 10.7251 9.79305 10.6825 9.8538C10.2389 10.4312 9.6951 10.8777 9.05097 11.1939C8.40697 11.5097 7.72338 11.6676 7.00028 11.6676C6.36844 11.6676 5.76533 11.5446 5.19112 11.2984C4.61684 11.0524 4.12004 10.7197 3.70084 10.3005C3.28168 9.88113 2.949 9.38452 2.70287 8.81018C2.4568 8.23596 2.33373 7.63301 2.33373 7.00101C2.33373 6.36908 2.4569 5.76584 2.70287 5.19176C2.94891 4.6176 3.28156 4.1208 3.70084 3.70161C4.12016 3.28232 4.61684 2.94964 5.19112 2.70351C5.7652 2.45747 6.36844 2.33437 7.00028 2.33437C8.22165 2.33437 9.28204 2.75063 10.1814 3.58311L8.92328 4.84072C8.73483 5.02304 8.69244 5.23271 8.79555 5.46965C8.89901 5.71272 9.07827 5.83423 9.3336 5.83423H13.4169C13.5748 5.83423 13.7115 5.77654 13.827 5.66107C13.9424 5.54563 14 5.40893 14 5.25094V1.16758C14 0.912443 13.8818 0.73319 13.6445 0.629565Z"
     fill="#4C7DA2"
     id="path25"
     style="fill:#ffffff" />
</svg>
