<svg width="16" height="17" viewBox="0 0 16 17" fill="none" xmlns="http://www.w3.org/2000/svg">
<path d="M13.4991 14.1042C13.4703 12.2606 12.896 10.5843 11.8748 9.37059C10.8596 8.16431 9.48371 7.5 8.00021 7.5C6.51671 7.5 5.14084 8.16431 4.12562 9.37059C3.10543 10.583 2.53146 12.257 2.50146 14.0983C3.07834 14.3872 5.46553 15.5 8.00021 15.5C10.7411 15.5 12.9641 14.3938 13.4991 14.1042Z" fill="#7E909D"/>
<path d="M8 7C9.51878 7 10.75 5.76878 10.75 4.25C10.75 2.73122 9.51878 1.5 8 1.5C6.48122 1.5 5.25 2.73122 5.25 4.25C5.25 5.76878 6.48122 7 8 7Z" fill="#7E909D"/>
</svg>
