<svg width="42" height="23" viewBox="0 0 42 23" fill="none" xmlns="http://www.w3.org/2000/svg">
<rect width="42" height="23" rx="3" fill="#DFE8EC"/>
<rect x="14.2671" y="16.3901" width="11.5495" height="1.44369" fill="#595959"/>
<path d="M13 17.1121L16.2483 14.6116L16.2483 19.6127L13 17.1121Z" fill="#595959"/>
<path d="M27.437 17.112L24.1887 19.6125L24.1887 14.6114L27.437 17.112Z" fill="#595959"/>
<path d="M17.8125 14.2247V4.6001H20.6984C21.5309 4.6001 22.2745 4.79011 22.9294 5.17014C23.5893 5.55017 24.102 6.08716 24.4675 6.78113C24.833 7.46958 25.0208 8.25167 25.031 9.12739V9.63134C25.031 10.5291 24.8482 11.3277 24.4827 12.0272C24.1223 12.7266 23.6071 13.2691 22.937 13.6547C22.272 14.0347 21.5131 14.2247 20.6603 14.2247H17.8125ZM19.6628 6.21935V12.622H20.6527C22.3126 12.622 23.1578 11.6637 23.1883 9.747V9.19348C23.1883 7.25478 22.3989 6.26341 20.8202 6.21935H19.6628Z" fill="#595959"/>
</svg>
