<svg width="42" height="23" viewBox="0 0 42 23" fill="none" xmlns="http://www.w3.org/2000/svg">
<rect width="42" height="23" rx="3" fill="#DFE8EC"/>
<path d="M25.8935 8.26099C25.8411 8.06476 25.7348 7.85568 25.6561 7.67262C24.715 5.41072 22.6585 4.6001 20.998 4.6001C18.7751 4.6001 16.3269 6.09063 16 9.16298V9.79068C16 9.81687 16.009 10.0522 16.0219 10.1699C16.2051 11.6341 17.3604 13.1902 18.2233 14.6544C19.1517 16.2232 20.1149 17.7664 21.0693 19.3089C21.6578 18.3023 22.2441 17.2824 22.8192 16.3018C22.9759 16.0141 23.1578 15.7265 23.3147 15.4518C23.4193 15.2689 23.6191 15.086 23.7104 14.9158C24.6387 13.2163 26.1329 11.5035 26.1329 9.81684V9.12393C26.1329 8.94107 25.9062 8.30042 25.8935 8.26099ZM21.0387 11.412C20.3853 11.412 19.6701 11.0853 19.317 10.183C19.2644 10.0394 19.2687 9.75152 19.2687 9.72516V9.31985C19.2687 8.16958 20.2454 7.64649 21.095 7.64649C22.1411 7.64649 22.9501 8.48337 22.9501 9.52941C22.9501 10.5754 22.0847 11.412 21.0387 11.412Z" fill="#595959"/>
</svg>
