<svg width="42" height="23" viewBox="0 0 42 23" fill="none" xmlns="http://www.w3.org/2000/svg">
<rect x="0.4" y="0.4" width="41.2" height="22.2" rx="2.6" fill="#EAF3FF" stroke="#1F85E3" stroke-width="0.8"/>
<path fill-rule="evenodd" clip-rule="evenodd" d="M19.0556 7.52778C19.0556 8.92383 17.9238 10.0556 16.5278 10.0556C15.1317 10.0556 14 8.92383 14 7.52778C14 6.13172 15.1317 5 16.5278 5C17.9238 5 19.0556 6.13172 19.0556 7.52778ZM17.5001 7.52801C17.5001 8.06495 17.0648 8.50023 16.5279 8.50023C15.9909 8.50023 15.5557 8.06495 15.5557 7.52801C15.5557 6.99106 15.9909 6.55579 16.5279 6.55579C17.0648 6.55579 17.5001 6.99106 17.5001 7.52801Z" fill="#1F85E3"/>
<path fill-rule="evenodd" clip-rule="evenodd" d="M27.9999 15.6943C27.9999 17.0903 26.8682 18.2221 25.4721 18.2221C24.0761 18.2221 22.9443 17.0903 22.9443 15.6943C22.9443 14.2982 24.0761 13.1665 25.4721 13.1665C26.8682 13.1665 27.9999 14.2982 27.9999 15.6943ZM26.4444 15.6943C26.4444 16.2312 26.0092 16.6665 25.4722 16.6665C24.9353 16.6665 24.5 16.2312 24.5 15.6943C24.5 15.1573 24.9353 14.722 25.4722 14.722C26.0092 14.722 26.4444 15.1573 26.4444 15.6943Z" fill="#1F85E3"/>
<path d="M17.6943 8.69434L23.9166 14.1388" stroke="#1F85E3" stroke-width="2"/>
</svg>
