<svg width="42" height="23" viewBox="0 0 42 23" fill="none" xmlns="http://www.w3.org/2000/svg">
<path fill-rule="evenodd" clip-rule="evenodd" d="M19.0556 6.52778C19.0556 7.92383 17.9238 9.05556 16.5278 9.05556C15.1317 9.05556 14 7.92383 14 6.52778C14 5.13172 15.1317 4 16.5278 4C17.9238 4 19.0556 5.13172 19.0556 6.52778ZM17.5001 6.52801C17.5001 7.06495 17.0648 7.50023 16.5279 7.50023C15.9909 7.50023 15.5557 7.06495 15.5557 6.52801C15.5557 5.99106 15.9909 5.55579 16.5279 5.55579C17.0648 5.55579 17.5001 5.99106 17.5001 6.52801Z" fill="#595959"/>
<path fill-rule="evenodd" clip-rule="evenodd" d="M27.9999 14.6943C27.9999 16.0903 26.8682 17.2221 25.4721 17.2221C24.0761 17.2221 22.9443 16.0903 22.9443 14.6943C22.9443 13.2982 24.0761 12.1665 25.4721 12.1665C26.8682 12.1665 27.9999 13.2982 27.9999 14.6943ZM26.4444 14.6943C26.4444 15.2312 26.0092 15.6665 25.4722 15.6665C24.9353 15.6665 24.5 15.2312 24.5 14.6943C24.5 14.1573 24.9353 13.722 25.4722 13.722C26.0092 13.722 26.4444 14.1573 26.4444 14.6943Z" fill="#595959"/>
<path d="M17.6943 7.69434L23.9166 13.1388" stroke="#595959" stroke-width="2"/>
</svg>
