<svg width="23" height="23" viewBox="0 0 23 23" fill="none" xmlns="http://www.w3.org/2000/svg">
<rect width="23" height="23" rx="5" fill="#E5E5E5"/>
<path d="M19.711 7.69284L18.3071 6.28899C18.1146 6.09635 17.8805 6 17.6053 6C17.3299 6 17.0958 6.09635 16.9033 6.28899L10.1316 13.0709L7.09675 10.0257C6.90405 9.83302 6.67008 9.73678 6.3949 9.73678C6.11954 9.73678 5.88558 9.83302 5.69287 10.0257L4.28903 11.4296C4.09632 11.6223 4 11.8563 4 12.1316C4 12.4068 4.09632 12.641 4.28903 12.8336L8.02573 16.5703L9.42969 17.9741C9.62229 18.1669 9.85632 18.2631 10.1316 18.2631C10.4068 18.2631 10.6408 18.1666 10.8335 17.9741L12.2375 16.5703L19.711 9.09679C19.9035 8.90408 20 8.67008 20 8.39476C20.0001 8.11958 19.9035 7.88555 19.711 7.69284Z" fill="#3C5165"/>
</svg>
