<svg width="97" height="121" viewBox="0 0 97 121" fill="none" xmlns="http://www.w3.org/2000/svg">
<path d="M28.2886 5.90324L28.2886 5.90331L82.888 60.4974L28.294 115.097C28.294 115.097 28.2939 115.097 28.2939 115.097C26.487 116.904 26.4871 119.838 28.294 121.645C30.1009 123.452 33.0351 123.452 34.842 121.645L92.7129 63.7739L92.7204 63.7664C93.6122 62.8651 94.0669 61.6815 94.0669 60.4973C94.0669 59.3156 93.6137 58.1245 92.704 57.2221C92.7028 57.221 92.7017 57.2199 92.7006 57.2187L34.8368 -0.645035L34.8365 -0.645378C33.0295 -2.45155 30.0956 -2.45181 28.2886 -0.644791C26.4816 1.16215 26.4816 4.09629 28.2886 5.90324Z" fill="white" stroke="white" stroke-width="4"/>
<path d="M-4.64533 5.90651L-4.64526 5.90658L49.9542 60.5405L-4.6399 115.18C-4.63993 115.18 -4.63995 115.18 -4.63997 115.18C-6.44613 116.987 -6.44611 119.922 -4.6399 121.729C-2.83287 123.538 0.102019 123.538 1.90905 121.729L59.7784 63.8177L59.7858 63.8102C60.6775 62.9084 61.1318 61.7246 61.1318 60.5403C61.1318 59.3589 60.6792 58.1678 59.7701 57.265C59.7688 57.2637 59.7674 57.2623 59.7661 57.261L1.90387 -0.643333L1.90353 -0.643677C0.0964036 -2.45125 -2.83823 -2.45152 -4.64533 -0.643097C-6.45156 1.16444 -6.45156 4.09897 -4.64533 5.90651Z" fill="white" stroke="white" stroke-width="4"/>
</svg>
