<svg width="43" height="36" viewBox="0 0 43 36" fill="none" xmlns="http://www.w3.org/2000/svg">
<rect y="36" width="36" height="43" rx="5" transform="rotate(-90 0 36)" fill="white"/>
<rect x="12" y="24.833" width="18.9998" height="3.16664" fill="#545454"/>
<rect x="12" y="23.0229" width="18.9998" height="0.904753" fill="#545454"/>
<rect x="22.4062" y="14.4282" width="6.33328" height="0.904753" fill="#545454"/>
<rect x="22.4062" y="16.2378" width="6.33328" height="4.52376" fill="#545454"/>
<rect x="15.166" y="10.3579" width="1.80951" height="1.35713" fill="white"/>
<rect x="15.166" y="10.3579" width="1.80951" height="1.35713" fill="white"/>
<rect x="15.166" y="10.3579" width="1.80951" height="1.35713" fill="white"/>
<rect x="15.166" y="10.3579" width="1.80951" height="1.35713" fill="white"/>
<rect x="15.166" y="10.3579" width="1.80951" height="1.35713" fill="white"/>
<rect x="15.166" y="10.3579" width="1.80951" height="1.35713" fill="white"/>
<rect x="15.166" y="12.6191" width="1.80951" height="1.35713" fill="white"/>
<rect x="15.166" y="12.6191" width="1.80951" height="1.35713" fill="white"/>
<rect x="15.166" y="12.6191" width="1.80951" height="1.35713" fill="white"/>
<rect x="18.334" y="10.3579" width="1.80951" height="1.35713" fill="white"/>
<rect x="18.334" y="10.3579" width="1.80951" height="1.35713" fill="white"/>
<rect x="18.334" y="10.3579" width="1.80951" height="1.35713" fill="white"/>
<rect x="18.334" y="12.6191" width="1.80951" height="1.35713" fill="white"/>
<rect x="18.334" y="12.6191" width="1.80951" height="1.35713" fill="white"/>
<rect x="18.334" y="12.6191" width="1.80951" height="1.35713" fill="white"/>
<path fill-rule="evenodd" clip-rule="evenodd" d="M14.2617 9H21.0474V23.0237H14.2617V9ZM15.1664 10.3577H16.9759V11.7149H15.1664V10.3577ZM16.9759 12.6191H15.1664V13.9762H16.9759V12.6191ZM18.3336 10.3577H20.1432V11.7149H18.3336V10.3577ZM20.1432 12.6191H18.3336V13.9762H20.1432V12.6191ZM15.1664 14.8809H16.9759V16.238H15.1664V14.8809ZM16.9759 17.1423H15.1664V18.4994H16.9759V17.1423ZM18.3336 14.8809H20.1432V16.238H18.3336V14.8809ZM20.1432 17.1423H18.3336V18.4994H20.1432V17.1423Z" fill="#545454"/>
<rect x="22.4062" y="18.5" width="2.26189" height="4.52376" fill="#545454"/>
<rect x="26.4756" y="18.5" width="2.26189" height="4.52376" fill="#545454"/>
</svg>
