<svg width="48" height="40" viewBox="0 0 48 40" fill="none" xmlns="http://www.w3.org/2000/svg">
<rect y="40" width="40" height="48" rx="5" transform="rotate(-90 0 40)" fill="white"/>
<path d="M24.2462 18.1806L17 21.9104L24.2633 25.6658L31.39 21.936L24.2462 18.1806Z" fill="#D9D9D9"/>
<path d="M24.2292 28L17.0598 24.2361V21.936L24.2292 25.6402V28Z" fill="#898989"/>
<path d="M24.2292 28L31.3901 24.2361V21.936L24.2292 25.6402V28Z" fill="#545454"/>
<path d="M24.2462 13.5085L17 17.2383L24.2633 20.9937L31.39 17.2639L24.2462 13.5085Z" fill="#D9D9D9"/>
<path d="M24.2292 23.3279L17.0598 19.564V17.2639L24.2292 20.9681V23.3279Z" fill="#898989"/>
<path d="M24.2292 23.3279L31.3901 19.564V17.2639L24.2292 20.9681V23.3279Z" fill="#545454"/>
</svg>
