<svg width="30" height="29" viewBox="0 0 30 29" fill="none" xmlns="http://www.w3.org/2000/svg">
<ellipse cx="14.7377" cy="14.5" rx="14.7377" ry="14.5" fill="white"/>
<path d="M22.6683 17.0267L21.9446 16.6453L15.3193 20.1375C15.1354 20.2344 14.9403 20.2836 14.7394 20.2836C14.5385 20.2836 14.3434 20.2344 14.1596 20.1376L7.53384 16.6453L6.80999 17.0267C6.63495 17.119 6.52185 17.3272 6.52185 17.557C6.52185 17.7869 6.63495 17.9949 6.80999 18.0872L14.5461 22.1648C14.6077 22.1973 14.6736 22.2135 14.7394 22.2135C14.8052 22.2135 14.8712 22.1973 14.9327 22.1648L22.6683 18.0872C22.8433 17.9949 22.9564 17.7869 22.9564 17.557C22.9564 17.3272 22.8433 17.119 22.6683 17.0267V17.0267Z" fill="#595959"/>
<path d="M22.6683 13.9391L21.9446 13.5576L15.3193 17.0498C15.1354 17.1469 14.9403 17.1961 14.7394 17.1961C14.5385 17.1961 14.3434 17.1469 14.1596 17.05L7.53384 13.5576L6.80999 13.9392C6.63495 14.0315 6.52185 14.2395 6.52185 14.4695C6.52185 14.6992 6.63495 14.9073 6.80999 14.9997L14.5461 19.0772C14.6077 19.1098 14.6736 19.1259 14.7394 19.1259C14.8052 19.1259 14.8712 19.1098 14.9327 19.0772L22.6683 14.9997C22.8433 14.9073 22.9564 14.6992 22.9564 14.4695C22.9564 14.2395 22.8433 14.0315 22.6683 13.9391V13.9391Z" fill="#595959"/>
<path d="M6.80974 11.9117L14.5458 15.9893C14.6075 16.0217 14.6733 16.038 14.7392 16.038C14.805 16.038 14.8709 16.0217 14.9325 15.9893L22.6681 11.9117C22.8431 11.8194 22.9562 11.6112 22.9562 11.3814C22.9562 11.1515 22.8431 10.9434 22.6681 10.8512L14.932 6.77353C14.8087 6.70855 14.6686 6.7087 14.5453 6.77353L6.80974 10.8512C6.6347 10.9434 6.52161 11.1515 6.52161 11.3814C6.52161 11.6113 6.6347 11.8194 6.80974 11.9117V11.9117Z" fill="#595959"/>
</svg>
