<svg width="43" height="36" viewBox="0 0 43 36" fill="none" xmlns="http://www.w3.org/2000/svg">
<rect y="36" width="36" height="43" rx="5" transform="rotate(-90 0 36)" fill="#EAF3FF"/>
<path d="M28.5 25C28.5 25.006 28.4879 25.1387 28.144 25.3555C27.825 25.5566 27.3303 25.7562 26.6745 25.9311C25.3701 26.2789 23.5405 26.5 21.5 26.5C19.4595 26.5 17.6299 26.2789 16.3255 25.9311C15.6697 25.7562 15.175 25.5566 14.856 25.3555C14.5121 25.1387 14.5 25.006 14.5 25C14.5 24.994 14.5121 24.8613 14.856 24.6445C15.175 24.4434 15.6697 24.2438 16.3255 24.0689C17.6299 23.7211 19.4595 23.5 21.5 23.5C23.5405 23.5 25.3701 23.7211 26.6745 24.0689C27.3303 24.2438 27.825 24.4434 28.144 24.6445C28.4879 24.8613 28.5 24.994 28.5 25Z" stroke="#1F85E3"/>
<path d="M27 14.5172C27 16.4978 24.8013 22.2414 21.5013 25C18.2013 22.2414 16 16.4978 16 14.5172C16 12.0345 18.16 9 21.5013 9C24.8427 9 27 12.5366 27 14.5172Z" fill="#EAF3FF"/>
<path d="M26.5 14.5C26.5 16.2949 24.5012 21.5 21.5012 24C18.5012 21.5 16.5 16.2949 16.5 14.5C16.5 12.25 18.4636 9.5 21.5012 9.5C24.5388 9.5 26.5 12.7051 26.5 14.5Z" fill="#1F85E3"/>
<circle cx="21.5" cy="14.5" r="1.5" fill="#EAF3FF"/>
</svg>
