<svg width="23" height="23" viewBox="0 0 23 23" fill="none" xmlns="http://www.w3.org/2000/svg">
<path d="M11.5 22.439C17.8513 22.439 23 17.4159 23 11.2195C23 5.02315 17.8513 0 11.5 0C5.14873 0 0 5.02315 0 11.2195C0 17.4159 5.14873 22.439 11.5 22.439Z" fill="#AAC9DF"/>
<path d="M13.7136 11.813C14.2765 11.4512 14.74 10.9542 15.0618 10.3674C15.3836 9.7806 15.5534 9.1226 15.5558 8.45336C15.534 7.37817 15.0916 6.35436 14.3236 5.60166C13.5555 4.84896 12.5229 4.42737 11.4475 4.42737C10.3721 4.42737 9.33953 4.84896 8.57145 5.60166C7.80336 6.35436 7.36096 7.37817 7.3392 8.45336C7.3416 9.1226 7.51143 9.7806 7.8332 10.3674C8.15497 10.9542 8.61846 11.4512 9.18144 11.813C7.92907 12.256 6.84364 13.0742 6.07293 14.1562C5.30222 15.2382 4.88367 16.5314 4.87427 17.8598H5.96985C5.99503 16.4237 6.5832 15.0549 7.60772 14.0481C8.63224 13.0414 10.0111 12.4773 11.4475 12.4773C12.8839 12.4773 14.2628 13.0414 15.2873 14.0481C16.3118 15.0549 16.9 16.4237 16.9251 17.8598H18.0207C18.0113 16.5314 17.5928 15.2382 16.8221 14.1562C16.0514 13.0742 14.9659 12.256 13.7136 11.813ZM11.4478 11.4097C10.8654 11.3988 10.2993 11.2161 9.82036 10.8846C9.34145 10.5531 8.97112 10.0875 8.75582 9.54627C8.54053 9.00507 8.48987 8.41233 8.6102 7.84244C8.73054 7.27255 9.0165 6.75089 9.43222 6.34292C9.84793 5.93495 10.3749 5.65884 10.9469 5.54924C11.519 5.43964 12.1107 5.50143 12.6477 5.72685C13.1848 5.95228 13.6433 6.3313 13.9658 6.81636C14.2882 7.30142 14.4602 7.87091 14.4602 8.45336C14.4518 9.24455 14.1299 10.0001 13.5652 10.5543C13.0005 11.1085 12.239 11.4161 11.4478 11.4097Z" fill="white"/>
</svg>
