<svg width="48" height="40" viewBox="0 0 48 40" fill="none" xmlns="http://www.w3.org/2000/svg">
<rect y="40" width="40" height="48" rx="5" transform="rotate(-90 0 40)" fill="#EAF3FF"/>
<path d="M28.6467 13.1119L18.1119 23.6467C17.9627 23.7958 17.9627 24.0377 18.1119 24.1869L20.8131 26.8881C20.9623 27.0373 21.2042 27.0373 21.3533 26.8881L22.839 25.4024L21.4884 24.0518C21.3392 23.9027 21.3392 23.6608 21.4884 23.5116C21.6376 23.3624 21.8795 23.3624 22.0287 23.5116L23.3793 24.8622L24.5948 23.6467L23.2442 22.296C23.095 22.1469 23.095 21.905 23.2442 21.7558C23.3934 21.6066 23.6353 21.6066 23.7845 21.7558L25.1351 23.1064L26.3506 21.8909L25 20.5402C24.8508 20.3911 24.8508 20.1492 25 20C25.1492 19.8508 25.3911 19.8508 25.5402 20L26.8909 21.3506L28.1064 20.1351L26.7558 18.7845C26.6066 18.6353 26.6066 18.3934 26.7558 18.2442C26.905 18.095 27.1469 18.095 27.296 18.2442L28.6467 19.5948L29.8622 18.3793L28.5116 17.0287C28.3624 16.8795 28.3624 16.6376 28.5116 16.4884C28.6608 16.3392 28.9027 16.3392 29.0518 16.4884L30.4024 17.839L31.8881 16.3533C32.0373 16.2042 32.0373 15.9623 31.8881 15.8131L29.1869 13.1119C29.0377 12.9627 28.7958 12.9627 28.6467 13.1119Z" fill="#1F85E3"/>
</svg>
