<svg width="43" height="36" viewBox="0 0 43 36" fill="none" xmlns="http://www.w3.org/2000/svg">
<rect y="36" width="36" height="43" rx="5" transform="rotate(-90 0 36)" fill="#EAF3FF"/>
<path d="M23.1094 15.4219C22.8938 15.4219 22.7188 15.5969 22.7188 15.8125C22.7188 16.0281 22.8938 16.2031 23.1094 16.2031C23.325 16.2031 23.5 16.0281 23.5 15.8125C23.5 15.5969 23.325 15.4219 23.1094 15.4219Z" fill="#1F85E3"/>
<path d="M30.5422 25.3328L25.3282 20.1187C26.1776 18.8393 26.625 17.3576 26.625 15.8125C26.625 11.5047 23.1203 8 18.8125 8C14.5047 8 11 11.5047 11 15.8125C11 20.1203 14.5047 23.625 18.8125 23.625C20.3577 23.625 21.8393 23.1775 23.1187 22.3282L24.5599 23.7694C24.5601 23.7696 24.5603 23.7698 24.5605 23.77L28.3327 27.5422C28.628 27.8374 29.0203 28 29.4375 28C29.8547 28 30.247 27.8374 30.5421 27.5423C30.8374 27.2473 31 26.855 31 26.4375C31 26.02 30.8374 25.6277 30.5422 25.3328ZM22.935 21.505C22.935 21.505 22.935 21.505 22.9349 21.505C21.7292 22.3808 20.3037 22.8438 18.8125 22.8438C14.9355 22.8438 11.7812 19.6895 11.7812 15.8125C11.7812 11.9355 14.9355 8.78125 18.8125 8.78125C22.6895 8.78125 25.8438 11.9355 25.8438 15.8125C25.8438 17.3037 25.3808 18.7292 24.505 19.935C24.0668 20.5386 23.5386 21.0668 22.935 21.505ZM23.7545 21.8591C24.1588 21.5284 24.5284 21.1588 24.8591 20.7545L25.9673 21.8628C25.6303 22.2605 25.2605 22.6304 24.8628 22.9673L23.7545 21.8591ZM29.9898 26.9898C29.8421 27.1375 29.646 27.2188 29.4375 27.2188C29.229 27.2188 29.0329 27.1375 28.8852 26.9898L25.4166 23.5212C25.8122 23.1818 26.1818 22.8123 26.5212 22.4167L29.9899 25.8854C30.1375 26.0328 30.2188 26.2288 30.2188 26.4375C30.2188 26.6462 30.1375 26.8422 29.9898 26.9898Z" fill="#1F85E3"/>
<path d="M18.8125 9.5625C15.3662 9.5625 12.5625 12.3662 12.5625 15.8125C12.5625 19.2588 15.3662 22.0625 18.8125 22.0625C22.2588 22.0625 25.0625 19.2588 25.0625 15.8125C25.0625 12.3662 22.2588 9.5625 18.8125 9.5625ZM18.8125 21.2812C15.797 21.2812 13.3438 18.828 13.3438 15.8125C13.3438 12.797 15.797 10.3438 18.8125 10.3438C21.828 10.3438 24.2812 12.797 24.2812 15.8125C24.2812 18.828 21.828 21.2812 18.8125 21.2812Z" fill="#1F85E3"/>
<path d="M23.1901 14.1357C22.8537 13.2602 22.268 12.5117 21.4963 11.9711C20.7062 11.4176 19.7782 11.125 18.8125 11.125C18.5968 11.125 18.4219 11.2999 18.4219 11.5156C18.4219 11.7313 18.5968 11.9062 18.8125 11.9062C20.4179 11.9062 21.884 12.9148 22.4608 14.4159C22.5205 14.5712 22.6685 14.6665 22.8255 14.6665C22.8721 14.6665 22.9195 14.6581 22.9655 14.6404C23.1669 14.563 23.2674 14.3371 23.1901 14.1357Z" fill="#1F85E3"/>
</svg>
