<svg width="48" height="40" viewBox="0 0 48 40" fill="none" xmlns="http://www.w3.org/2000/svg">
<rect y="40" width="40" height="48" rx="5" transform="rotate(-90 0 40)" fill="#EAF3FF"/>
<path d="M24.2739 14.1718C24.2739 14.0222 24.1533 13.9 24.0031 13.9C23.8528 13.9 23.7323 14.0222 23.7323 14.1718V16.1572C23.7323 16.3069 23.8529 16.429 24.0031 16.429C24.1533 16.429 24.2739 16.3069 24.2739 16.1572V14.1718Z" fill="#1F85E3" stroke="#595959" stroke-width="0.2"/>
<path d="M24.2739 27.9171V25.9316C24.2739 25.782 24.1533 25.6598 24.0031 25.6598C23.8529 25.6598 23.7323 25.782 23.7323 25.9316V27.9171C23.7323 28.0667 23.8529 28.1889 24.0031 28.1889C24.1533 28.1889 24.2739 28.0667 24.2739 27.9171Z" fill="#1F85E3" stroke="#595959" stroke-width="0.2"/>
<path d="M20.3759 17.7803L20.3759 17.7804C20.4287 17.8334 20.4982 17.8602 20.5676 17.8602C20.637 17.8602 20.7065 17.8334 20.7593 17.7803C20.8648 17.6742 20.8648 17.5025 20.7593 17.3964L19.6857 16.3165C19.5799 16.2101 19.4082 16.2101 19.3024 16.3165C19.1969 16.4226 19.1969 16.5943 19.3024 16.7005C19.3024 16.7005 19.3024 16.7005 19.3024 16.7005L20.3759 17.7803Z" fill="#1F85E3" stroke="#595959" stroke-width="0.2"/>
<path d="M27.247 24.3083L27.247 24.3083L28.6329 25.7017L28.7038 25.7722C28.7038 25.7722 28.7039 25.7721 28.7039 25.7721C28.8093 25.666 28.8093 25.4943 28.7038 25.3882L27.6303 24.3083L27.5605 24.3777L27.6303 24.3083C27.5245 24.2019 27.3528 24.2019 27.247 24.3083Z" fill="#1F85E3" stroke="#595959" stroke-width="0.2"/>
<path d="M20.3759 24.3083L20.3759 24.3083C20.4817 24.2019 20.6534 24.2019 20.7592 24.3083L20.7593 24.3083C20.8648 24.4144 20.8648 24.5861 20.7593 24.6923L19.6857 25.7722C19.633 25.8252 19.5635 25.852 19.494 25.852C19.4247 25.852 19.3551 25.8253 19.3024 25.7721L20.3759 24.3083ZM20.3759 24.3083L19.3024 25.3882C19.3024 25.3882 19.3024 25.3882 19.3024 25.3882M20.3759 24.3083L19.3024 25.3882M19.3024 25.3882C19.1969 25.4943 19.1969 25.666 19.3023 25.7721L19.3024 25.3882Z" fill="#1F85E3" stroke="#595959" stroke-width="0.2"/>
<path d="M28.7038 16.7005C28.8093 16.5943 28.8093 16.4226 28.7038 16.3165C28.598 16.2101 28.4263 16.2101 28.3205 16.3165L27.247 17.3964C27.1414 17.5025 27.1414 17.6742 27.247 17.7803C27.2997 17.8334 27.3692 17.8602 27.4386 17.8602C27.508 17.8602 27.5776 17.8334 27.6303 17.7803L28.7038 16.7005Z" fill="#1F85E3" stroke="#595959" stroke-width="0.2"/>
<path d="M17.1708 20.7726C17.0206 20.7726 16.9 20.8947 16.9 21.0444C16.9 21.194 17.0207 21.3162 17.1708 21.3162H19.1445C19.2947 21.3162 19.4153 21.194 19.4153 21.0444C19.4153 20.8947 19.2947 20.7726 19.1445 20.7726H17.1708Z" fill="#1F85E3" stroke="#595959" stroke-width="0.2"/>
<path d="M30.8352 21.3162C30.9854 21.3162 31.106 21.1941 31.106 21.0444C31.106 20.8948 30.9854 20.7726 30.8352 20.7726H28.8615C28.7113 20.7726 28.5907 20.8948 28.5907 21.0444C28.5907 21.1941 28.7113 21.3162 28.8615 21.3162H30.8352Z" fill="#1F85E3" stroke="#595959" stroke-width="0.2"/>
<ellipse cx="23.9798" cy="20.9967" rx="2.86039" ry="2.87731" fill="#1F85E3"/>
</svg>
