<svg width="48" height="40" viewBox="0 0 48 40" fill="none" xmlns="http://www.w3.org/2000/svg">
<rect y="40" width="40" height="48" rx="5" transform="rotate(-90 0 40)" fill="#EAF3FF"/>
<path d="M31.6207 20C26.4137 25.2046 21.2069 25.2046 16 20C21.2069 14.7955 26.4137 14.7955 31.6207 20Z" fill="#EAF3FF"/>
<path d="M23.4999 24.4075C20.7792 24.4075 18.0585 23.0571 15.3568 20.3568L15 20.0001L15.3568 19.6434C20.7603 14.2423 26.2398 14.2424 31.6432 19.6434L32 20.0001L31.6432 20.3568C28.9414 23.0571 26.2207 24.4075 23.4999 24.4075ZM16.3878 20.0001C21.1693 24.5538 25.8307 24.5538 30.6122 20.0001C25.8307 15.4463 21.1693 15.4464 16.3878 20.0001Z" fill="#1F85E3"/>
<path d="M23.7316 22.8272C25.2401 22.8272 26.4631 21.5614 26.4631 20.0001C26.4631 18.4388 25.2401 17.1731 23.7316 17.1731C22.223 17.1731 21 18.4388 21 20.0001C21 21.5614 22.223 22.8272 23.7316 22.8272Z" fill="#1F85E3"/>
<path d="M23.0873 21.1253C23.6877 21.1253 24.1745 20.6215 24.1745 20C24.1745 19.3786 23.6877 18.8748 23.0873 18.8748C22.4868 18.8748 22 19.3786 22 20C22 20.6215 22.4868 21.1253 23.0873 21.1253Z" fill="#EAF3FF"/>
</svg>
