<svg width="18" height="18" viewBox="0 0 18 18" fill="none" xmlns="http://www.w3.org/2000/svg">
<path d="M15.4163 2.1628C15.4163 0.963428 14.4339 0 13.2111 0H2.20519C0.98231 0 0 0.963428 0 2.1628V12.9768C0 14.1762 0.98231 15.1396 2.20519 15.1396H6.13443C6.09433 14.4907 6.07429 13.7633 6.07429 12.9571H2.20519V2.1628H13.2311V6.13448C13.8927 6.13448 14.6545 6.13448 15.4363 6.13448V2.1628H15.4163Z" fill="#344059"/>
<path d="M10.9859 15.7097C8.35977 15.7097 6.21472 13.6059 6.21472 11.0302C6.21472 8.45452 8.35977 6.35071 10.9859 6.35071C13.6121 6.35071 15.7371 8.45452 15.7371 11.0302C15.7371 13.6059 13.6121 15.7097 10.9859 15.7097ZM10.9859 8.31689C9.46236 8.31689 8.21944 9.53592 8.21944 11.0302C8.21944 12.5245 9.46236 13.7435 10.9859 13.7435C12.5095 13.7435 13.7525 12.5245 13.7525 11.0302C13.7324 9.53592 12.5095 8.31689 10.9859 8.31689Z" fill="#344059"/>
<path d="M14.7523 12.9059L13.437 14.3898L16.6747 17.1504L17.99 15.6665L14.7523 12.9059Z" fill="#344059"/>
</svg>
