<svg width="16" height="16" viewBox="0 0 16 16" fill="none" xmlns="http://www.w3.org/2000/svg">
<path d="M15.7198 10.9162L15.0155 10.545L8.56798 13.9435C8.38898 14.0378 8.19911 14.0857 8.00363 14.0857C7.80815 14.0857 7.61829 14.0378 7.4394 13.9436L0.991427 10.545L0.286997 10.9162C0.116655 11.006 0.0065918 11.2086 0.0065918 11.4322C0.0065918 11.656 0.116655 11.8584 0.286997 11.9482L7.81547 15.9165C7.87551 15.948 7.93957 15.9638 8.00363 15.9638C8.06769 15.9638 8.13188 15.948 8.19179 15.9165L15.7198 11.9482C15.8901 11.8584 16.0002 11.656 16.0002 11.4322C16.0002 11.2086 15.8901 11.006 15.7198 10.9162Z" fill="#344059"/>
<path d="M15.7198 7.91131L15.0155 7.5401L8.56798 10.9386C8.38898 11.0331 8.19911 11.0809 8.00363 11.0809C7.80815 11.0809 7.61829 11.0331 7.4394 10.9388L0.991427 7.5401L0.286997 7.91145C0.116655 8.00125 0.0065918 8.20372 0.0065918 8.42747C0.0065918 8.65107 0.116655 8.85355 0.286997 8.94349L7.81547 12.9116C7.87551 12.9433 7.93957 12.959 8.00363 12.959C8.06769 12.959 8.13188 12.9433 8.19179 12.9116L15.7198 8.94349C15.8901 8.85355 16.0002 8.65107 16.0002 8.42747C16.0002 8.20372 15.8901 8.00125 15.7198 7.91131Z" fill="#344059"/>
<path d="M0.286753 5.93839L7.81523 9.90661C7.87526 9.93816 7.93933 9.95401 8.00339 9.95401C8.06745 9.95401 8.13163 9.93816 8.19154 9.90661L15.7195 5.93839C15.8899 5.84859 15.9999 5.64597 15.9999 5.42237C15.9999 5.19862 15.8899 4.99614 15.7195 4.90635L8.19106 0.93812C8.07111 0.874883 7.93469 0.87503 7.81474 0.93812L0.286753 4.90635C0.116411 4.99614 0.00634766 5.19862 0.00634766 5.42237C0.00634766 5.64612 0.116411 5.84859 0.286753 5.93839Z" fill="#344059"/>
</svg>
