<svg width="29" height="28" viewBox="0 0 29 28" fill="none" xmlns="http://www.w3.org/2000/svg">
<path d="M23.8326 22.6992V27.3321H4.37961V22.6992H23.8326Z" fill="#6D6E71"/>
<path d="M14.1061 10.6562C18.198 10.6562 21.5164 13.9746 21.5164 18.0663V22.6992H14.1061V10.6562Z" fill="#AB2300"/>
<path d="M6.69601 18.0663C6.69601 13.9746 10.0144 10.6562 14.1061 10.6562V12.5077C11.0363 12.5118 8.55158 14.9966 8.54751 18.0663C8.55158 14.9966 11.0363 12.5118 14.1061 12.5077V22.6992H6.69601V18.0663Z" fill="#CD2A00"/>
<path d="M14.1061 8.33981C14.3627 8.33981 14.571 8.13144 14.571 7.87502V0.464793C14.571 0.208366 14.3627 0 14.1061 0C13.8497 0 13.6413 0.208366 13.6413 0.464793V7.87502C13.6413 8.13144 13.8497 8.33981 14.1061 8.33981Z" fill="#FF5023"/>
<path d="M18.2741 9.45395C18.4385 9.45395 18.5947 9.36581 18.6749 9.22148L22.3819 2.80533C22.5101 2.58491 22.4381 2.30031 22.2177 2.1721C21.9973 2.04388 21.7127 2.11589 21.5845 2.33631L21.5804 2.34038L17.8733 8.7606C17.7451 8.98102 17.8212 9.26562 18.0416 9.39384C18.1138 9.43391 18.1939 9.45395 18.2741 9.45395Z" fill="#FF5023"/>
<path d="M21.3279 12.5078C21.408 12.5078 21.4882 12.4877 21.5603 12.4476L27.9806 8.74058C28.201 8.61237 28.2811 8.33183 28.1529 8.10734C28.0247 7.88301 27.7442 7.80677 27.5197 7.93514L27.5158 7.93905L21.0955 11.6461C20.8751 11.7743 20.7989 12.0589 20.9271 12.2794C21.0113 12.4196 21.1636 12.5078 21.3279 12.5078Z" fill="#FF5023"/>
<path d="M6.88442 12.5077C7.14084 12.5077 7.34937 12.2994 7.34937 12.0429C7.34937 11.8786 7.26107 11.7262 7.11689 11.6422L0.696678 7.9351C0.476257 7.80673 0.191652 7.8789 0.0634389 8.09932C-0.0647745 8.31974 0.00723791 8.60435 0.227658 8.73256L0.231729 8.73663L6.65194 12.4476C6.72411 12.4877 6.80426 12.5077 6.88442 12.5077Z" fill="#FF5023"/>
<path d="M9.93823 9.45399C10.1948 9.45399 10.4032 9.24562 10.3991 8.98904C10.3991 8.90889 10.3791 8.82873 10.339 8.75672L6.63193 2.33635C6.50371 2.11593 6.21911 2.03985 5.99869 2.17213C5.77827 2.30035 5.70625 2.58088 5.8304 2.8013L9.53747 9.22151C9.61762 9.36585 9.76994 9.45806 9.93823 9.45399Z" fill="#FF5023"/>
<path d="M8.54752 18.5313C8.80394 18.5313 9.01247 18.3229 9.01247 18.0663C9.01638 15.253 11.2968 12.9727 14.1102 12.9686C14.3666 12.9686 14.575 12.7603 14.575 12.5038C14.575 12.2472 14.3666 12.0389 14.1102 12.0389C10.7838 12.0429 8.09071 14.7361 8.08664 18.0624C8.08257 18.3229 8.29109 18.5313 8.54752 18.5313Z" fill="#E6E7E8"/>
</svg>
