<svg width="20" height="20" viewBox="0 0 20 20" fill="none" xmlns="http://www.w3.org/2000/svg">
<path d="M16.285 0.308522C16.0874 0.110978 15.8195 0 15.5401 0C15.2607 0 14.9928 0.110978 14.7952 0.308522L13.8675 1.23624L15.4979 2.86667C15.5291 2.89675 15.5539 2.93274 15.571 2.97252C15.5881 3.0123 15.5971 3.05509 15.5975 3.09839C15.5979 3.14169 15.5896 3.18463 15.5732 3.2247C15.5568 3.26478 15.5326 3.30119 15.502 3.3318C15.4714 3.36242 15.435 3.38663 15.3949 3.40303C15.3548 3.41943 15.3119 3.42768 15.2686 3.4273C15.2253 3.42692 15.1825 3.41793 15.1427 3.40084C15.1029 3.38375 15.0669 3.35891 15.0369 3.32776L13.4064 1.69733L10.5695 4.53428L12.7946 6.75945C12.8258 6.78953 12.8506 6.82551 12.8677 6.86529C12.8848 6.90508 12.8938 6.94787 12.8942 6.99116C12.8945 7.03446 12.8863 7.0774 12.8699 7.11748C12.8535 7.15755 12.8293 7.19396 12.7987 7.22458C12.768 7.25519 12.7316 7.27941 12.6916 7.2958C12.6515 7.3122 12.6086 7.32045 12.5653 7.32007C12.522 7.3197 12.4792 7.3107 12.4394 7.29361C12.3996 7.27652 12.3636 7.25168 12.3335 7.22053L10.1083 4.99537L7.27136 7.83233L8.90179 9.46276C8.93275 9.49289 8.95741 9.52886 8.97435 9.5686C8.99129 9.60833 9.00016 9.65104 9.00046 9.69423C9.00075 9.73742 8.99246 9.78025 8.97607 9.82021C8.95968 9.86017 8.93551 9.89648 8.90497 9.92703C8.87443 9.95757 8.83812 9.98174 8.79816 9.99814C8.7582 10.0145 8.71538 10.0228 8.67218 10.0225C8.62899 10.0223 8.58629 10.0134 8.54655 9.99645C8.50681 9.97952 8.47083 9.95486 8.44071 9.9239L6.81027 8.29347L3.97331 11.1304L6.19853 13.3556C6.25886 13.4169 6.29251 13.4996 6.29216 13.5856C6.29181 13.6716 6.25749 13.754 6.19666 13.8149C6.13583 13.8757 6.05343 13.91 5.96741 13.9104C5.88139 13.9107 5.79871 13.8771 5.73739 13.8167L3.51222 11.5915L0.308522 14.7952C0.110978 14.9927 0 15.2606 0 15.54C0 15.8194 0.110978 16.0873 0.308522 16.2849L3.71505 19.6915C3.81286 19.7893 3.92898 19.8669 4.05678 19.9198C4.18458 19.9728 4.32155 20 4.45989 20C4.59822 20 4.73519 19.9728 4.86299 19.9198C4.99079 19.8669 5.10691 19.7893 5.20472 19.6915L19.6915 5.20483C19.889 5.00727 20 4.73934 20 4.45996C20 4.18059 19.889 3.91265 19.6915 3.7151L16.285 0.308522ZM4.04021 17.2264C3.97906 17.2875 3.89612 17.3219 3.80964 17.3219C3.72316 17.3219 3.64022 17.2875 3.57907 17.2264L2.77363 16.4209C2.7133 16.3596 2.67965 16.2769 2.68 16.1909C2.68035 16.1049 2.71468 16.0225 2.7755 15.9616C2.83633 15.9008 2.91873 15.8665 3.00475 15.8661C3.09078 15.8658 3.17345 15.8994 3.23478 15.9598L4.04021 16.7652C4.10136 16.8264 4.13571 16.9093 4.13571 16.9958C4.13571 17.0823 4.10136 17.1652 4.04021 17.2264Z" fill="#4C7DA2"/>
</svg>
