<svg width="13" height="17" viewBox="0 0 13 17" fill="none" xmlns="http://www.w3.org/2000/svg">
<path d="M6.68982 0C5.87234 0 5.06287 0.161013 4.30762 0.473847C3.55237 0.786681 2.86613 1.24521 2.28809 1.82326C1.71005 2.4013 1.25152 3.08753 0.938691 3.84278C0.625857 4.59803 0.464844 5.4075 0.464844 6.22497C0.464844 9.90076 6.68982 17 6.68982 17C6.68982 17 12.9148 10.1738 12.9148 6.22497C12.9148 5.4075 12.7538 4.59803 12.4409 3.84278C12.1281 3.08753 11.6696 2.4013 11.0915 1.82326C10.5135 1.24521 9.82726 0.786681 9.07201 0.473847C8.31676 0.161013 7.50729 0 6.68982 0ZM6.68982 8.66406C6.157 8.66412 5.63613 8.50617 5.19307 8.2102C4.75002 7.91422 4.40468 7.49352 4.20074 7.00128C3.9968 6.50904 3.94341 5.96737 4.04732 5.44478C4.15123 4.92219 4.40777 4.44216 4.78451 4.06538C5.16125 3.68859 5.64126 3.43199 6.16383 3.32802C6.68641 3.22405 7.22808 3.27738 7.72034 3.48127C8.21261 3.68515 8.63336 4.03044 8.92939 4.47346C9.22541 4.91648 9.38341 5.43733 9.38341 5.97014C9.38341 6.68453 9.09963 7.36966 8.59448 7.87481C8.08933 8.37996 7.4042 8.66374 6.68982 8.66374V8.66406Z" fill="#3C5165"/>
</svg>
