<svg width="22" height="18" viewBox="0 0 22 18" fill="none" xmlns="http://www.w3.org/2000/svg">
<path d="M11 0.726624C5.21026 0.726624 0.5 5.16267 0.5 10.6153C0.5 12.9498 1.38039 15.2161 2.97893 16.9966C3.13681 17.1725 3.36292 17.2733 3.59924 17.2733H18.4008C18.6371 17.2733 18.8633 17.1725 19.0212 16.9966C20.6197 15.2161 21.5 12.9498 21.5 10.6153C21.5 5.16262 16.7898 0.726624 11 0.726624ZM17.0351 12.5442C16.95 12.5018 16.8592 12.4803 16.7652 12.4803C16.5332 12.4803 16.3248 12.6092 16.2214 12.8166C16.1492 12.9617 16.1377 13.1261 16.1892 13.2798C16.2407 13.4335 16.3489 13.558 16.494 13.6301L18.6583 14.7079C18.4899 14.9818 18.3048 15.2469 18.103 15.501L18.0195 15.606H3.9805L3.89703 15.501C3.67467 15.2211 3.51198 14.9851 3.34143 14.7075L5.50611 13.6301C5.65115 13.5579 5.75939 13.4334 5.81084 13.2798C5.86232 13.1261 5.85086 12.9616 5.77862 12.8166C5.67527 12.6091 5.46687 12.4802 5.23485 12.4802C5.14084 12.4802 5.05011 12.5017 4.96511 12.544L2.78606 13.6294C2.38141 12.6723 2.16727 11.6457 2.16727 10.6152C2.16727 10.2361 2.1956 9.86308 2.24922 9.49749L4.35363 9.8176C4.38409 9.82232 4.4151 9.82463 4.44598 9.82463C4.74257 9.82463 4.99992 9.60301 5.04466 9.3091C5.09494 8.97844 4.86681 8.66845 4.53611 8.61807L2.52066 8.3115C2.95189 6.93878 3.75814 5.71383 4.82886 4.73934L6.28653 6.23833C6.40175 6.35688 6.55622 6.42214 6.72154 6.42214C6.8804 6.42214 7.03052 6.36113 7.14436 6.25039C7.2606 6.13739 7.32581 5.98592 7.32808 5.82388C7.33034 5.66183 7.26938 5.50862 7.15642 5.39242L5.78616 3.98333C7.09541 3.08917 8.67778 2.52243 10.3933 2.41354V4.47159C10.3933 4.80613 10.6655 5.07832 11 5.07832C11.3345 5.07832 11.6066 4.80613 11.6066 4.47159V2.41358C13.3221 2.52248 14.9046 3.08922 16.2138 3.98338L14.8435 5.39251C14.7306 5.50871 14.6696 5.66193 14.6719 5.82397C14.6742 5.98597 14.7394 6.13743 14.8556 6.25039C14.9695 6.36118 15.1197 6.42219 15.2785 6.42219C15.4437 6.42219 15.5982 6.35693 15.7135 6.23842L17.1711 4.73943C18.2418 5.71388 19.0481 6.93883 19.4792 8.31154L17.4638 8.61816C17.1332 8.6685 16.905 8.97849 16.9553 9.30914C17 9.60301 17.2574 9.82467 17.554 9.82467C17.5849 9.82467 17.6159 9.82232 17.6461 9.81774L19.7508 9.49753C19.8044 9.86313 19.8327 10.2361 19.8327 10.6153C19.8327 11.646 19.6185 12.6729 19.2136 13.6301L17.0351 12.5442Z" fill="#344059"/>
<path d="M11.3457 10.3494L9.44186 6.12321C9.4004 6.03095 9.29788 5.97817 9.19593 6.00276C9.0807 6.03053 9.00975 6.14645 9.03753 6.26168L10.1231 10.7679C9.85593 11.0899 9.75777 11.5392 9.90317 11.964C10.1253 12.6126 10.8312 12.9585 11.4798 12.7365C12.1286 12.5143 12.4744 11.8084 12.2524 11.1597C12.107 10.7349 11.7541 10.44 11.3457 10.3494Z" fill="#344059"/>
</svg>
