<svg width="8" height="9" viewBox="0 0 8 9" fill="none" xmlns="http://www.w3.org/2000/svg">
<path d="M1.3862 5.75487C1.13925 5.60831 0.933719 5.39511 0.790685 5.13713C0.64765 4.87914 0.572266 4.58567 0.572266 4.28682C0.572266 3.98797 0.64765 3.6945 0.790685 3.43652C0.933719 3.17853 1.13925 2.96533 1.3862 2.81877L5.04963 0.645754C5.29265 0.501559 5.56722 0.426972 5.84604 0.429412C6.12486 0.431851 6.39822 0.511231 6.63893 0.659658C6.87964 0.808084 7.07932 1.02039 7.2181 1.27545C7.35688 1.53051 7.42993 1.81945 7.42999 2.11352V6.45956C7.43002 6.75368 7.35704 7.04269 7.2183 7.29783C7.07955 7.55297 6.87989 7.76535 6.63916 7.91384C6.39844 8.06233 6.12504 8.14176 5.84617 8.14423C5.5673 8.14669 5.29269 8.0721 5.04963 7.92789L1.3862 5.75487Z" fill="#4C7DA2"/>
</svg>
