<svg width="7" height="9" viewBox="0 0 7 9" fill="none" xmlns="http://www.w3.org/2000/svg">
<path d="M6.04397 2.81874C6.29092 2.96529 6.49646 3.1785 6.63949 3.43648C6.78253 3.69447 6.85791 3.98794 6.85791 4.28679C6.85791 4.58564 6.78253 4.87911 6.63949 5.13709C6.49646 5.39508 6.29092 5.60828 6.04397 5.75484L2.38054 7.92785C2.13753 8.07205 1.86296 8.14664 1.58414 8.1442C1.30531 8.14176 1.03195 8.06238 0.791244 7.91395C0.550533 7.76552 0.350859 7.55322 0.212079 7.29816C0.073298 7.0431 0.000247002 6.75416 0.000190735 6.46008V2.11405C0.000154018 1.81993 0.0731373 1.53092 0.21188 1.27578C0.350622 1.02064 0.550288 0.80826 0.791015 0.659767C1.03174 0.511274 1.30514 0.431845 1.584 0.42938C1.86287 0.426916 2.13749 0.501504 2.38054 0.645722L6.04397 2.81874Z" fill="#4C7DA2"/>
</svg>
