<svg width="29" height="16" viewBox="0 0 29 16" fill="none" xmlns="http://www.w3.org/2000/svg">
<path d="M28.8185 7.37701L28.4935 6.966C27.3966 5.65823 26.1432 4.49015 24.7615 3.48801C21.9546 1.31065 18.5248 0.0883997 14.9735 0C11.4222 0.0884695 7.99238 1.31071 5.18547 3.48801C3.80388 4.48992 2.55051 5.65765 1.45348 6.965L1.12848 7.37601C1.04402 7.48218 0.998047 7.61384 0.998047 7.7495C0.998047 7.88517 1.04402 8.01683 1.12848 8.123L1.45348 8.534C2.55054 9.84162 3.8039 11.0097 5.18547 12.012C7.99234 14.1894 11.4222 15.4116 14.9735 15.5C18.5248 15.4117 21.9546 14.1894 24.7615 12.012C26.1435 11.0087 27.3969 9.83929 28.4935 8.53001L28.8185 8.119C28.9017 8.01324 28.9469 7.88257 28.9469 7.748C28.9469 7.61343 28.9017 7.48277 28.8185 7.37701ZM14.9735 13.708C13.7951 13.708 12.6432 13.3586 11.6634 12.7039C10.6836 12.0492 9.91994 11.1187 9.469 10.03C9.01805 8.94135 8.90006 7.74339 9.12996 6.58765C9.35985 5.43192 9.92729 4.37031 10.7605 3.53706C11.5938 2.70382 12.6554 2.13638 13.8111 1.90649C14.9669 1.6766 16.1648 1.79458 17.2535 2.24553C18.3422 2.69648 19.2727 3.46013 19.9274 4.43992C20.582 5.41971 20.9315 6.57162 20.9315 7.75C20.9315 9.33016 20.3038 10.8456 19.1864 11.9629C18.0691 13.0803 16.5536 13.708 14.9735 13.708Z" fill="#408BC5"/>
<path d="M14.9735 3.6731C14.1671 3.6731 13.3789 3.9122 12.7084 4.36019C12.038 4.80818 11.5154 5.44492 11.2068 6.1899C10.8983 6.93487 10.8175 7.75462 10.9748 8.54548C11.1321 9.33634 11.5204 10.0628 12.0906 10.633C12.6608 11.2031 13.3872 11.5914 14.1781 11.7488C14.969 11.9061 15.7887 11.8253 16.5337 11.5167C17.2787 11.2082 17.9154 10.6856 18.3634 10.0152C18.8114 9.34469 19.0505 8.55645 19.0505 7.75009C19.0505 6.6688 18.6209 5.6318 17.8564 4.86722C17.0918 4.10263 16.0548 3.6731 14.9735 3.6731ZM18.0875 7.75009C18.0864 8.57565 17.758 9.36709 17.1742 9.95085C16.5905 10.5346 15.799 10.863 14.9735 10.8641C14.8072 10.8641 14.6477 10.798 14.5301 10.6805C14.4125 10.5629 14.3465 10.4034 14.3465 10.2371C14.3465 10.0708 14.4125 9.91132 14.5301 9.79374C14.6477 9.67615 14.8072 9.61009 14.9735 9.61009C15.4666 9.60956 15.9394 9.41343 16.2881 9.06473C16.6368 8.71602 16.833 8.24323 16.8335 7.75009C16.8335 7.5838 16.8995 7.42433 17.0171 7.30674C17.1347 7.18915 17.2942 7.12309 17.4605 7.12309C17.6268 7.12309 17.7863 7.18915 17.9038 7.30674C18.0214 7.42433 18.0875 7.5838 18.0875 7.75009Z" fill="#408BC5"/>
</svg>
