<svg width="27" height="27" viewBox="0 0 27 27" fill="none" xmlns="http://www.w3.org/2000/svg">
<rect width="26.4" height="26.5714" rx="3" fill="#ACACAC"/>
<path d="M13.8529 13.2875L16.754 10.3676C16.9342 10.1864 16.9342 9.89227 16.754 9.71101C16.5737 9.5296 16.2818 9.5296 16.1016 9.71101L13.2005 12.6309L10.2993 9.71101C10.119 9.5296 9.82714 9.5296 9.6469 9.71101C9.46666 9.89227 9.46666 10.1864 9.6469 10.3676L12.5481 13.2875L9.6469 16.2075C9.46666 16.3887 9.46666 16.6828 9.6469 16.8641C9.73702 16.9546 9.85513 17 9.97309 17C10.091 17 10.2092 16.9546 10.2993 16.8639L13.2005 13.944L16.1016 16.8639C16.1917 16.9546 16.3098 17 16.4278 17C16.5458 17 16.6639 16.9546 16.754 16.8639C16.9342 16.6827 16.9342 16.3886 16.754 16.2073L13.8529 13.2875Z" fill="white"/>
</svg>
