<svg width="104" height="30" viewBox="0 0 104 30" fill="none" xmlns="http://www.w3.org/2000/svg">
<rect width="104" height="30" rx="3" fill="#1F85E3"/>
<path d="M31.588 13.684L30.88 13.924V12.412H31.612V11.596H32.836V12.904H31.792V14.02H35.056V12.904H34.048V11.596H35.248V10.468H34.048V8.872H32.836V10.468H31.552V11.104H30.88V8.848H29.656V11.104H28.48V12.412H29.656V14.332C29.14 14.512 28.672 14.656 28.276 14.764L28.612 16.12L29.656 15.76V18.604C29.656 18.76 29.596 18.808 29.452 18.808C29.32 18.808 28.888 18.808 28.468 18.796C28.636 19.156 28.78 19.708 28.828 20.044C29.572 20.044 30.064 19.996 30.412 19.78C30.76 19.576 30.88 19.228 30.88 18.604V15.316C31.204 15.208 31.516 15.088 31.828 14.968L31.588 13.684ZM33.88 16V17.608H33.016V16H33.88ZM34.996 18.688V14.92H31.9V19.396H33.016V18.688H34.996ZM38.056 13H36.652V12.34H38.056V13ZM38.056 14.74H36.652V14.056H38.056V14.74ZM38.056 16.468H36.652V15.796H38.056V16.468ZM39.256 17.608V11.2H37.708C37.792 10.936 37.888 10.636 37.972 10.336H39.472V9.232H35.188V10.336H36.724C36.7 10.624 36.664 10.924 36.616 11.2H35.5V17.608H36.148C35.8 18.16 35.176 18.844 34.576 19.204C34.816 19.432 35.176 19.804 35.356 20.056C36.064 19.624 36.832 18.868 37.276 18.16L36.34 17.608H38.524L37.54 18.1C38.008 18.688 38.488 19.516 38.668 20.044L39.748 19.492C39.544 18.952 39.04 18.184 38.56 17.608H39.256ZM45.808 10.828H46.228V11.764H49.768C49.564 13.108 49.204 14.308 48.736 15.34C48.232 14.284 47.872 13.072 47.632 11.788L46.264 12.064C46.636 13.876 47.152 15.484 47.884 16.816C47.296 17.632 46.6 18.28 45.808 18.724V10.828ZM42.724 15.724H44.428V16.804C43.852 16.876 43.276 16.96 42.724 17.032V15.724ZM42.724 13.252H44.428V14.452H42.724V13.252ZM44.428 10.828V11.968H42.724V10.828H44.428ZM50.404 10.324L50.164 10.36H46.576V9.508H40.552V10.828H41.368V17.2C40.96 17.248 40.588 17.284 40.264 17.32L40.54 18.748C41.644 18.58 43.048 18.364 44.428 18.124V20.044H45.808V18.916C46.096 19.204 46.42 19.648 46.6 19.96C47.416 19.468 48.124 18.868 48.736 18.124C49.312 18.856 49.984 19.468 50.8 19.96C51.016 19.588 51.46 19.048 51.784 18.784C50.92 18.316 50.2 17.644 49.612 16.84C50.512 15.232 51.088 13.168 51.34 10.552L50.404 10.324ZM53.404 16.36C53.152 17.104 52.756 17.92 52.348 18.484C52.612 18.64 53.068 18.952 53.284 19.132C53.704 18.52 54.196 17.536 54.496 16.672L53.404 16.36ZM56.224 11.188C56.104 11.632 55.888 12.244 55.708 12.676H53.98L54.844 12.436C54.784 12.1 54.628 11.584 54.448 11.188H56.224ZM58.036 15.976V14.776H56.176V13.852H58.228V12.676H56.98C57.16 12.304 57.34 11.836 57.52 11.38L56.548 11.188H58.048V10.024H56.332C56.188 9.616 55.972 9.124 55.792 8.728L54.364 9.076C54.484 9.364 54.616 9.7 54.724 10.024H52.672V11.188H54.292L53.308 11.428C53.452 11.8 53.596 12.316 53.656 12.676H52.492V13.852H54.796V14.776H52.564V15.976H54.796V19.96H56.176V15.976H58.036ZM63.58 12.784H59.956V10.9C61.132 10.684 62.38 10.396 63.364 10L62.272 8.956C61.396 9.364 59.944 9.736 58.636 9.976V14.248C58.636 15.352 58.6 16.648 58.264 17.8C58.06 17.344 57.688 16.708 57.364 16.228L56.428 16.732C56.764 17.284 57.172 18.052 57.364 18.532L58.216 18.004C58.084 18.424 57.904 18.82 57.676 19.168C57.976 19.312 58.54 19.768 58.78 20.02C59.8 18.484 59.956 16.012 59.956 14.248V14.104H61.072V19.996H62.464V14.104H63.58V12.784ZM73.468 10.696H70.372V10.12H73.468V10.696ZM73.468 12.208H70.372V11.632H73.468V12.208ZM74.788 9.136H69.112V13.192H74.788V9.136ZM75.604 14.848V13.648H68.056V14.848H69.412C69.112 15.316 68.74 15.748 68.308 16.12L68.056 15.1L67.096 15.52V12.688H68.224V11.344H67.096V8.98H65.776V11.344H64.576V12.688H65.776V16.072C65.212 16.3 64.708 16.504 64.3 16.66L64.828 18.1C65.56 17.74 66.424 17.308 67.288 16.876C67.588 17.068 68.044 17.488 68.224 17.716C68.716 17.404 69.184 17.008 69.628 16.54H70.336C69.7 17.428 68.776 18.268 67.888 18.712C68.224 18.916 68.596 19.276 68.824 19.552C69.868 18.892 70.984 17.692 71.632 16.54H72.34C71.824 17.656 71.02 18.724 70.108 19.3C70.468 19.492 70.876 19.816 71.116 20.092C72.088 19.336 73.024 17.884 73.516 16.54H73.984C73.852 17.992 73.708 18.604 73.54 18.784C73.444 18.892 73.348 18.916 73.18 18.916C73.024 18.916 72.712 18.916 72.328 18.88C72.508 19.18 72.628 19.66 72.652 19.996C73.132 20.02 73.588 20.008 73.864 19.972C74.164 19.936 74.428 19.84 74.656 19.564C74.98 19.216 75.172 18.256 75.34 15.916C75.352 15.748 75.364 15.424 75.364 15.424H70.492C70.612 15.232 70.732 15.04 70.828 14.848H75.604ZM79.276 11.404H84.628V11.92H79.276V11.404ZM79.276 10.084H84.628V10.576H79.276V10.084ZM87.256 13.3H82.744C82.66 13.132 82.552 12.964 82.444 12.808H86.056V9.208H77.908V12.808H81.568L81.016 12.976C81.088 13.072 81.16 13.18 81.22 13.3H76.672V14.428H87.256V13.3ZM79.24 17.596C78.592 18.112 77.428 18.592 76.372 18.892C76.684 19.12 77.188 19.612 77.416 19.888C78.46 19.48 79.744 18.808 80.548 18.124L79.24 17.596ZM79.564 15.832H84.436V16.504H79.564V15.832ZM85.876 17.476V14.86H78.196V17.476H81.304V18.76C81.304 18.892 81.244 18.928 81.076 18.94C80.92 18.952 80.284 18.952 79.792 18.928C79.96 19.24 80.116 19.672 80.188 20.02C81.028 20.02 81.652 20.02 82.12 19.864C82.588 19.708 82.732 19.432 82.732 18.82V17.476H85.876ZM83.248 18.4C84.28 18.808 85.648 19.456 86.32 19.9L87.316 19.024C86.572 18.568 85.18 17.968 84.172 17.632L83.248 18.4Z" fill="white"/>
<rect x="11" y="14.3333" width="12" height="1.33333" fill="white"/>
<rect x="17.6665" y="9" width="12" height="1.33333" transform="rotate(90 17.6665 9)" fill="white"/>
</svg>
