<svg width="27" height="27" viewBox="0 0 27 27" fill="none" xmlns="http://www.w3.org/2000/svg">
<rect width="26.4" height="26.5714" rx="3" fill="#DFE8EC"/>
<path d="M18.7999 5.71436C18.4961 5.71436 18.2499 5.9622 18.2499 6.26794V8.29011C15.4183 5.5309 10.9005 5.60453 8.15905 8.4545C6.86709 9.79763 6.14634 11.5949 6.14992 13.4643C6.14992 13.7701 6.39616 14.0179 6.69993 14.0179C7.00369 14.0179 7.2499 13.7701 7.2499 13.4643C7.25058 10.1013 9.95977 7.37559 13.3011 7.37627C14.9981 7.37659 16.6168 8.09423 17.7626 9.35407L15.3261 10.1717C15.0376 10.2683 14.8814 10.5821 14.9774 10.8725C15.0734 11.1629 15.3852 11.3201 15.6737 11.2234L18.9737 10.1163C19.199 10.0408 19.3507 9.82829 19.3499 9.58933V6.2679C19.3499 5.9622 19.1037 5.71436 18.7999 5.71436Z" fill="#595959"/>
<path d="M19.9 12.9106C19.5963 12.9106 19.35 13.1585 19.35 13.4642C19.3494 16.8272 16.6402 19.5529 13.2988 19.5523C11.6019 19.5519 9.9831 18.8343 8.83732 17.5745L11.2738 16.7569C11.5624 16.6602 11.7185 16.3465 11.6225 16.0561C11.5265 15.7656 11.2148 15.6085 10.9262 15.7051L7.62622 16.8122C7.40095 16.8877 7.24926 17.1003 7.25 17.3392V20.6606C7.25 20.9664 7.49625 21.2142 7.80001 21.2142C8.10378 21.2142 8.35002 20.9664 8.35002 20.6606V18.6384C11.1816 21.3976 15.6995 21.324 18.4409 18.474C19.7328 17.1309 20.4536 15.3337 20.45 13.4642C20.4501 13.1585 20.2038 12.9106 19.9 12.9106Z" fill="#595959"/>
</svg>
