<svg width="71" height="17" viewBox="0 0 71 17" fill="none" xmlns="http://www.w3.org/2000/svg">
<path d="M31.468 5.696H28.372V5.12H31.468V5.696ZM31.468 7.208H28.372V6.632H31.468V7.208ZM32.788 4.136H27.112V8.192H32.788V4.136ZM33.604 9.848V8.648H26.056V9.848H27.412C27.112 10.316 26.74 10.748 26.308 11.12L26.056 10.1L25.096 10.52V7.688H26.224V6.344H25.096V3.98H23.776V6.344H22.576V7.688H23.776V11.072C23.212 11.3 22.708 11.504 22.3 11.66L22.828 13.1C23.56 12.74 24.424 12.308 25.288 11.876C25.588 12.068 26.044 12.488 26.224 12.716C26.716 12.404 27.184 12.008 27.628 11.54H28.336C27.7 12.428 26.776 13.268 25.888 13.712C26.224 13.916 26.596 14.276 26.824 14.552C27.868 13.892 28.984 12.692 29.632 11.54H30.34C29.824 12.656 29.02 13.724 28.108 14.3C28.468 14.492 28.876 14.816 29.116 15.092C30.088 14.336 31.024 12.884 31.516 11.54H31.984C31.852 12.992 31.708 13.604 31.54 13.784C31.444 13.892 31.348 13.916 31.18 13.916C31.024 13.916 30.712 13.916 30.328 13.88C30.508 14.18 30.628 14.66 30.652 14.996C31.132 15.02 31.588 15.008 31.864 14.972C32.164 14.936 32.428 14.84 32.656 14.564C32.98 14.216 33.172 13.256 33.34 10.916C33.352 10.748 33.364 10.424 33.364 10.424H28.492C28.612 10.232 28.732 10.04 28.828 9.848H33.604ZM37.276 6.404H42.628V6.92H37.276V6.404ZM37.276 5.084H42.628V5.576H37.276V5.084ZM45.256 8.3H40.744C40.66 8.132 40.552 7.964 40.444 7.808H44.056V4.208H35.908V7.808H39.568L39.016 7.976C39.088 8.072 39.16 8.18 39.22 8.3H34.672V9.428H45.256V8.3ZM37.24 12.596C36.592 13.112 35.428 13.592 34.372 13.892C34.684 14.12 35.188 14.612 35.416 14.888C36.46 14.48 37.744 13.808 38.548 13.124L37.24 12.596ZM37.564 10.832H42.436V11.504H37.564V10.832ZM43.876 12.476V9.86H36.196V12.476H39.304V13.76C39.304 13.892 39.244 13.928 39.076 13.94C38.92 13.952 38.284 13.952 37.792 13.928C37.96 14.24 38.116 14.672 38.188 15.02C39.028 15.02 39.652 15.02 40.12 14.864C40.588 14.708 40.732 14.432 40.732 13.82V12.476H43.876ZM41.248 13.4C42.28 13.808 43.648 14.456 44.32 14.9L45.316 14.024C44.572 13.568 43.18 12.968 42.172 12.632L41.248 13.4ZM50.836 8.324C50.68 9.032 50.476 9.692 50.236 10.28C49.792 9.956 49.144 9.56 48.616 9.236C48.772 8.948 48.928 8.636 49.06 8.324H50.836ZM46.684 5.696H48.52C48.112 7.316 47.344 9.14 46.192 10.232C46.504 10.46 46.96 10.892 47.212 11.156C47.476 10.904 47.716 10.616 47.932 10.316C48.496 10.688 49.168 11.156 49.6 11.528C48.916 12.632 48.016 13.472 46.948 14.036C47.272 14.24 47.8 14.768 48.016 15.08C50.224 13.796 51.82 11.216 52.42 7.268L51.52 6.98L51.28 7.016H49.576C49.732 6.572 49.876 6.128 49.996 5.696H52.612V4.364H46.684V5.696ZM54.34 5.168H52.936V11.756H54.34V5.168ZM55.732 4.064V13.34C55.732 13.544 55.636 13.616 55.408 13.628C55.18 13.628 54.436 13.628 53.716 13.604C53.908 14 54.124 14.636 54.184 15.032C55.264 15.044 56.008 14.996 56.5 14.756C56.98 14.54 57.148 14.156 57.148 13.352V4.064H55.732ZM67.948 9.788C67.492 10.22 66.808 10.76 66.172 11.192C65.8 10.7 65.476 10.16 65.248 9.56H69.28V8.348H64.696V7.676H68.404V6.536H64.696V5.912H68.872V4.7H64.696V3.836H63.256V4.7H59.224V5.912H63.256V6.536H59.812V7.676H63.256V8.348H58.708V9.56H62.116C61.06 10.388 59.632 11.12 58.288 11.528C58.588 11.816 59.02 12.356 59.212 12.68C59.764 12.488 60.304 12.236 60.856 11.936V12.824C60.856 13.352 60.52 13.64 60.256 13.772C60.472 14.06 60.76 14.696 60.844 15.032C61.204 14.816 61.744 14.648 65.176 13.628C65.08 13.316 64.972 12.74 64.936 12.356L62.344 13.064V11.012C62.908 10.604 63.436 10.16 63.892 9.692C64.792 12.176 66.28 13.916 68.764 14.768C68.968 14.384 69.388 13.796 69.7 13.508C68.62 13.208 67.72 12.704 66.988 12.068C67.672 11.66 68.464 11.168 69.136 10.664L67.948 9.788Z" fill="#595959"/>
<rect y="4" width="10.3303" height="7.57558" fill="#8B8B8B"/>
<rect x="0.688965" y="4.68848" width="8.95296" height="6.19821" fill="#8B8B8B"/>
<path fill-rule="evenodd" clip-rule="evenodd" d="M5.37474 7.66068L4.03378 5.37744L1.37744 9.90037H6.69012L6.69011 9.90037H8.60874L6.32128 6.41719L5.37474 7.66068Z" fill="white"/>
<rect x="4.21777" y="8.46094" width="10.3303" height="7.57558" fill="#5F5F5F"/>
<rect x="4.90625" y="9.1499" width="8.95296" height="6.19821" fill="white"/>
<path fill-rule="evenodd" clip-rule="evenodd" d="M9.59292 12.1215L8.25204 9.83838L5.5957 14.3613H10.9084L10.9084 14.3613H12.8268L10.5393 10.8781L9.59292 12.1215Z" fill="#5F5F5F"/>
</svg>
