<svg width="72" height="17" viewBox="0 0 72 17" fill="none" xmlns="http://www.w3.org/2000/svg">
<path d="M31.468 5.696H28.372V5.12H31.468V5.696ZM31.468 7.208H28.372V6.632H31.468V7.208ZM32.788 4.136H27.112V8.192H32.788V4.136ZM33.604 9.848V8.648H26.056V9.848H27.412C27.112 10.316 26.74 10.748 26.308 11.12L26.056 10.1L25.096 10.52V7.688H26.224V6.344H25.096V3.98H23.776V6.344H22.576V7.688H23.776V11.072C23.212 11.3 22.708 11.504 22.3 11.66L22.828 13.1C23.56 12.74 24.424 12.308 25.288 11.876C25.588 12.068 26.044 12.488 26.224 12.716C26.716 12.404 27.184 12.008 27.628 11.54H28.336C27.7 12.428 26.776 13.268 25.888 13.712C26.224 13.916 26.596 14.276 26.824 14.552C27.868 13.892 28.984 12.692 29.632 11.54H30.34C29.824 12.656 29.02 13.724 28.108 14.3C28.468 14.492 28.876 14.816 29.116 15.092C30.088 14.336 31.024 12.884 31.516 11.54H31.984C31.852 12.992 31.708 13.604 31.54 13.784C31.444 13.892 31.348 13.916 31.18 13.916C31.024 13.916 30.712 13.916 30.328 13.88C30.508 14.18 30.628 14.66 30.652 14.996C31.132 15.02 31.588 15.008 31.864 14.972C32.164 14.936 32.428 14.84 32.656 14.564C32.98 14.216 33.172 13.256 33.34 10.916C33.352 10.748 33.364 10.424 33.364 10.424H28.492C28.612 10.232 28.732 10.04 28.828 9.848H33.604ZM37.276 6.404H42.628V6.92H37.276V6.404ZM37.276 5.084H42.628V5.576H37.276V5.084ZM45.256 8.3H40.744C40.66 8.132 40.552 7.964 40.444 7.808H44.056V4.208H35.908V7.808H39.568L39.016 7.976C39.088 8.072 39.16 8.18 39.22 8.3H34.672V9.428H45.256V8.3ZM37.24 12.596C36.592 13.112 35.428 13.592 34.372 13.892C34.684 14.12 35.188 14.612 35.416 14.888C36.46 14.48 37.744 13.808 38.548 13.124L37.24 12.596ZM37.564 10.832H42.436V11.504H37.564V10.832ZM43.876 12.476V9.86H36.196V12.476H39.304V13.76C39.304 13.892 39.244 13.928 39.076 13.94C38.92 13.952 38.284 13.952 37.792 13.928C37.96 14.24 38.116 14.672 38.188 15.02C39.028 15.02 39.652 15.02 40.12 14.864C40.588 14.708 40.732 14.432 40.732 13.82V12.476H43.876ZM41.248 13.4C42.28 13.808 43.648 14.456 44.32 14.9L45.316 14.024C44.572 13.568 43.18 12.968 42.172 12.632L41.248 13.4ZM54.868 13.004V13.676H49.804V13.004H54.868ZM54.268 9.752V10.388H49.804V9.752H54.268ZM49.804 11.408H55.66V8.732H48.352V15.056H49.804V14.732H54.868V15.056H56.296V11.96H49.804V11.408ZM52.816 7.172C52.708 6.896 52.54 6.56 52.372 6.308C52.492 6.404 52.612 6.5 52.696 6.584C52.984 6.344 53.284 6.008 53.536 5.648H54.604L54.088 6.092C54.472 6.404 54.976 6.836 55.276 7.172H52.816ZM47.416 7.172C47.812 6.764 48.244 6.248 48.616 5.66H49.324L48.868 6.056C49.252 6.38 49.732 6.848 49.96 7.172H47.416ZM51.064 6.488C51.172 6.692 51.28 6.944 51.376 7.172H49.996L50.872 6.38C50.704 6.176 50.428 5.9 50.152 5.66H51.748L51.64 5.744C51.82 5.852 52.084 6.056 52.3 6.248L51.064 6.488ZM57.52 4.568H54.184C54.268 4.4 54.34 4.232 54.412 4.064L53.116 3.728C52.852 4.412 52.396 5.084 51.856 5.564V4.568H49.216C49.3 4.412 49.372 4.244 49.432 4.088L48.172 3.728C47.8 4.676 47.14 5.624 46.42 6.248C46.684 6.452 47.128 6.92 47.344 7.172H46.912V9.26H48.292V8.24H55.696V9.26H57.16V7.172H55.564L56.356 6.464C56.152 6.236 55.792 5.924 55.432 5.648H57.52V4.568ZM62.308 11.3C61.924 11.432 61.528 11.552 61.132 11.672V9.272H62.212V7.964H61.132V5.852H62.416V4.52H58.456V5.852H59.776V7.964H58.564V9.272H59.776V12.092C59.224 12.248 58.732 12.38 58.312 12.488L58.636 13.94C59.788 13.568 61.228 13.112 62.548 12.644L62.308 11.3ZM64.156 7.676H65.392V8.708H64.156V7.676ZM64.156 5.552H65.392V6.56H64.156V5.552ZM67.78 6.56H66.592V5.552H67.78V6.56ZM67.78 8.708H66.592V7.676H67.78V8.708ZM66.724 13.376V12.236H69.268V10.952H66.724V9.92H69.136V4.34H62.872V9.92H65.272V10.952H62.788V12.236H65.272V13.376H61.96V14.672H69.676V13.376H66.724Z" fill="#595959"/>
<rect y="4" width="10.3303" height="7.57558" fill="#8B8B8B"/>
<rect x="0.688965" y="4.68848" width="8.95296" height="6.19821" fill="#8B8B8B"/>
<path fill-rule="evenodd" clip-rule="evenodd" d="M5.37474 7.66068L4.03378 5.37744L1.37744 9.90037H6.69012L6.69011 9.90037H8.60874L6.32128 6.41719L5.37474 7.66068Z" fill="white"/>
<rect x="4.21777" y="8.46094" width="10.3303" height="7.57558" fill="#5F5F5F"/>
<rect x="4.90625" y="9.14966" width="8.95296" height="6.19821" fill="white"/>
<path fill-rule="evenodd" clip-rule="evenodd" d="M9.59292 12.1212L8.25204 9.83813L5.5957 14.3611H10.9084L10.9084 14.3611H12.8268L10.5393 10.8779L9.59292 12.1212Z" fill="#5F5F5F"/>
</svg>
