<svg width="56" height="55" viewBox="0 0 56 55" fill="none" xmlns="http://www.w3.org/2000/svg">
<g filter="url(#filter0_d)">
<path fill-rule="evenodd" clip-rule="evenodd" d="M27.7585 46.5639C40.88 46.5639 51.517 36.1449 51.517 23.2925C51.517 10.44 40.88 0.0209961 27.7585 0.0209961C14.6371 0.0209961 4 10.44 4 23.2925C4 36.1449 14.6371 46.5639 27.7585 46.5639ZM27.5386 41.3925C37.6227 41.3925 45.7974 33.3853 45.7974 23.5079C45.7974 13.6306 37.6227 5.62337 27.5386 5.62337C17.4545 5.62337 9.27971 13.6306 9.27971 23.5079C9.27971 33.3853 17.4545 41.3925 27.5386 41.3925Z" fill="#3C5165"/>
</g>
<path d="M40.9579 23.2924C40.9579 30.4326 35.0485 36.2209 27.7587 36.2209C20.469 36.2209 14.5596 30.4326 14.5596 23.2924C14.5596 16.1521 20.469 10.3638 27.7587 10.3638C35.0485 10.3638 40.9579 16.1521 40.9579 23.2924Z" fill="#3C5165"/>
<path d="M27.9532 15.1042L33.4552 23.3987H22.4512L27.9532 15.1042Z" fill="#EB5757"/>
<path d="M27.9521 31.4805L22.45 23.186H33.4541L27.9521 31.4805Z" fill="white"/>
<path d="M30.1182 8H29.377L27.4756 4.97363V8H26.7344V3.73438H27.4756L29.3828 6.77246V3.73438H30.1182V8Z" fill="white"/>
<path fill-rule="evenodd" clip-rule="evenodd" d="M49.7575 23.2925H47.5576V22.2925H49.7575V23.2925Z" fill="white"/>
<path fill-rule="evenodd" clip-rule="evenodd" d="M7.95963 23.2925H5.75977V22.2925H7.95963V23.2925Z" fill="white"/>
<path fill-rule="evenodd" clip-rule="evenodd" d="M27.7588 45.271V43.1162H28.7588V45.271H27.7588Z" fill="white"/>
<path d="M44.4776 10.7947C44.4776 11.0327 44.2806 11.2257 44.0376 11.2257C43.7946 11.2257 43.5977 11.0327 43.5977 10.7947C43.5977 10.5567 43.7946 10.3638 44.0376 10.3638C44.2806 10.3638 44.4776 10.5567 44.4776 10.7947Z" fill="white"/>
<path d="M11.0391 11.6568C11.0391 11.8948 10.8421 12.0877 10.5992 12.0877C10.3562 12.0877 10.1592 11.8948 10.1592 11.6568C10.1592 11.4188 10.3562 11.2258 10.5992 11.2258C10.8421 11.2258 11.0391 11.4188 11.0391 11.6568Z" fill="white"/>
<path d="M11.919 37.514C11.919 37.752 11.722 37.9449 11.479 37.9449C11.236 37.9449 11.0391 37.752 11.0391 37.514C11.0391 37.276 11.236 37.083 11.479 37.083C11.722 37.083 11.919 37.276 11.919 37.514Z" fill="white"/>
<path d="M44.4776 37.0831C44.4776 37.3211 44.2806 37.514 44.0376 37.514C43.7946 37.514 43.5977 37.3211 43.5977 37.0831C43.5977 36.845 43.7946 36.6521 44.0376 36.6521C44.2806 36.6521 44.4776 36.845 44.4776 37.0831Z" fill="white"/>
<defs>
<filter id="filter0_d" x="0" y="0.0209961" width="55.517" height="54.5429" filterUnits="userSpaceOnUse" color-interpolation-filters="sRGB">
<feFlood flood-opacity="0" result="BackgroundImageFix"/>
<feColorMatrix in="SourceAlpha" type="matrix" values="0 0 0 0 0 0 0 0 0 0 0 0 0 0 0 0 0 0 127 0"/>
<feOffset dy="4"/>
<feGaussianBlur stdDeviation="2"/>
<feColorMatrix type="matrix" values="0 0 0 0 0 0 0 0 0 0 0 0 0 0 0 0 0 0 0.25 0"/>
<feBlend mode="normal" in2="BackgroundImageFix" result="effect1_dropShadow"/>
<feBlend mode="normal" in="SourceGraphic" in2="effect1_dropShadow" result="shape"/>
</filter>
</defs>
</svg>
