<svg width="27" height="27" viewBox="0 0 27 27" fill="none" xmlns="http://www.w3.org/2000/svg">
<path d="M15.352 9.0319V7.0319C14.5945 7.0319 13.9019 7.4599 13.5632 8.13746L15.352 9.0319ZM20.392 9.0319L22.3675 9.34382C22.4588 8.76606 22.2925 8.17732 21.9125 7.73264C21.5325 7.28796 20.9769 7.0319 20.392 7.0319V9.0319ZM17.872 17.0479L16.1022 17.9794C16.4436 18.6281 17.1126 19.0381 17.8457 19.0477C18.5787 19.0574 19.2583 18.6652 19.6167 18.0257L17.872 17.0479ZM15.304 9.1279L13.5152 8.23346C13.3221 8.61964 13.2591 9.05793 13.3357 9.48283L15.304 9.1279ZM9.904 20.4559V22.4559C11.0086 22.4559 11.904 21.5605 11.904 20.4559H9.904ZM4.768 20.4559H2.768C2.768 21.5605 3.66343 22.4559 4.768 22.4559V20.4559ZM4.768 15.2959V13.2959C3.66343 13.2959 2.768 14.1913 2.768 15.2959H4.768ZM9.904 15.2959H11.904C11.904 14.1913 11.0086 13.2959 9.904 13.2959V15.2959ZM23.944 9.0319V11.0319C25.0486 11.0319 25.944 10.1365 25.944 9.0319H23.944ZM23.944 7.3279H25.944C25.944 6.22333 25.0486 5.3279 23.944 5.3279V7.3279ZM15.904 7.3279L14.0032 6.70582C13.8038 7.31499 13.9085 7.9828 14.2847 8.50175C14.6609 9.0207 15.263 9.3279 15.904 9.3279V7.3279ZM16.96 3.1999L18.9261 3.56646C19.0248 3.03698 18.9058 2.49007 18.596 2.04949C18.2862 1.60891 17.8118 1.3119 17.2801 1.22569L16.96 3.1999ZM15.184 2.9119L15.5041 0.937689C14.4341 0.764167 13.4206 1.47471 13.2189 2.53981L15.184 2.9119ZM11.008 13.2559L9.48524 11.9593C9.11491 12.3942 8.94823 12.9667 9.02721 13.5324C9.1062 14.0982 9.42331 14.6031 9.8986 14.92L11.008 13.2559ZM11.536 13.6159V15.6159C12.3969 15.6159 13.1611 15.065 13.4334 14.2484C13.7056 13.4317 13.4247 12.5324 12.736 12.0159L11.536 13.6159ZM8.248 13.6159H6.248C6.248 14.7205 7.14343 15.6159 8.248 15.6159V13.6159ZM8.248 9.2479V7.2479C7.14343 7.2479 6.248 8.14333 6.248 9.2479H8.248ZM12.544 9.2479V11.2479C13.6486 11.2479 14.544 10.3525 14.544 9.2479H12.544ZM12.544 7.5679H14.544C14.544 6.46333 13.6486 5.5679 12.544 5.5679V7.5679ZM8.248 7.5679H6.248C6.248 8.67247 7.14343 9.5679 8.248 9.5679V7.5679ZM8.248 2.9119H10.248C10.248 1.80733 9.35257 0.9119 8.248 0.9119V2.9119ZM6.496 2.9119V0.9119C5.39143 0.9119 4.496 1.80733 4.496 2.9119H6.496ZM6.496 7.5679V9.5679C7.60057 9.5679 8.496 8.67247 8.496 7.5679H6.496ZM2.104 7.5679V5.5679C0.999435 5.5679 0.104004 6.46333 0.104004 7.5679H2.104ZM2.104 9.2479H0.104004C0.104004 10.3525 0.999435 11.2479 2.104 11.2479V9.2479ZM6.496 9.2479H8.496C8.496 8.14333 7.60057 7.2479 6.496 7.2479V9.2479ZM6.496 13.6159V15.6159C7.60057 15.6159 8.496 14.7205 8.496 13.6159H6.496ZM3.112 13.6159V11.6159C2.00743 11.6159 1.112 12.5113 1.112 13.6159H3.112ZM3.112 23.8159H1.112C1.112 24.9205 2.00743 25.8159 3.112 25.8159V23.8159ZM4.768 23.8159V25.8159C5.87257 25.8159 6.768 24.9205 6.768 23.8159H4.768ZM4.768 22.1359V20.1359C3.66343 20.1359 2.768 21.0313 2.768 22.1359H4.768ZM11.608 22.1359V24.1359C12.7126 24.1359 13.608 23.2405 13.608 22.1359H11.608ZM11.608 13.6639L12.7907 12.0511C12.183 11.6054 11.3763 11.5392 10.704 11.8799C10.0317 12.2206 9.608 12.9102 9.608 13.6639H11.608ZM12.52 14.4079L11.1058 15.8221C11.5099 16.2262 12.0675 16.4381 12.638 16.4044C13.2085 16.3707 13.7373 16.0945 14.091 15.6456L12.52 14.4079ZM14.2 11.6959L16.1444 11.2278C15.9478 10.411 15.2616 9.80413 14.4269 9.70881C13.5922 9.61349 12.7869 10.05 12.4111 10.8015L14.2 11.6959ZM16.792 18.6559L18.3829 19.868C18.8617 19.2396 18.9257 18.3882 18.5462 17.6953L16.792 18.6559ZM10.456 23.2879L9.71322 21.4309C9.11244 21.6713 8.66504 22.1874 8.51242 22.8162C8.35981 23.445 8.52084 24.1088 8.94462 24.5978L10.456 23.2879ZM11.488 24.8719L9.66038 25.6842C9.87592 26.1692 10.2754 26.5486 10.7708 26.7389C11.2663 26.9292 11.817 26.9148 12.3018 26.6988L11.488 24.8719ZM17.752 20.2399L19.4099 19.1213C19.0559 18.5966 18.4744 18.2705 17.8421 18.2419C17.2098 18.2134 16.6013 18.4859 16.2015 18.9766L17.752 20.2399ZM22.888 24.8479L21.9936 26.6368C22.9543 27.1171 24.1228 26.7529 24.6404 25.8117L22.888 24.8479ZM24.112 23.3359L25.4352 24.8356C25.9446 24.3862 26.191 23.709 26.0896 23.0374C25.9882 22.3657 25.5529 21.7915 24.9336 21.5124L24.112 23.3359ZM18.856 18.7279L17.1726 17.648C16.7425 18.3185 16.7513 19.1802 17.1949 19.8418L18.856 18.7279ZM22.192 9.0319V7.0319C21.2114 7.0319 20.3754 7.7429 20.2179 8.71082L22.192 9.0319ZM15.352 11.0319H20.392V7.0319H15.352V11.0319ZM18.4165 8.71997C17.9345 11.7725 17.1966 14.1622 16.1273 16.0701L19.6167 18.0257C20.9954 15.5656 21.8415 12.6753 22.3675 9.34382L18.4165 8.71997ZM19.6418 16.1164C18.5619 14.0646 17.7748 11.5601 17.2723 8.77297L13.3357 9.48283C13.8892 12.5517 14.7821 15.4712 16.1022 17.9794L19.6418 16.1164ZM17.0928 10.0223L17.1409 9.92634L13.5632 8.13746L13.5152 8.23346L17.0928 10.0223ZM9.904 18.4559H4.768V22.4559H9.904V18.4559ZM6.768 20.4559V15.2959H2.768V20.4559H6.768ZM4.768 17.2959H9.904V13.2959H4.768V17.2959ZM7.904 15.2959V20.4559H11.904V15.2959H7.904ZM25.944 9.0319V7.3279H21.944V9.0319H25.944ZM23.944 5.3279H15.904V9.3279H23.944V5.3279ZM17.8048 7.94998C18.2635 6.54839 18.6456 5.07107 18.9261 3.56646L14.9939 2.83333C14.7464 4.16073 14.4085 5.46741 14.0032 6.70582L17.8048 7.94998ZM17.2801 1.22569L15.5041 0.937689L14.8639 4.88611L16.6399 5.17411L17.2801 1.22569ZM13.2189 2.53981C12.4712 6.48866 11.2081 9.93594 9.48524 11.9593L12.5308 14.5525C14.9359 11.7279 16.3608 7.44714 17.1491 3.28399L13.2189 2.53981ZM9.8986 14.92C9.94318 14.9497 9.9902 14.9805 10.0289 15.0058C10.0703 15.0329 10.1074 15.0572 10.1446 15.082C10.2188 15.1315 10.2812 15.1748 10.336 15.2159L12.736 12.0159C12.4848 11.8275 12.1998 11.6467 12.1174 11.5918L9.8986 14.92ZM11.536 11.6159H8.248V15.6159H11.536V11.6159ZM10.248 13.6159V9.2479H6.248V13.6159H10.248ZM8.248 11.2479H12.544V7.2479H8.248V11.2479ZM14.544 9.2479V7.5679H10.544V9.2479H14.544ZM12.544 5.5679H8.248V9.5679H12.544V5.5679ZM10.248 7.5679V2.9119H6.248V7.5679H10.248ZM8.248 0.9119H6.496V4.9119H8.248V0.9119ZM4.496 2.9119V7.5679H8.496V2.9119H4.496ZM6.496 5.5679H2.104V9.5679H6.496V5.5679ZM0.104004 7.5679V9.2479H4.104V7.5679H0.104004ZM2.104 11.2479H6.496V7.2479H2.104V11.2479ZM4.496 9.2479V13.6159H8.496V9.2479H4.496ZM6.496 11.6159H3.112V15.6159H6.496V11.6159ZM1.112 13.6159V23.8159H5.112V13.6159H1.112ZM3.112 25.8159H4.768V21.8159H3.112V25.8159ZM6.768 23.8159V22.1359H2.768V23.8159H6.768ZM4.768 24.1359H11.608V20.1359H4.768V24.1359ZM13.608 22.1359V13.6639H9.608V22.1359H13.608ZM10.4253 15.2767C10.773 15.5317 11.0284 15.7447 11.1058 15.8221L13.9342 12.9937C13.6276 12.6871 13.163 12.3241 12.7907 12.0511L10.4253 15.2767ZM14.091 15.6456C14.8199 14.7204 15.4413 13.6855 15.9889 12.5903L12.4111 10.8015C11.9507 11.7223 11.4681 12.5114 10.949 13.1702L14.091 15.6456ZM12.2556 12.164C12.9122 14.8915 13.8326 17.4158 15.0378 19.6165L18.5462 17.6953C17.5434 15.864 16.7358 13.6843 16.1444 11.2278L12.2556 12.164ZM15.2011 17.4438C13.9123 19.1354 12.1831 20.443 9.71322 21.4309L11.1988 25.1449C14.2489 23.9248 16.5997 22.2084 18.3829 19.868L15.2011 17.4438ZM8.94462 24.5978C9.15467 24.8401 9.56405 25.4674 9.66038 25.6842L13.3156 24.0596C13.0279 23.4124 12.3813 22.4557 11.9674 21.978L8.94462 24.5978ZM12.3018 26.6988C15.1865 25.4138 17.4936 23.7233 19.3025 21.5032L16.2015 18.9766C14.8424 20.6445 13.0695 21.978 10.6742 23.045L12.3018 26.6988ZM16.0941 21.3585C17.6067 23.6005 19.5375 25.4087 21.9936 26.6368L23.7824 23.059C22.0145 22.1751 20.5853 20.8633 19.4099 19.1213L16.0941 21.3585ZM24.6404 25.8117C24.7839 25.5509 25.1848 25.0566 25.4352 24.8356L22.7888 21.8362C22.2232 22.3352 21.5201 23.1849 21.1356 23.8841L24.6404 25.8117ZM24.9336 21.5124C23.1515 20.7095 21.7179 19.4047 20.5171 17.614L17.1949 19.8418C18.7301 22.1311 20.7045 23.9943 23.2904 25.1594L24.9336 21.5124ZM20.5394 19.8078C22.3685 16.9566 23.4916 13.4995 24.1661 9.35298L20.2179 8.71082C19.5964 12.5323 18.6075 15.4112 17.1726 17.648L20.5394 19.8078ZM22.192 11.0319H23.944V7.0319H22.192V11.0319Z" fill="white"/>
<path d="M15.352 9.03211H20.392C19.888 12.2241 19.096 14.8641 17.872 17.0481C16.672 14.7681 15.832 12.0561 15.304 9.12811L15.352 9.03211ZM9.904 20.4561H4.768V15.2961H9.904V20.4561ZM23.944 9.03211V7.32811H15.904C16.336 6.00811 16.696 4.61611 16.96 3.20011L15.184 2.91211C14.416 6.96811 13.072 10.8321 11.008 13.2561C11.152 13.3521 11.344 13.4721 11.536 13.6161H8.248V9.24811H12.544V7.56811H8.248V2.91211H6.496V7.56811H2.104V9.24811H6.496V13.6161H3.112V23.8161H4.768V22.1361H11.608V13.6641C11.968 13.9281 12.328 14.2161 12.52 14.4081C13.144 13.6161 13.696 12.7041 14.2 11.6961C14.824 14.2881 15.688 16.6401 16.792 18.6561C15.256 20.6721 13.216 22.1841 10.456 23.2881C10.768 23.6481 11.296 24.4401 11.488 24.8721C14.128 23.6961 16.168 22.1841 17.752 20.2401C19.096 22.2321 20.776 23.7921 22.888 24.8481C23.152 24.3681 23.704 23.6961 24.112 23.3361C21.928 22.3521 20.224 20.7681 18.856 18.7281C20.488 16.1841 21.544 13.0161 22.192 9.03211H23.944Z" fill="#FF0000"/>
</svg>
