<svg width="29" height="23" viewBox="0 0 29 23" fill="none" xmlns="http://www.w3.org/2000/svg">
<path d="M14.4968 4.95679L4.75147 12.9908C4.75147 13.0022 4.74862 13.0188 4.74292 13.0416C4.73734 13.0641 4.73438 13.0805 4.73438 13.0922V21.2275C4.73438 21.5212 4.84176 21.7758 5.05648 21.9901C5.27114 22.2046 5.52534 22.3125 5.81913 22.3125H12.3272V15.8041H16.6665V22.3128H23.1745C23.4683 22.3128 23.7228 22.2051 23.9372 21.9901C24.1519 21.776 24.2597 21.5213 24.2597 21.2275V13.0922C24.2597 13.047 24.2535 13.013 24.2426 12.9908L14.4968 4.95679Z" fill="#3C5165"/>
<path d="M27.9696 11.1606L24.2581 8.07588V1.16073C24.2581 1.00264 24.2072 0.872633 24.1053 0.770883C24.0041 0.669252 23.8741 0.618436 23.7157 0.618436H20.4616C20.3033 0.618436 20.1733 0.669252 20.0715 0.770883C19.97 0.872633 19.9192 1.0027 19.9192 1.16073V4.46571L15.7838 1.00804C15.4226 0.71425 14.9932 0.567383 14.496 0.567383C13.9988 0.567383 13.5694 0.71425 13.2079 1.00804L1.02134 11.1606C0.908374 11.2508 0.846457 11.3722 0.834941 11.5248C0.823483 11.6773 0.86296 11.8104 0.95349 11.9233L2.00429 13.1776C2.09482 13.2792 2.21331 13.3414 2.36024 13.3641C2.49589 13.3755 2.63153 13.3358 2.76718 13.2455L14.4956 3.46572L26.2241 13.2454C26.3147 13.3243 26.4332 13.3636 26.5801 13.3636H26.631C26.7777 13.3413 26.896 13.2787 26.987 13.1773L28.0379 11.9233C28.1282 11.8101 28.1678 11.6772 28.1561 11.5246C28.1445 11.3724 28.0824 11.251 27.9696 11.1606Z" fill="#3C5165"/>
</svg>
