<svg width="27" height="27" viewBox="0 0 27 27" fill="none" xmlns="http://www.w3.org/2000/svg">
<path d="M9.24176 4.40277V2.32585C8.17663 2.32585 7.31318 3.25572 7.31318 4.40277H9.24176ZM9.24176 6.02278H7.31318C7.31318 7.16983 8.17663 8.0997 9.24176 8.0997V6.02278ZM23.9606 6.02278V8.0997C25.0258 8.0997 25.8892 7.16983 25.8892 6.02278H23.9606ZM23.9606 4.40277H25.8892C25.8892 3.25572 25.0258 2.32585 23.9606 2.32585V4.40277ZM17.3649 4.40277H15.4363C15.4363 5.54983 16.2997 6.4797 17.3649 6.4797V4.40277ZM17.3649 2.08493H19.2935C19.2935 0.937874 18.43 0.00800394 17.3649 0.00800394V2.08493ZM15.6523 2.08493V0.00800394C14.5872 0.00800394 13.7238 0.937874 13.7238 2.08493H15.6523ZM15.6523 4.40277V6.4797C16.7175 6.4797 17.5809 5.54983 17.5809 4.40277H15.6523ZM12.6438 8.68954V6.61262C11.5786 6.61262 10.7152 7.54249 10.7152 8.68954H12.6438ZM20.466 8.68954H22.3946C22.3946 7.54249 21.5312 6.61262 20.466 6.61262V8.68954ZM20.466 11.0323V13.1092C21.5312 13.1092 22.3946 12.1794 22.3946 11.0323H20.466ZM12.6438 11.0323H10.7152C10.7152 12.1794 11.5786 13.1092 12.6438 13.1092V11.0323ZM22.1555 12.3283V14.4052C23.2206 14.4052 24.084 13.4754 24.084 12.3283H22.1555ZM22.1555 7.39354H24.084C24.084 6.24649 23.2206 5.31662 22.1555 5.31662V7.39354ZM11.0238 7.39354V5.31662C9.95861 5.31662 9.09518 6.24649 9.09518 7.39354H11.0238ZM11.0238 12.3283H9.09518C9.09518 13.4754 9.95861 14.4052 11.0238 14.4052V12.3283ZM8.10776 2.08493L8.66928 0.0979892C7.69565 -0.221129 6.65933 0.329437 6.30198 1.35567L8.10776 2.08493ZM2.39147 11.9794L1.04189 10.4957C0.311112 11.2667 0.266427 12.5179 0.940072 13.347L2.39147 11.9794ZM3.36347 13.7739L1.61846 14.6582C1.88792 15.2748 2.42114 15.7099 3.04529 15.8223C3.66946 15.9348 4.30511 15.7103 4.74625 15.2217L3.36347 13.7739ZM5.7009 10.7083H7.62947C7.62947 9.80068 7.0822 8.99817 6.27801 8.72657C5.47383 8.45496 4.59902 8.77717 4.11772 9.52226L5.7009 10.7083ZM5.7009 24.6902H3.77233C3.77233 25.8372 4.63578 26.7671 5.7009 26.7671V24.6902ZM7.3209 24.6902V26.7671C8.38602 26.7671 9.24947 25.8372 9.24947 24.6902H7.3209ZM7.3209 7.9917L5.65241 6.95006C5.48204 7.26654 5.39233 7.62588 5.39233 7.9917H7.3209ZM9.70461 2.60831L11.5084 3.34332C11.6972 2.80579 11.6708 2.208 11.4354 1.6922C11.2 1.17641 10.7767 0.788714 10.2661 0.621375L9.70461 2.60831ZM11.4866 18.4594H9.55804C9.55804 19.6065 10.4215 20.5363 11.4866 20.5363V18.4594ZM15.6523 18.4594H17.5809C17.5809 17.3123 16.7175 16.3825 15.6523 16.3825V18.4594ZM15.1895 23.12V21.0431C15.1467 21.0431 15.1038 21.0446 15.0612 21.0477L15.1895 23.12ZM12.2735 23.0951L12.3388 21.0193C11.6732 20.995 11.0429 21.3424 10.6719 21.938C10.3008 22.5336 10.2414 23.2933 10.5148 23.9473L12.2735 23.0951ZM12.8058 24.7649L10.8985 25.073C11.0401 26.0897 11.8511 26.8419 12.8058 26.8419V24.7649ZM16.416 24.4908L15.8408 22.5084C15.8174 22.5162 15.7942 22.5247 15.7711 22.5334L16.416 24.4908ZM17.3418 18.4594V16.3825C16.2766 16.3825 15.4132 17.3123 15.4132 18.4594H17.3418ZM21.7389 18.4594V20.5363C22.804 20.5363 23.6675 19.6065 23.6675 18.4594H21.7389ZM21.7389 16.9391H23.6675C23.6675 15.792 22.804 14.8622 21.7389 14.8622V16.9391ZM11.4866 16.9391V14.8622C10.4215 14.8622 9.55804 15.792 9.55804 16.9391H11.4866ZM8.84833 13.7739V11.6969C7.78321 11.6969 6.91976 12.6268 6.91976 13.7739H8.84833ZM8.84833 18.0606H6.91976C6.91976 19.2077 7.78321 20.1375 8.84833 20.1375V18.0606ZM10.3989 18.0606V20.1375C11.464 20.1375 12.3275 19.2077 12.3275 18.0606H10.3989ZM10.3989 15.2692V13.1923C9.33378 13.1923 8.47033 14.1222 8.47033 15.2692H10.3989ZM22.5952 15.2692H24.5238C24.5238 14.1222 23.6603 13.1923 22.5952 13.1923V15.2692ZM22.5952 18.0108H20.6666C20.6666 19.1579 21.53 20.0877 22.5952 20.0877V18.0108ZM24.1689 18.0108V20.0877C25.234 20.0877 26.0975 19.1579 26.0975 18.0108H24.1689ZM24.1689 13.7739H26.0975C26.0975 12.6268 25.234 11.6969 24.1689 11.6969V13.7739ZM7.31318 4.40277V6.02278H11.1703V4.40277H7.31318ZM9.24176 8.0997H23.9606V3.94585H9.24176V8.0997ZM25.8892 6.02278V4.40277H22.032V6.02278H25.8892ZM23.9606 2.32585H17.3649V6.4797H23.9606V2.32585ZM19.2935 4.40277V2.08493H15.4363V4.40277H19.2935ZM17.3649 0.00800394H15.6523V4.16185H17.3649V0.00800394ZM13.7238 2.08493V4.40277H17.5809V2.08493H13.7238ZM15.6523 2.32585H9.24176V6.4797H15.6523V2.32585ZM12.6438 10.7665H20.466V6.61262H12.6438V10.7665ZM18.5375 8.68954V11.0323H22.3946V8.68954H18.5375ZM20.466 8.95539H12.6438V13.1092H20.466V8.95539ZM14.5723 11.0323V8.68954H10.7152V11.0323H14.5723ZM24.084 12.3283V7.39354H20.2269V12.3283H24.084ZM22.1555 5.31662H11.0238V9.47047H22.1555V5.31662ZM9.09518 7.39354V12.3283H12.9523V7.39354H9.09518ZM11.0238 14.4052H22.1555V10.2514H11.0238V14.4052ZM6.30198 1.35567C5.0609 4.91979 3.06976 8.35644 1.04189 10.4957L3.74105 13.463C6.24918 10.8171 8.51632 6.82668 9.91357 2.81419L6.30198 1.35567ZM0.940072 13.347C0.930436 13.3352 0.961201 13.3734 1.03186 13.4918C1.09565 13.5986 1.16874 13.7315 1.24582 13.8801C1.40084 14.179 1.54259 14.4846 1.61846 14.6582L5.10848 12.8895C4.99921 12.6394 4.81696 12.2472 4.61326 11.8545C4.43285 11.5066 4.15146 10.9915 3.84286 10.6117L0.940072 13.347ZM4.74625 15.2217C5.63107 14.2415 6.4847 13.1319 7.28407 11.8943L4.11772 9.52226C3.43595 10.5777 2.71586 11.5118 1.98069 12.326L4.74625 15.2217ZM3.77233 10.7083V24.6902H7.62947V10.7083H3.77233ZM5.7009 26.7671H7.3209V22.6132H5.7009V26.7671ZM9.24947 24.6902V7.9917H5.39233V24.6902H9.24947ZM8.98938 9.03334C9.96536 7.22031 10.8214 5.29863 11.5084 3.34332L7.90085 1.87331C7.29185 3.60661 6.52789 5.32369 5.65241 6.95006L8.98938 9.03334ZM10.2661 0.621375L8.66928 0.0979892L7.54623 4.07187L9.14309 4.59525L10.2661 0.621375ZM11.4866 20.5363H15.6523V16.3825H11.4866V20.5363ZM13.7238 18.4594V22.7212H17.5809V18.4594H13.7238ZM13.7238 22.7212C13.7238 22.7042 13.7222 22.5356 13.7864 22.3074C13.8617 22.0396 14.023 21.7084 14.3251 21.4373C14.6046 21.1864 14.8802 21.0998 15.0139 21.0689C15.1413 21.0396 15.2177 21.0431 15.1895 21.0431V25.1969C15.3843 25.1969 16.1467 25.2095 16.7944 24.6283C17.5681 23.9341 17.5809 22.9816 17.5809 22.7212H13.7238ZM15.0612 21.0477C14.8226 21.0648 13.7085 21.0694 12.3388 21.0193L12.2081 25.1709C13.5693 25.2205 14.8621 25.2251 15.3177 25.1924L15.0612 21.0477ZM10.5148 23.9473C10.7302 24.4632 10.8736 24.8939 10.8985 25.073L14.713 24.4568C14.599 23.639 14.2333 22.7239 14.0321 22.2428L10.5148 23.9473ZM12.8058 26.8419C13.6443 26.8419 14.4253 26.8425 15.0864 26.8047C15.7255 26.7681 16.4296 26.6894 17.061 26.4482L15.7711 22.5334C15.685 22.5663 15.4403 22.6247 14.8818 22.6566C14.3452 22.6874 13.6798 22.688 12.8058 22.688V26.8419ZM16.9913 26.4732C17.6713 26.2443 18.3986 25.7964 18.8497 24.9058C19.2337 24.1477 19.2703 23.3307 19.2703 22.7711H15.4132C15.4132 22.9609 15.4036 23.0531 15.3985 23.0866C15.3941 23.1154 15.402 23.0383 15.4635 22.9168C15.5329 22.7798 15.6328 22.6603 15.7399 22.5766C15.833 22.5037 15.8872 22.4928 15.8408 22.5084L16.9913 26.4732ZM19.2703 22.7711V18.4594H15.4132V22.7711H19.2703ZM17.3418 20.5363H21.7389V16.3825H17.3418V20.5363ZM23.6675 18.4594V16.9391H19.8103V18.4594H23.6675ZM21.7389 14.8622H11.4866V19.016H21.7389V14.8622ZM9.55804 16.9391V18.4594H13.4152V16.9391H9.55804ZM6.91976 13.7739V18.0606H10.7769V13.7739H6.91976ZM8.84833 20.1375H10.3989V15.9837H8.84833V20.1375ZM12.3275 18.0606V15.2692H8.47033V18.0606H12.3275ZM10.3989 17.3462H22.5952V13.1923H10.3989V17.3462ZM20.6666 15.2692V18.0108H24.5238V15.2692H20.6666ZM22.5952 20.0877H24.1689V15.9339H22.5952V20.0877ZM26.0975 18.0108V13.7739H22.2403V18.0108H26.0975ZM24.1689 11.6969H8.84833V15.8508H24.1689V11.6969Z" fill="white"/>
<path d="M9.24164 4.40305V6.02305H23.9605V4.40305H17.3648V2.08521H15.6522V4.40305H9.24164ZM12.6436 8.68982H20.4659V11.0326H12.6436V8.68982ZM22.1554 12.3286V7.39382H11.0236V12.3286H22.1554ZM8.10764 2.08521C6.7885 5.87351 4.65936 9.58705 2.39136 11.9797C2.71536 12.3784 3.17821 13.3504 3.36336 13.7741C4.17336 12.8769 4.96021 11.8551 5.70079 10.7086V24.6904H7.32079V7.99197C8.2465 6.27228 9.0565 4.4529 9.7045 2.60859L8.10764 2.08521ZM11.4865 18.4597H15.6522V22.7215C15.6522 23.0206 15.5596 23.1203 15.1894 23.1203C14.8422 23.1452 13.6388 23.1452 12.2734 23.0954C12.4816 23.5938 12.7362 24.2667 12.8056 24.7652C14.5182 24.7652 15.6985 24.7652 16.4159 24.491C17.1565 24.2418 17.3416 23.7683 17.3416 22.7714V18.4597H21.7388V16.9394H11.4865V18.4597ZM8.84821 13.7741V18.0609H10.3988V15.2695H22.5951V18.0111H24.1688V13.7741H8.84821Z" fill="black"/>
</svg>
