<svg width="27" height="27" viewBox="0 0 27 27" fill="none" xmlns="http://www.w3.org/2000/svg">
<path d="M21.5306 6.59643V8.67336C22.5958 8.67336 23.4592 7.74349 23.4592 6.59643H21.5306ZM19.2858 6.59643H17.3572C17.3572 7.74349 18.2206 8.67336 19.2858 8.67336V6.59643ZM19.2858 4.17889V2.10197C18.2206 2.10197 17.3572 3.03184 17.3572 4.17889H19.2858ZM21.5306 4.17889H23.4592C23.4592 3.03184 22.5958 2.10197 21.5306 2.10197V4.17889ZM18.0592 6.59643V8.67336C19.1243 8.67336 19.9878 7.74349 19.9878 6.59643H18.0592ZM15.8606 6.59643H13.932C13.932 7.74349 14.7955 8.67336 15.8606 8.67336V6.59643ZM15.8606 4.17889V2.10197C14.7955 2.10197 13.932 3.03184 13.932 4.17889H15.8606ZM18.0592 4.17889H19.9878C19.9878 3.03184 19.1243 2.10197 18.0592 2.10197V4.17889ZM14.634 6.59643V8.67336C15.6992 8.67336 16.5626 7.74349 16.5626 6.59643H14.634ZM12.5049 6.59643H10.5763C10.5763 7.74349 11.4398 8.67336 12.5049 8.67336V6.59643ZM12.5049 4.17889V2.10197C11.4398 2.10197 10.5763 3.03184 10.5763 4.17889H12.5049ZM14.634 4.17889H16.5626C16.5626 3.03184 15.6992 2.10197 14.634 2.10197V4.17889ZM23.0118 2.80812H24.9403C24.9403 1.66107 24.0769 0.731201 23.0118 0.731201V2.80812ZM11.07 2.80812V0.731201C10.0049 0.731201 9.14147 1.66107 9.14147 2.80812H11.07ZM11.07 7.94228H9.14147C9.14147 9.08933 10.0049 10.0192 11.07 10.0192V7.94228ZM23.0118 7.94228V10.0192C24.0769 10.0192 24.9403 9.08933 24.9403 7.94228H23.0118ZM10.4683 16.9644L12.3829 16.7145C12.315 16.1114 12.0054 15.5707 11.5356 15.2346C11.0658 14.8984 10.4829 14.8006 9.94038 14.9668L10.4683 16.9644ZM7.45976 17.8866H5.53119C5.53119 18.5379 5.81493 19.1515 6.2976 19.5441C6.78027 19.9366 7.40597 20.0625 7.9877 19.8842L7.45976 17.8866ZM7.45976 12.5281V10.4512C6.39464 10.4512 5.53119 11.381 5.53119 12.5281H7.45976ZM9.86662 12.5281V14.605C10.9318 14.605 11.7952 13.6752 11.7952 12.5281H9.86662ZM9.86662 10.9081H11.7952C11.7952 9.76107 10.9318 8.8312 9.86662 8.8312V10.9081ZM7.45976 10.9081H5.53119C5.53119 12.0552 6.39464 12.985 7.45976 12.985V10.9081ZM7.45976 5.40012V3.3232C6.39464 3.3232 5.53119 4.25307 5.53119 5.40012H7.45976ZM10.2138 5.40012V7.47705C11.2789 7.47705 12.1423 6.54718 12.1423 5.40012H10.2138ZM10.2138 3.73028H12.1423C12.1423 2.58322 11.2789 1.65336 10.2138 1.65336V3.73028ZM3.03947 3.73028V1.65336C1.97435 1.65336 1.1109 2.58322 1.1109 3.73028H3.03947ZM3.03947 5.40012H1.1109C1.1109 6.54718 1.97435 7.47705 3.03947 7.47705V5.40012ZM5.90919 5.40012H7.83776C7.83776 4.25307 6.97431 3.3232 5.90919 3.3232V5.40012ZM5.90919 10.9081V12.985C6.97431 12.985 7.83776 12.0552 7.83776 10.9081H5.90919ZM3.29404 10.9081V8.8312C2.22892 8.8312 1.36547 9.76107 1.36547 10.9081H3.29404ZM3.29404 12.5281H1.36547C1.36547 13.6752 2.22892 14.605 3.29404 14.605V12.5281ZM5.90919 12.5281H7.83776C7.83776 11.381 6.97431 10.4512 5.90919 10.4512V12.5281ZM5.90919 18.3601L6.42919 20.3601C7.26201 20.109 7.83776 19.2915 7.83776 18.3601H5.90919ZM2.7849 19.2574L2.34043 17.2363C1.83649 17.3649 1.40172 17.7063 1.134 18.1837C0.866287 18.6612 0.788118 19.2344 0.917093 19.7746L2.7849 19.2574ZM3.20147 21.002L1.33366 21.5192C1.46326 22.0619 1.79103 22.5253 2.24253 22.8039C2.69403 23.0826 3.23093 23.1529 3.73129 22.9989L3.20147 21.002ZM10.6535 18.6094L11.2288 20.5918C12.1167 20.2929 12.68 19.354 12.5681 18.3594L10.6535 18.6094ZM12.9678 13.6247V11.5478C11.9026 11.5478 11.0392 12.4777 11.0392 13.6247H12.9678ZM20.8826 13.6247H22.8112C22.8112 12.4777 21.9478 11.5478 20.8826 11.5478V13.6247ZM20.8826 16.142V18.2189C21.9478 18.2189 22.8112 17.2891 22.8112 16.142H20.8826ZM12.9678 16.142H11.0392C11.0392 17.2891 11.9026 18.2189 12.9678 18.2189V16.142ZM22.2943 17.7869L23.4374 16.114C22.7409 15.5621 21.7885 15.5769 21.107 16.1503L22.2943 17.7869ZM19.2626 19.9801L17.8052 21.3404C18.4037 22.084 19.4047 22.2733 20.2025 21.7937L19.2626 19.9801ZM17.7815 17.5626V15.4857C17.125 15.4857 16.5136 15.8453 16.1589 16.44C15.8041 17.0348 15.7545 17.7832 16.0275 18.4261L17.7815 17.5626ZM22.5026 17.5626V19.6395C23.5678 19.6395 24.4312 18.7097 24.4312 17.5626H22.5026ZM22.5026 12.229H24.4312C24.4312 11.082 23.5678 10.1521 22.5026 10.1521V12.229ZM11.4403 12.229V10.1521C10.3752 10.1521 9.51176 11.082 9.51176 12.229H11.4403ZM11.4403 17.5626H9.51176C9.51176 18.7097 10.3752 19.6395 11.4403 19.6395V17.5626ZM15.606 17.5626L16.8797 19.1221C17.4824 18.5513 17.6937 17.6383 17.4105 16.8296C17.1273 16.0209 16.4086 15.4857 15.606 15.4857V17.5626ZM8.36233 21.949L7.76275 19.975C7.11355 20.2037 6.6251 20.7851 6.47863 21.5037C6.33215 22.2222 6.54949 22.9705 7.05003 23.471L8.36233 21.949ZM9.38062 23.27L7.74519 24.3707C8.23437 25.2137 9.20952 25.5651 10.0712 25.2091L9.38062 23.27ZM14.6572 20.2044H16.5858C16.5858 19.4304 16.1861 18.7205 15.5486 18.3627C14.9112 18.0049 14.1419 18.0586 13.5527 18.5019L14.6572 20.2044ZM14.6572 24.7404H12.7286C12.7286 25.8875 13.592 26.8174 14.6572 26.8174V24.7404ZM16.3003 24.7404V26.8174C17.3655 26.8174 18.2289 25.8875 18.2289 24.7404H16.3003ZM16.3003 18.8087L15.0657 17.2132C14.6259 17.6078 14.3718 18.1923 14.3718 18.8087H16.3003ZM16.7169 18.41L18.4623 17.5264C18.2081 16.9442 17.7178 16.5216 17.1346 16.3824C16.5514 16.243 15.9412 16.4026 15.4822 16.8145L16.7169 18.41ZM22.9655 24.7404L22.3064 26.6923C23.1802 27.0345 24.1564 26.6565 24.6278 25.7934L22.9655 24.7404ZM24.0763 23.27L25.3523 24.8274C25.8829 24.3231 26.1145 23.5464 25.9557 22.8037C25.7968 22.0611 25.273 21.4718 24.5911 21.2683L24.0763 23.27ZM20.1189 20.9272L19.2719 19.0613C18.6918 19.3667 18.2922 19.9644 18.2071 20.6538C18.1221 21.343 18.363 22.0323 18.8489 22.4903L20.1189 20.9272ZM23.5209 18.7589L24.6552 20.4386C25.1527 20.049 25.4477 19.4271 25.4495 18.7647C25.4512 18.1023 25.1594 17.4787 24.664 17.086L23.5209 18.7589ZM10.0055 9.31305V7.23612C8.94035 7.23612 8.0769 8.16599 8.0769 9.31305H10.0055ZM10.0055 10.8583H8.0769C8.0769 12.0054 8.94035 12.9352 10.0055 12.9352V10.8583ZM24.1226 10.8583V12.9352C25.1878 12.9352 26.0512 12.0054 26.0512 10.8583H24.1226ZM24.1226 9.31305H26.0512C26.0512 8.16599 25.1878 7.23612 24.1226 7.23612V9.31305ZM21.5306 4.51951H19.2858V8.67336H21.5306V4.51951ZM21.2143 6.59643V4.17889H17.3572V6.59643H21.2143ZM19.2858 6.25582H21.5306V2.10197H19.2858V6.25582ZM19.602 4.17889V6.59643H23.4592V4.17889H19.602ZM18.0592 4.51951H15.8606V8.67336H18.0592V4.51951ZM17.7892 6.59643V4.17889H13.932V6.59643H17.7892ZM15.8606 6.25582H18.0592V2.10197H15.8606V6.25582ZM16.1306 4.17889V6.59643H19.9878V4.17889H16.1306ZM14.634 4.51951H12.5049V8.67336H14.634V4.51951ZM14.4335 6.59643V4.17889H10.5763V6.59643H14.4335ZM12.5049 6.25582H14.634V2.10197H12.5049V6.25582ZM12.7055 4.17889V6.59643H16.5626V4.17889H12.7055ZM23.0118 0.731201H11.07V4.88505H23.0118V0.731201ZM9.14147 2.80812V7.94228H12.9986V2.80812H9.14147ZM11.07 10.0192H23.0118V5.86535H11.07V10.0192ZM24.9403 7.94228V2.80812H21.0832V7.94228H24.9403ZM9.94038 14.9668L6.93182 15.889L7.9877 19.8842L10.9963 18.962L9.94038 14.9668ZM9.38833 17.8866V12.5281H5.53119V17.8866H9.38833ZM7.45976 14.605H9.86662V10.4512H7.45976V14.605ZM11.7952 12.5281V10.9081H7.93804V12.5281H11.7952ZM9.86662 8.8312H7.45976V12.985H9.86662V8.8312ZM9.38833 10.9081V5.40012H5.53119V10.9081H9.38833ZM7.45976 7.47705H10.2138V3.3232H7.45976V7.47705ZM12.1423 5.40012V3.73028H8.28519V5.40012H12.1423ZM10.2138 1.65336H3.03947V5.8072H10.2138V1.65336ZM1.1109 3.73028V5.40012H4.96804V3.73028H1.1109ZM3.03947 7.47705H5.90919V3.3232H3.03947V7.47705ZM3.98061 5.40012V10.9081H7.83776V5.40012H3.98061ZM5.90919 8.8312H3.29404V12.985H5.90919V8.8312ZM1.36547 10.9081V12.5281H5.22262V10.9081H1.36547ZM3.29404 14.605H5.90919V10.4512H3.29404V14.605ZM3.98061 12.5281V18.3601H7.83776V12.5281H3.98061ZM5.38919 16.3602C4.22541 16.711 3.17545 17.0233 2.34043 17.2363L3.22937 21.2784C4.15321 21.0428 5.27868 20.707 6.42919 20.3601L5.38919 16.3602ZM0.917093 19.7746L1.33366 21.5192L5.06928 20.4847L4.65271 18.7401L0.917093 19.7746ZM3.73129 22.9989C5.84759 22.3478 8.61745 21.4705 11.2288 20.5918L10.0783 16.6269C7.50549 17.4928 4.76736 18.3601 2.67166 19.005L3.73129 22.9989ZM12.5681 18.3594L12.3829 16.7145L8.55377 17.2144L8.73891 18.8593L12.5681 18.3594ZM12.9678 15.7017H20.8826V11.5478H12.9678V15.7017ZM18.954 13.6247V16.142H22.8112V13.6247H18.954ZM20.8826 14.065H12.9678V18.2189H20.8826V14.065ZM14.8963 16.142V13.6247H11.0392V16.142H14.8963ZM21.107 16.1503C20.4219 16.7266 19.2093 17.6336 18.3227 18.1666L20.2025 21.7937C21.3062 21.1303 22.6856 20.0933 23.4817 19.4235L21.107 16.1503ZM20.72 18.6198C20.2088 17.9846 19.8125 17.3517 19.5355 16.6991L16.0275 18.4261C16.4911 19.5181 17.113 20.4802 17.8052 21.3404L20.72 18.6198ZM17.7815 19.6395H22.5026V15.4857H17.7815V19.6395ZM24.4312 17.5626V12.229H20.574V17.5626H24.4312ZM22.5026 10.1521H11.4403V14.306H22.5026V10.1521ZM9.51176 12.229V17.5626H13.3689V12.229H9.51176ZM11.4403 19.6395H15.606V15.4857H11.4403V19.6395ZM14.3324 16.003C12.6243 17.6208 10.0123 19.1826 7.76275 19.975L8.96191 23.9231C11.6649 22.9709 14.7461 21.1431 16.8797 19.1221L14.3324 16.003ZM7.05003 23.471C7.25524 23.6762 7.60779 24.134 7.74519 24.3707L11.016 22.1692C10.6906 21.6084 10.1174 20.8699 9.67463 20.4271L7.05003 23.471ZM10.0712 25.2091C11.9215 24.4449 13.957 23.2648 15.7617 21.907L13.5527 18.5019C11.9785 19.6862 10.2186 20.6994 8.68996 21.3309L10.0712 25.2091ZM12.7286 20.2044V24.7404H16.5858V20.2044H12.7286ZM14.6572 26.8174H16.3003V22.6635H14.6572V26.8174ZM18.2289 24.7404V18.8087H14.3718V24.7404H18.2289ZM17.535 20.4042C17.6456 20.3051 17.749 20.2024 17.8118 20.1404C17.8878 20.0653 17.9233 20.0309 17.9516 20.0055L15.4822 16.8145C15.3717 16.9137 15.2683 17.0164 15.2055 17.0784C15.1294 17.1534 15.0939 17.1878 15.0657 17.2132L17.535 20.4042ZM14.9715 19.2935C16.4352 22.6466 18.9727 25.3868 22.3064 26.6923L23.6246 22.7885C21.3577 21.9009 19.5443 20.0053 18.4623 17.5264L14.9715 19.2935ZM24.6278 25.7934C24.6833 25.6919 24.8042 25.5014 24.9644 25.2862C25.1271 25.0679 25.2696 24.9059 25.3523 24.8274L22.8004 21.7126C22.2288 22.2557 21.6191 23.109 21.3031 23.6874L24.6278 25.7934ZM24.5911 21.2683C23.4033 20.9141 22.3129 20.2349 21.3889 19.3641L18.8489 22.4903C20.1466 23.7131 21.7408 24.7286 23.5616 25.2716L24.5911 21.2683ZM20.9659 22.7931C22.0778 22.2077 23.5227 21.3256 24.6552 20.4386L22.3866 17.0792C21.4825 17.7873 20.2429 18.5501 19.2719 19.0613L20.9659 22.7931ZM24.664 17.086L23.4374 16.114L21.1513 19.4598L22.3778 20.4318L24.664 17.086ZM8.0769 9.31305V10.8583H11.934V9.31305H8.0769ZM10.0055 12.9352H24.1226V8.78136H10.0055V12.9352ZM26.0512 10.8583V9.31305H22.194V10.8583H26.0512ZM24.1226 7.23612H10.0055V11.39H24.1226V7.23612Z" fill="white"/>
<path d="M21.5305 6.59641H19.2856V4.17887H21.5305V6.59641ZM18.0591 6.59641H15.8605V4.17887H18.0591V6.59641ZM14.6339 6.59641H12.5048V4.17887H14.6339V6.59641ZM23.0116 2.80811H11.0699V7.94226H23.0116V2.80811ZM10.4682 16.9644L7.45965 17.8866V12.5281H9.8665V10.9081H7.45965V5.40011H10.2136V3.73026H3.03936V5.40011H5.90908V10.9081H3.29393V12.5281H5.90908V18.3601C4.75193 18.709 3.66422 19.033 2.78479 19.2573L3.20136 21.002C5.30736 20.354 8.06136 19.4816 10.6534 18.6093L10.4682 16.9644ZM12.9676 13.6247H20.8825V16.142H12.9676V13.6247ZM22.2942 17.7869C21.5536 18.41 20.2576 19.382 19.2625 19.9801C18.6608 19.2324 18.1516 18.4349 17.7814 17.5626H22.5025V12.229H11.4402V17.5626H15.6059C13.6851 19.382 10.8385 21.0767 8.36222 21.949C8.68622 22.273 9.14908 22.8712 9.3805 23.27C11.0699 22.5721 12.9676 21.4755 14.6571 20.2044V24.7404H16.3002V18.8087C16.4391 18.6841 16.5779 18.5346 16.7168 18.41C17.9896 21.326 20.1651 23.6438 22.9654 24.7404C23.1968 24.3167 23.6828 23.6438 24.0762 23.27C22.5719 22.8213 21.2296 21.974 20.1188 20.9272C21.1602 20.3789 22.5025 19.5564 23.5208 18.7589L22.2942 17.7869ZM10.0054 9.31303V10.8583H24.1225V9.31303H10.0054Z" fill="#EE8100"/>
</svg>
