<svg width="27" height="27" viewBox="0 0 27 27" fill="none" xmlns="http://www.w3.org/2000/svg">
<path d="M18.5441 13.616V11.616C17.4395 11.616 16.5441 12.5114 16.5441 13.616H18.5441ZM20.8961 13.616L21.8108 15.3946C22.6319 14.9723 23.0572 14.0428 22.84 13.1454C22.6227 12.248 21.8194 11.616 20.8961 11.616V13.616ZM20.0561 14.048L19.1414 12.2694C18.5509 12.5731 18.1496 13.1502 18.0704 13.8095C17.9912 14.4688 18.2444 15.1245 18.7462 15.5594L20.0561 14.048ZM21.1121 15.104L21.1495 17.1037C21.939 17.0889 22.6458 16.611 22.9538 15.8839C23.2617 15.1568 23.113 14.3166 22.5742 13.7394L21.1121 15.104ZM18.5441 15.152H16.5441C16.5441 15.6889 16.76 16.2033 17.1432 16.5794C17.5263 16.9555 18.0447 17.1617 18.5815 17.1517L18.5441 15.152ZM14.0801 12.512H12.0801C12.0801 13.6166 12.9755 14.512 14.0801 14.512V12.512ZM14.0801 11.024V9.02404C12.9755 9.02404 12.0801 9.91947 12.0801 11.024H14.0801ZM16.9841 11.024H18.9841C18.9841 9.91947 18.0887 9.02404 16.9841 9.02404V11.024ZM16.9841 12.512V14.512C18.0887 14.512 18.9841 13.6166 18.9841 12.512H16.9841ZM14.0801 8.48004V6.48004C12.9755 6.48004 12.0801 7.37547 12.0801 8.48004H14.0801ZM16.9841 8.48004H18.9841C18.9841 7.37547 18.0887 6.48004 16.9841 6.48004V8.48004ZM16.9841 9.94404V11.944C18.0887 11.944 18.9841 11.0486 18.9841 9.94404H16.9841ZM14.0801 9.94404H12.0801C12.0801 11.0486 12.9755 11.944 14.0801 11.944V9.94404ZM21.6161 8.48004H23.6161C23.6161 7.37547 22.7207 6.48004 21.6161 6.48004V8.48004ZM21.6161 9.94404V11.944C22.7207 11.944 23.6161 11.0486 23.6161 9.94404H21.6161ZM18.5441 9.94404H16.5441C16.5441 11.0486 17.4395 11.944 18.5441 11.944V9.94404ZM18.5441 8.48004V6.48004C17.4395 6.48004 16.5441 7.37547 16.5441 8.48004H18.5441ZM21.6161 12.512V14.512C22.7207 14.512 23.6161 13.6166 23.6161 12.512H21.6161ZM18.5441 12.512H16.5441C16.5441 13.6166 17.4395 14.512 18.5441 14.512V12.512ZM18.5441 11.024V9.02404C17.4395 9.02404 16.5441 9.91947 16.5441 11.024H18.5441ZM21.6161 11.024H23.6161C23.6161 9.91947 22.7207 9.02404 21.6161 9.02404V11.024ZM11.9441 16.616L9.95171 16.7908C10.0436 17.8376 10.9298 18.6348 11.9805 18.6157L11.9441 16.616ZM22.1681 16.352L23.7298 15.1026C23.3363 14.6107 22.7341 14.333 22.1044 14.353L22.1681 16.352ZM22.8641 17.36L21.1365 18.3677C21.4079 18.833 21.8555 19.1691 22.378 19.3C22.9004 19.4309 23.4536 19.3456 23.9123 19.0633L22.8641 17.36ZM24.1121 16.592L25.1603 18.2953C25.6208 18.0119 25.947 17.5541 26.0644 17.0263C26.1818 16.4984 26.0805 15.9455 25.7835 15.4936L24.1121 16.592ZM21.4241 13.616V11.616C20.5844 11.616 19.8342 12.1405 19.5458 12.929C19.2574 13.7176 19.4922 14.6023 20.1337 15.1441L21.4241 13.616ZM23.1041 13.616V15.616C24.2087 15.616 25.1041 14.7206 25.1041 13.616H23.1041ZM23.1041 7.37604H25.1041C25.1041 6.27147 24.2087 5.37604 23.1041 5.37604V7.37604ZM18.5441 7.37604H16.5441C16.5441 8.48061 17.4395 9.37604 18.5441 9.37604V7.37604ZM18.5441 6.08004V4.08004C17.4395 4.08004 16.5441 4.97547 16.5441 6.08004H18.5441ZM23.6801 6.08004V8.08004C24.7847 8.08004 25.6801 7.18461 25.6801 6.08004H23.6801ZM23.6801 4.66404H25.6801C25.6801 3.55947 24.7847 2.66404 23.6801 2.66404V4.66404ZM18.5441 4.66404H16.5441C16.5441 5.76861 17.4395 6.66404 18.5441 6.66404V4.66404ZM18.5441 2.93604H20.5441C20.5441 1.83147 19.6487 0.936035 18.5441 0.936035V2.93604ZM16.9841 2.93604V0.936035C15.8795 0.936035 14.9841 1.83147 14.9841 2.93604H16.9841ZM16.9841 4.66404V6.66404C18.0887 6.66404 18.9841 5.76861 18.9841 4.66404H16.9841ZM12.0641 4.66404V2.66404C10.9595 2.66404 10.0641 3.55947 10.0641 4.66404H12.0641ZM12.0641 6.08004H10.0641C10.0641 7.18461 10.9595 8.08004 12.0641 8.08004V6.08004ZM16.9841 6.08004H18.9841C18.9841 4.97547 18.0887 4.08004 16.9841 4.08004V6.08004ZM16.9841 7.37604V9.37604C18.0887 9.37604 18.9841 8.48061 18.9841 7.37604H16.9841ZM12.6161 7.37604V5.37604C11.5115 5.37604 10.6161 6.27147 10.6161 7.37604H12.6161ZM12.6161 13.616H10.6161C10.6161 14.7206 11.5115 15.616 12.6161 15.616V13.616ZM16.9841 13.616H18.9841C18.9841 12.5114 18.0887 11.616 16.9841 11.616V13.616ZM16.9841 15.176L17.0329 17.1754C18.1181 17.1489 18.9841 16.2616 18.9841 15.176H16.9841ZM11.8241 15.248L11.7896 13.2483C11.2349 13.2579 10.709 13.4974 10.3378 13.9097C9.96652 14.3221 9.78323 14.8701 9.83171 15.4228L11.8241 15.248ZM13.2161 20.36L12.1871 18.645C11.6463 18.9695 11.2902 19.5301 11.2264 20.1576C11.1625 20.7851 11.3984 21.4059 11.8628 21.8327L13.2161 20.36ZM15.4721 23.264L13.6832 24.1584C13.9385 24.6689 14.3996 25.046 14.9506 25.1948C15.5016 25.3436 16.0899 25.25 16.5674 24.9374L15.4721 23.264ZM16.7921 22.4L17.8874 24.0734C18.7662 23.4982 19.0503 22.3412 18.538 21.4244L16.7921 22.4ZM14.4161 19.64L15.6889 18.0973C15.0355 17.5582 14.1134 17.4892 13.3871 17.925L14.4161 19.64ZM4.19206 13.616V11.616C3.08749 11.616 2.19206 12.5114 2.19206 13.616H4.19206ZM6.42406 13.616H8.42406C8.42406 12.5114 7.52863 11.616 6.42406 11.616V13.616ZM6.42406 15.8V17.8C7.52863 17.8 8.42406 16.9046 8.42406 15.8H6.42406ZM4.19206 15.8H2.19206C2.19206 16.9046 3.08749 17.8 4.19206 17.8V15.8ZM4.19206 10.208V8.20804C3.08749 8.20804 2.19206 9.10347 2.19206 10.208H4.19206ZM6.42406 10.208H8.42406C8.42406 9.10347 7.52863 8.20804 6.42406 8.20804V10.208ZM6.42406 12.344V14.344C7.52863 14.344 8.42406 13.4486 8.42406 12.344H6.42406ZM4.19206 12.344H2.19206C2.19206 13.4486 3.08749 14.344 4.19206 14.344V12.344ZM9.92806 12.344V14.344C11.0327 14.344 11.9281 13.4486 11.9281 12.344H9.92806ZM7.69606 12.344H5.69606C5.69606 13.4486 6.59149 14.344 7.69606 14.344V12.344ZM7.69606 10.208V8.20804C6.59149 8.20804 5.69606 9.10347 5.69606 10.208H7.69606ZM9.92806 10.208H11.9281C11.9281 9.10347 11.0327 8.20804 9.92806 8.20804V10.208ZM9.92806 15.8V17.8C11.0327 17.8 11.9281 16.9046 11.9281 15.8H9.92806ZM7.69606 15.8H5.69606C5.69606 16.9046 6.59149 17.8 7.69606 17.8V15.8ZM7.69606 13.616V11.616C6.59149 11.616 5.69606 12.5114 5.69606 13.616H7.69606ZM9.92806 13.616H11.9281C11.9281 12.5114 11.0327 11.616 9.92806 11.616V13.616ZM21.0641 16.736H23.0641C23.0641 15.6314 22.1687 14.736 21.0641 14.736V16.736ZM19.4081 16.736V14.736C18.3035 14.736 17.4081 15.6314 17.4081 16.736H19.4081ZM19.4081 18.008V20.008C20.5127 20.008 21.4081 19.1126 21.4081 18.008H19.4081ZM11.8001 18.008V16.008C10.6955 16.008 9.80006 16.9034 9.80006 18.008H11.8001ZM11.8001 19.088V21.088C12.9047 21.088 13.8001 20.1926 13.8001 19.088H11.8001ZM7.84006 19.088H5.84006C5.84006 20.1926 6.73549 21.088 7.84006 21.088V19.088ZM7.84006 17.144V15.144C6.73549 15.144 5.84006 16.0394 5.84006 17.144H7.84006ZM11.2961 17.144V19.144C12.4007 19.144 13.2961 18.2486 13.2961 17.144H11.2961ZM11.2961 8.86404H13.2961C13.2961 7.75947 12.4007 6.86404 11.2961 6.86404V8.86404ZM7.84006 8.86404H5.84006C5.84006 9.96861 6.73549 10.864 7.84006 10.864V8.86404ZM7.84006 7.08804V5.08804C6.73549 5.08804 5.84006 5.98347 5.84006 7.08804H7.84006ZM11.5601 7.08804V9.08804C12.6647 9.08804 13.5601 8.19261 13.5601 7.08804H11.5601ZM11.5601 5.52804H13.5601C13.5601 4.42347 12.6647 3.52804 11.5601 3.52804V5.52804ZM7.84006 5.52804H5.84006C5.84006 6.63261 6.73549 7.52804 7.84006 7.52804V5.52804ZM7.84006 2.93604H9.84006C9.84006 1.83147 8.94463 0.936035 7.84006 0.936035V2.93604ZM6.25606 2.93604V0.936035C5.15149 0.936035 4.25606 1.83147 4.25606 2.93604H6.25606ZM6.25606 5.52804V7.52804C7.36063 7.52804 8.25606 6.63261 8.25606 5.52804H6.25606ZM2.32006 5.52804V3.52804C1.21549 3.52804 0.320057 4.42347 0.320057 5.52804H2.32006ZM2.32006 7.08804H0.320057C0.320057 8.19261 1.21549 9.08804 2.32006 9.08804V7.08804ZM6.25606 7.08804H8.25606C8.25606 5.98347 7.36063 5.08804 6.25606 5.08804V7.08804ZM6.25606 8.86404V10.864C7.36063 10.864 8.25606 9.96861 8.25606 8.86404H6.25606ZM2.87206 8.86404V6.86404C1.76749 6.86404 0.872057 7.75947 0.872057 8.86404H2.87206ZM2.87206 17.144H0.872057C0.872057 18.2486 1.76749 19.144 2.87206 19.144V17.144ZM6.25606 17.144H8.25606C8.25606 16.0394 7.36063 15.144 6.25606 15.144V17.144ZM6.25606 19.088V21.088C7.36063 21.088 8.25606 20.1926 8.25606 19.088H6.25606ZM2.00806 19.088V17.088C0.903487 17.088 0.00805664 17.9834 0.00805664 19.088H2.00806ZM2.00806 20.672H0.00805664C0.00805664 21.7766 0.903487 22.672 2.00806 22.672V20.672ZM6.25606 20.672H8.25606C8.25606 19.5674 7.36063 18.672 6.25606 18.672V20.672ZM6.25606 24.848H4.25606C4.25606 25.9526 5.15149 26.848 6.25606 26.848V24.848ZM7.84006 24.848V26.848C8.94463 26.848 9.84006 25.9526 9.84006 24.848H7.84006ZM7.84006 20.672V18.672C6.73549 18.672 5.84006 19.5674 5.84006 20.672H7.84006ZM11.8961 20.672V22.672C13.0007 22.672 13.8961 21.7766 13.8961 20.672H11.8961ZM11.8961 19.424V17.424C10.7915 17.424 9.89606 18.3194 9.89606 19.424H11.8961ZM19.4081 19.424H21.4081C21.4081 18.3194 20.5127 17.424 19.4081 17.424V19.424ZM16.3841 23.384L16.464 21.3856C15.7572 21.3573 15.088 21.7045 14.7042 22.2987C14.3203 22.8929 14.2789 23.6457 14.5952 24.2784L16.3841 23.384ZM16.9121 24.872L14.9366 25.1839C15.0901 26.156 15.928 26.872 16.9121 26.872V24.872ZM20.2241 24.608L19.5916 22.7106C19.5658 22.7192 19.5402 22.7284 19.5148 22.738L20.2241 24.608ZM21.0641 19.424V17.424C19.9595 17.424 19.0641 18.3194 19.0641 19.424H21.0641ZM23.9681 19.424V21.424C25.0727 21.424 25.9681 20.5286 25.9681 19.424H23.9681ZM23.9681 18.008H25.9681C25.9681 16.9034 25.0727 16.008 23.9681 16.008V18.008ZM21.0641 18.008H19.0641C19.0641 19.1126 19.9595 20.008 21.0641 20.008V18.008ZM18.5441 15.616H20.8961V11.616H18.5441V15.616ZM19.9814 11.8374L19.1414 12.2694L20.9708 15.8266L21.8108 15.3946L19.9814 11.8374ZM18.7462 15.5594C19.0125 15.7902 19.3009 16.0946 19.65 16.4686L22.5742 13.7394C22.2513 13.3934 21.8197 12.9298 21.366 12.5366L18.7462 15.5594ZM21.0747 13.1043L18.5067 13.1523L18.5815 17.1517L21.1495 17.1037L21.0747 13.1043ZM20.5441 15.152V13.616H16.5441V15.152H20.5441ZM16.0801 12.512V11.024H12.0801V12.512H16.0801ZM14.0801 13.024H16.9841V9.02404H14.0801V13.024ZM14.9841 11.024V12.512H18.9841V11.024H14.9841ZM16.9841 10.512H14.0801V14.512H16.9841V10.512ZM14.0801 10.48H16.9841V6.48004H14.0801V10.48ZM14.9841 8.48004V9.94404H18.9841V8.48004H14.9841ZM16.9841 7.94404H14.0801V11.944H16.9841V7.94404ZM16.0801 9.94404V8.48004H12.0801V9.94404H16.0801ZM19.6161 8.48004V9.94404H23.6161V8.48004H19.6161ZM21.6161 7.94404H18.5441V11.944H21.6161V7.94404ZM20.5441 9.94404V8.48004H16.5441V9.94404H20.5441ZM18.5441 10.48H21.6161V6.48004H18.5441V10.48ZM21.6161 10.512H18.5441V14.512H21.6161V10.512ZM20.5441 12.512V11.024H16.5441V12.512H20.5441ZM18.5441 13.024H21.6161V9.02404H18.5441V13.024ZM19.6161 11.024V12.512H23.6161V11.024H19.6161ZM11.9805 18.6157C14.6312 18.5675 18.4564 18.4712 22.2318 18.351L22.1044 14.353C18.3438 14.4728 14.537 14.5685 11.9077 14.6163L11.9805 18.6157ZM20.6064 17.6014C20.831 17.8822 21.016 18.1611 21.1365 18.3677L24.5917 16.3523C24.3762 15.9829 24.0812 15.5418 23.7298 15.1026L20.6064 17.6014ZM23.9123 19.0633L25.1603 18.2953L23.0639 14.8887L21.8159 15.6567L23.9123 19.0633ZM25.7835 15.4936C25.122 14.487 23.9361 13.1195 22.7145 12.0879L20.1337 15.1441C21.0721 15.9365 21.9982 17.017 22.4407 17.6904L25.7835 15.4936ZM21.4241 15.616H23.1041V11.616H21.4241V15.616ZM25.1041 13.616V7.37604H21.1041V13.616H25.1041ZM23.1041 5.37604H18.5441V9.37604H23.1041V5.37604ZM20.5441 7.37604V6.08004H16.5441V7.37604H20.5441ZM18.5441 8.08004H23.6801V4.08004H18.5441V8.08004ZM25.6801 6.08004V4.66404H21.6801V6.08004H25.6801ZM23.6801 2.66404H18.5441V6.66404H23.6801V2.66404ZM20.5441 4.66404V2.93604H16.5441V4.66404H20.5441ZM18.5441 0.936035H16.9841V4.93604H18.5441V0.936035ZM14.9841 2.93604V4.66404H18.9841V2.93604H14.9841ZM16.9841 2.66404H12.0641V6.66404H16.9841V2.66404ZM10.0641 4.66404V6.08004H14.0641V4.66404H10.0641ZM12.0641 8.08004H16.9841V4.08004H12.0641V8.08004ZM14.9841 6.08004V7.37604H18.9841V6.08004H14.9841ZM16.9841 5.37604H12.6161V9.37604H16.9841V5.37604ZM10.6161 7.37604V13.616H14.6161V7.37604H10.6161ZM12.6161 15.616H16.9841V11.616H12.6161V15.616ZM14.9841 13.616V15.176H18.9841V13.616H14.9841ZM16.9353 13.1766C14.9591 13.2248 13.2457 13.2232 11.7896 13.2483L11.8586 17.2477C13.1865 17.2248 15.0731 17.2232 17.0329 17.1754L16.9353 13.1766ZM9.83171 15.4228L9.95171 16.7908L13.9365 16.4412L13.8165 15.0732L9.83171 15.4228ZM11.8628 21.8327C12.5977 22.5079 13.3748 23.5415 13.6832 24.1584L17.261 22.3696C16.7054 21.2585 15.6105 19.8441 14.5694 18.8873L11.8628 21.8327ZM16.5674 24.9374L17.8874 24.0734L15.6968 20.7266L14.3768 21.5906L16.5674 24.9374ZM18.538 21.4244C17.947 20.3667 16.8172 19.0281 15.6889 18.0973L13.1433 21.1827C13.935 21.8359 14.7252 22.8013 15.0462 23.3756L18.538 21.4244ZM13.3871 17.925L12.1871 18.645L14.2451 22.075L15.4451 21.355L13.3871 17.925ZM4.19206 15.616H6.42406V11.616H4.19206V15.616ZM4.42406 13.616V15.8H8.42406V13.616H4.42406ZM6.42406 13.8H4.19206V17.8H6.42406V13.8ZM6.19206 15.8V13.616H2.19206V15.8H6.19206ZM4.19206 12.208H6.42406V8.20804H4.19206V12.208ZM4.42406 10.208V12.344H8.42406V10.208H4.42406ZM6.42406 10.344H4.19206V14.344H6.42406V10.344ZM6.19206 12.344V10.208H2.19206V12.344H6.19206ZM9.92806 10.344H7.69606V14.344H9.92806V10.344ZM9.69606 12.344V10.208H5.69606V12.344H9.69606ZM7.69606 12.208H9.92806V8.20804H7.69606V12.208ZM7.92806 10.208V12.344H11.9281V10.208H7.92806ZM9.92806 13.8H7.69606V17.8H9.92806V13.8ZM9.69606 15.8V13.616H5.69606V15.8H9.69606ZM7.69606 15.616H9.92806V11.616H7.69606V15.616ZM7.92806 13.616V15.8H11.9281V13.616H7.92806ZM21.0641 14.736H19.4081V18.736H21.0641V14.736ZM17.4081 16.736V18.008H21.4081V16.736H17.4081ZM19.4081 16.008H11.8001V20.008H19.4081V16.008ZM9.80006 18.008V19.088H13.8001V18.008H9.80006ZM11.8001 17.088H7.84006V21.088H11.8001V17.088ZM9.84006 19.088V17.144H5.84006V19.088H9.84006ZM7.84006 19.144H11.2961V15.144H7.84006V19.144ZM13.2961 17.144V8.86404H9.29606V17.144H13.2961ZM11.2961 6.86404H7.84006V10.864H11.2961V6.86404ZM9.84006 8.86404V7.08804H5.84006V8.86404H9.84006ZM7.84006 9.08804H11.5601V5.08804H7.84006V9.08804ZM13.5601 7.08804V5.52804H9.56006V7.08804H13.5601ZM11.5601 3.52804H7.84006V7.52804H11.5601V3.52804ZM9.84006 5.52804V2.93604H5.84006V5.52804H9.84006ZM7.84006 0.936035H6.25606V4.93604H7.84006V0.936035ZM4.25606 2.93604V5.52804H8.25606V2.93604H4.25606ZM6.25606 3.52804H2.32006V7.52804H6.25606V3.52804ZM0.320057 5.52804V7.08804H4.32006V5.52804H0.320057ZM2.32006 9.08804H6.25606V5.08804H2.32006V9.08804ZM4.25606 7.08804V8.86404H8.25606V7.08804H4.25606ZM6.25606 6.86404H2.87206V10.864H6.25606V6.86404ZM0.872057 8.86404V17.144H4.87206V8.86404H0.872057ZM2.87206 19.144H6.25606V15.144H2.87206V19.144ZM4.25606 17.144V19.088H8.25606V17.144H4.25606ZM6.25606 17.088H2.00806V21.088H6.25606V17.088ZM0.00805664 19.088V20.672H4.00806V19.088H0.00805664ZM2.00806 22.672H6.25606V18.672H2.00806V22.672ZM4.25606 20.672V24.848H8.25606V20.672H4.25606ZM6.25606 26.848H7.84006V22.848H6.25606V26.848ZM9.84006 24.848V20.672H5.84006V24.848H9.84006ZM7.84006 22.672H11.8961V18.672H7.84006V22.672ZM13.8961 20.672V19.424H9.89606V20.672H13.8961ZM11.8961 21.424H19.4081V17.424H11.8961V21.424ZM17.4081 19.424V23.072H21.4081V19.424H17.4081ZM17.4081 23.072C17.4081 23.063 17.4082 23.0235 17.414 22.965C17.4197 22.907 17.4332 22.807 17.4686 22.6831C17.5494 22.4001 17.731 22.048 18.0807 21.7683C18.3855 21.5244 18.6776 21.451 18.7717 21.4301C18.8674 21.4089 18.9204 21.4086 18.8576 21.4131L19.1426 25.4029C19.2478 25.3954 19.4359 25.3801 19.6395 25.3349C19.8416 25.29 20.2147 25.1836 20.5795 24.8917C21.4351 24.2072 21.4081 23.2233 21.4081 23.072H17.4081ZM18.8576 21.4131C18.6429 21.4284 17.6608 21.4335 16.464 21.3856L16.3042 25.3824C17.5074 25.4305 18.6853 25.4356 19.1426 25.4029L18.8576 21.4131ZM14.5952 24.2784C14.7776 24.6431 14.9119 25.0279 14.9366 25.1839L18.8876 24.5601C18.7683 23.8041 18.4226 22.9889 18.173 22.4896L14.5952 24.2784ZM16.9121 26.872C17.6829 26.872 18.4055 26.8728 19.0224 26.8353C19.6312 26.7983 20.3021 26.7175 20.9334 26.478L19.5148 22.738C19.4501 22.7625 19.257 22.8137 18.7798 22.8427C18.3107 22.8712 17.7253 22.872 16.9121 22.872V26.872ZM20.8566 26.5054C21.5411 26.2772 22.2277 25.835 22.6536 25.0328C23.0184 24.3456 23.0641 23.616 23.0641 23.096H19.0641C19.0641 23.2455 19.0552 23.314 19.0523 23.3311C19.05 23.3448 19.0604 23.2706 19.1206 23.1572C19.1873 23.0315 19.2864 22.9119 19.4054 22.8199C19.5142 22.7357 19.5945 22.7097 19.5916 22.7106L20.8566 26.5054ZM23.0641 23.096V19.424H19.0641V23.096H23.0641ZM21.0641 21.424H23.9681V17.424H21.0641V21.424ZM25.9681 19.424V18.008H21.9681V19.424H25.9681ZM23.9681 16.008H21.0641V20.008H23.9681V16.008ZM23.0641 18.008V16.736H19.0641V18.008H23.0641Z" fill="white"/>
<path d="M18.5441 13.616H20.8961L20.0561 14.048C20.4161 14.36 20.7761 14.744 21.1121 15.104L18.5441 15.152V13.616ZM14.0801 12.512V11.024H16.9841V12.512H14.0801ZM14.0801 8.48003H16.9841V9.94404H14.0801V8.48003ZM21.6161 8.48003V9.94404H18.5441V8.48003H21.6161ZM21.6161 12.512H18.5441V11.024H21.6161V12.512ZM11.9441 16.616C14.5841 16.568 18.4001 16.472 22.1681 16.352C22.4561 16.712 22.6961 17.072 22.8641 17.36L24.1121 16.592C23.5601 15.752 22.5041 14.528 21.4241 13.616H23.1041V7.37603H18.5441V6.08003H23.6801V4.66404H18.5441V2.93604H16.9841V4.66404H12.0641V6.08003H16.9841V7.37603H12.6161V13.616H16.9841V15.176C15.0161 15.224 13.2161 15.224 11.8241 15.248L11.9441 16.616ZM13.2161 20.36C14.1041 21.176 15.0401 22.4 15.4721 23.264L16.7921 22.4C16.3361 21.584 15.3761 20.432 14.4161 19.64L13.2161 20.36ZM4.19206 13.616H6.42406V15.8H4.19206V13.616ZM4.19206 10.208H6.42406V12.344H4.19206V10.208ZM9.92806 12.344H7.69606V10.208H9.92806V12.344ZM9.92806 15.8H7.69606V13.616H9.92806V15.8ZM21.0641 16.736H19.4081V18.008H11.8001V19.088H7.84006V17.144H11.2961V8.86404H7.84006V7.08803H11.5601V5.52803H7.84006V2.93604H6.25606V5.52803H2.32006V7.08803H6.25606V8.86404H2.87206V17.144H6.25606V19.088H2.00806V20.672H6.25606V24.848H7.84006V20.672H11.8961V19.424H19.4081V23.072C19.4081 23.336 19.3361 23.384 19.0001 23.408C18.6641 23.432 17.5841 23.432 16.3841 23.384C16.6001 23.816 16.8401 24.416 16.9121 24.872C18.4961 24.872 19.5281 24.872 20.2241 24.608C20.8721 24.392 21.0641 23.96 21.0641 23.096V19.424H23.9681V18.008H21.0641V16.736Z" fill="#159600"/>
</svg>
