<svg width="28" height="27" viewBox="0 0 28 27" fill="none" xmlns="http://www.w3.org/2000/svg">
<path fill-rule="evenodd" clip-rule="evenodd" d="M11.8306 18.955C15.7989 18.955 19.0158 15.7381 19.0158 11.7699C19.0158 7.80161 15.7989 4.58472 11.8306 4.58472C7.8624 4.58472 4.64551 7.80161 4.64551 11.7699C4.64551 15.7381 7.8624 18.955 11.8306 18.955ZM11.8306 22.955C18.008 22.955 23.0158 17.9472 23.0158 11.7699C23.0158 5.59247 18.008 0.584717 11.8306 0.584717C5.65326 0.584717 0.645508 5.59247 0.645508 11.7699C0.645508 17.9472 5.65326 22.955 11.8306 22.955Z" fill="#3C5165"/>
<path d="M20.0449 17.1338L27.0634 23.236L24.5211 26.1599L17.5027 20.0578L20.0449 17.1338Z" fill="#3C5165"/>
<path d="M6.61133 10.5654H17.0508V12.9745H6.61133V10.5654Z" fill="#3C5165"/>
</svg>
