<svg width="27" height="26" viewBox="0 0 27 26" fill="none" xmlns="http://www.w3.org/2000/svg">
<path fill-rule="evenodd" clip-rule="evenodd" d="M11.2847 18.3703C15.253 18.3703 18.4699 15.1534 18.4699 11.1851C18.4699 7.2169 15.253 4 11.2847 4C7.3165 4 4.09961 7.2169 4.09961 11.1851C4.09961 15.1534 7.3165 18.3703 11.2847 18.3703ZM11.2847 22.3703C17.4621 22.3703 22.4699 17.3625 22.4699 11.1851C22.4699 5.00776 17.4621 0 11.2847 0C5.10737 0 0.0996094 5.00776 0.0996094 11.1851C0.0996094 17.3625 5.10737 22.3703 11.2847 22.3703Z" fill="#3C5165"/>
<path d="M19.499 16.5491L26.5175 22.6512L23.9752 25.5752L16.9568 19.4731L19.499 16.5491Z" fill="#3C5165"/>
<path d="M6.06543 9.98047H16.5049V12.3896H6.06543V9.98047Z" fill="#3C5165"/>
<path d="M12.4893 5.96533L12.4893 16.4048L10.0802 16.4048L10.0802 5.96533L12.4893 5.96533Z" fill="#3C5165"/>
</svg>
