<svg width="29" height="28" viewBox="0 0 29 28" fill="none" xmlns="http://www.w3.org/2000/svg">
<path d="M23.832 22.6992V27.3321H4.379V22.6992H23.832Z" fill="#6D6E71"/>
<path d="M14.1054 10.6562C18.1973 10.6562 21.5156 13.9746 21.5156 18.0663V22.6992H14.1054V10.6562Z" fill="#D9DC34"/>
<path d="M6.6954 18.0663C6.6954 13.9746 10.0138 10.6562 14.1055 10.6562V12.5077C11.0357 12.5118 8.55097 14.9966 8.5469 18.0663C8.55097 14.9966 11.0357 12.5118 14.1055 12.5077V22.6992H6.6954V18.0663Z" fill="#FFE601"/>
<path d="M14.1054 8.33981C14.3619 8.33981 14.5703 8.13144 14.5703 7.87502V0.464793C14.5703 0.208366 14.3619 0 14.1054 0C13.8489 0 13.6406 0.208366 13.6406 0.464793V7.87502C13.6406 8.13144 13.8489 8.33981 14.1054 8.33981Z" fill="#D9DC34"/>
<path d="M18.2741 9.45389C18.4385 9.45389 18.5947 9.36575 18.6749 9.22142L22.3819 2.80527C22.5101 2.58485 22.4381 2.30025 22.2177 2.17203C21.9973 2.04382 21.7127 2.11583 21.5845 2.33625L21.5804 2.34032L17.8733 8.76054C17.7451 8.98096 17.8212 9.26556 18.0416 9.39377C18.1138 9.43385 18.1939 9.45389 18.2741 9.45389Z" fill="#D9DC34"/>
<path d="M21.3275 12.5077C21.4077 12.5077 21.4878 12.4877 21.56 12.4476L27.9802 8.74052C28.2006 8.6123 28.2808 8.33177 28.1525 8.10728C28.0243 7.88294 27.7438 7.80671 27.5193 7.93508L27.5154 7.93899L21.0952 11.6461C20.8748 11.7743 20.7985 12.0589 20.9267 12.2793C21.011 12.4196 21.1633 12.5077 21.3275 12.5077Z" fill="#D9DC34"/>
<path d="M6.88368 12.5077C7.14011 12.5077 7.34863 12.2993 7.34863 12.0429C7.34863 11.8785 7.26034 11.7262 7.11616 11.6421L0.695945 7.93504C0.475525 7.80667 0.19092 7.87884 0.0627065 8.09926C-0.0655069 8.31968 0.00650549 8.60429 0.226926 8.7325L0.230996 8.73657L6.65121 12.4476C6.72338 12.4876 6.80353 12.5077 6.88368 12.5077Z" fill="#D9DC34"/>
<path d="M9.9375 9.45399C10.1941 9.45399 10.4024 9.24562 10.3984 8.98904C10.3984 8.90889 10.3783 8.82873 10.3383 8.75672L6.63119 2.33635C6.50298 2.11593 6.21838 2.03985 5.99795 2.17213C5.77753 2.30035 5.70552 2.58088 5.82967 2.8013L9.53674 9.22151C9.61689 9.36585 9.76921 9.45806 9.9375 9.45399Z" fill="#D9DC34"/>
<path d="M8.54679 18.5312C8.80321 18.5312 9.01173 18.3228 9.01173 18.0663C9.01565 15.2529 11.2961 12.9726 14.1094 12.9686C14.3659 12.9686 14.5742 12.7602 14.5742 12.5038C14.5742 12.2472 14.3659 12.0388 14.1094 12.0388C10.7831 12.0429 8.08998 14.736 8.08591 18.0623C8.08184 18.3228 8.29036 18.5312 8.54679 18.5312Z" fill="#E6E7E8"/>
</svg>
