<svg width="13" height="17" viewBox="0 0 13 17" fill="none" xmlns="http://www.w3.org/2000/svg">
<path d="M12.4766 13.6797H12.1067C11.3705 12.2963 10.9824 10.7458 10.9824 9.17658V6.87305C10.9824 4.98767 9.81228 3.37058 8.16016 2.70947V1.66016C8.16016 0.744746 7.41541 0 6.5 0C5.58459 0 4.83984 0.744746 4.83984 1.66016V2.70947C3.18772 3.37058 2.01758 4.98764 2.01758 6.87305V9.17658C2.01758 10.7457 1.62953 12.2963 0.89332 13.6797H0.523438C0.248383 13.6797 0.0253906 13.9027 0.0253906 14.1777C0.0253906 14.4528 0.248383 14.6758 0.523438 14.6758H3.72263C3.95863 15.9951 5.11377 17 6.5 17C7.88623 17 9.04133 15.9951 9.27738 14.6758H12.4766C12.7516 14.6758 12.9746 14.4528 12.9746 14.1777C12.9746 13.9027 12.7516 13.6797 12.4766 13.6797ZM5.83594 1.66016C5.83594 1.29399 6.13384 0.996094 6.5 0.996094C6.86616 0.996094 7.16406 1.29399 7.16406 1.66016V2.4399C6.94731 2.40756 6.72562 2.39062 6.5 2.39062C6.27438 2.39062 6.05269 2.40756 5.83594 2.4399V1.66016ZM3.01367 6.87305C3.01367 4.95069 4.57764 3.38672 6.5 3.38672C8.42236 3.38672 9.98633 4.95069 9.98633 6.87305V9.17658C9.98633 9.91074 10.0633 10.6412 10.2138 11.3555H2.78623C2.93671 10.6412 3.01367 9.91074 3.01367 9.17658V6.87305ZM2.52522 12.3516H10.4748C10.6173 12.8048 10.7902 13.2486 10.9928 13.6797H2.00715C2.20979 13.2486 2.38271 12.8048 2.52522 12.3516ZM6.5 16.0039C5.66571 16.0039 4.96084 15.4413 4.74342 14.6758H8.25655C8.03916 15.4413 7.33429 16.0039 6.5 16.0039Z" fill="#4C7DA2"/>
</svg>
