<svg width="21" height="17" viewBox="0 0 21 17" fill="none" xmlns="http://www.w3.org/2000/svg">
<path d="M16.4766 13.6797H16.1067C15.3705 12.2963 14.9824 10.7458 14.9824 9.17658V6.87305C14.9824 4.98767 13.8123 3.37058 12.1602 2.70947V1.66016C12.1602 0.744746 11.4154 0 10.5 0C9.58459 0 8.83984 0.744746 8.83984 1.66016V2.70947C7.18772 3.37058 6.01758 4.98764 6.01758 6.87305V9.17658C6.01758 10.7457 5.62953 12.2963 4.89332 13.6797H4.52344C4.24838 13.6797 4.02539 13.9027 4.02539 14.1777C4.02539 14.4528 4.24838 14.6758 4.52344 14.6758H7.72263C7.95863 15.9951 9.11377 17 10.5 17C11.8862 17 13.0413 15.9951 13.2774 14.6758H16.4766C16.7516 14.6758 16.9746 14.4528 16.9746 14.1777C16.9746 13.9027 16.7516 13.6797 16.4766 13.6797ZM9.83594 1.66016C9.83594 1.29399 10.1338 0.996094 10.5 0.996094C10.8662 0.996094 11.1641 1.29399 11.1641 1.66016V2.4399C10.9473 2.40756 10.7256 2.39062 10.5 2.39062C10.2744 2.39062 10.0527 2.40756 9.83594 2.4399V1.66016ZM7.01367 6.87305C7.01367 4.95069 8.57764 3.38672 10.5 3.38672C12.4224 3.38672 13.9863 4.95069 13.9863 6.87305V9.17658C13.9863 9.91074 14.0633 10.6412 14.2138 11.3555H6.78623C6.93671 10.6412 7.01367 9.91074 7.01367 9.17658V6.87305ZM6.52522 12.3516H14.4748C14.6173 12.8048 14.7902 13.2486 14.9928 13.6797H6.00715C6.20979 13.2486 6.38271 12.8048 6.52522 12.3516ZM10.5 16.0039C9.66571 16.0039 8.96084 15.4413 8.74342 14.6758H12.2565C12.0392 15.4413 11.3343 16.0039 10.5 16.0039Z" fill="#4C7DA2"/>
<path d="M19.9093 4.25141C19.7013 3.9162 19.364 3.9162 19.156 4.25141C18.948 4.58662 18.948 5.13007 19.156 5.46528C19.6581 6.27436 19.9346 7.35209 19.9346 8.49999C19.9346 9.64788 19.6581 10.7256 19.156 11.5347C18.948 11.8699 18.948 12.4133 19.156 12.7486C19.26 12.9162 19.3963 13 19.5327 13C19.669 13 19.8053 12.9162 19.9093 12.7486C20.6127 11.6153 21 10.1064 21 8.49999C21 6.89357 20.6127 5.38471 19.9093 4.25141Z" fill="#4C7DA2"/>
<path d="M17.2267 6.3033C16.9244 6.70771 16.9244 7.36333 17.2267 7.76773C17.3728 7.96331 17.4534 8.22336 17.4534 8.49998C17.4534 8.7766 17.3728 9.03659 17.2267 9.23223C16.9244 9.63664 16.9244 10.2923 17.2267 10.6967C17.3778 10.8989 17.5759 11 17.7739 11C17.9719 11 18.17 10.8989 18.3211 10.6967C19.2263 9.48545 19.2263 7.51458 18.3211 6.3033C18.0189 5.8989 17.5289 5.8989 17.2267 6.3033Z" fill="#4C7DA2"/>
<path d="M1.84398 4.25139C1.63599 3.91623 1.29873 3.91618 1.09067 4.25139C0.387326 5.38469 0 6.89355 0 8.49997C0 10.1064 0.387326 11.6153 1.09067 12.7486C1.19468 12.9162 1.33101 13 1.46731 13C1.6036 13 1.73997 12.9162 1.84394 12.7486C2.05197 12.4133 2.05197 11.8699 1.84394 11.5347C1.34188 10.7256 1.06535 9.64787 1.06535 8.49997C1.06535 7.35208 1.34188 6.27434 1.84398 5.46526C2.05201 5.13005 2.05201 4.5866 1.84398 4.25139Z" fill="#4C7DA2"/>
<path d="M3.22615 11C3.42421 11 3.62227 10.8989 3.77333 10.6967C4.07556 10.2923 4.07556 9.63664 3.77333 9.23223C3.62717 9.03666 3.54664 8.7766 3.54664 8.49998C3.54664 8.22336 3.62717 7.96338 3.77333 7.76773C4.07556 7.36333 4.07556 6.70771 3.77333 6.3033C3.47116 5.8989 2.98114 5.8989 2.67892 6.3033C1.77369 7.51451 1.77369 9.48538 2.67892 10.6967C2.83003 10.8989 3.02809 11 3.22615 11Z" fill="#4C7DA2"/>
</svg>
